<svg version="1.1" viewBox="0.0 0.0 600.0 371.0" fill="none" stroke="none" stroke-linecap="square" stroke-miterlimit="10" width="600" height="371" xmlns:xlink="http://www.w3.org/1999/xlink" xmlns="http://www.w3.org/2000/svg"><path fill="#ffffff" d="M0 0L600.0 0L600.0 371.0L0 371.0L0 0Z" fill-rule="nonzero"/><path stroke="#000000" stroke-width="1.0" stroke-linecap="butt" stroke-opacity="0.0" d="M93.5 275.5L581.5 275.5" fill-rule="nonzero"/><path stroke="#000000" stroke-width="1.0" stroke-linecap="butt" stroke-opacity="0.0" d="M93.5 255.5L581.5 255.5" fill-rule="nonzero"/><path stroke="#000000" stroke-width="1.0" stroke-linecap="butt" stroke-opacity="0.0" d="M93.5 216.5L581.5 216.5" fill-rule="nonzero"/><path stroke="#000000" stroke-width="1.0" stroke-linecap="butt" stroke-opacity="0.0" d="M93.5 197.5L581.5 197.5" fill-rule="nonzero"/><path stroke="#000000" stroke-width="1.0" stroke-linecap="butt" stroke-opacity="0.0" d="M93.5 158.5L581.5 158.5" fill-rule="nonzero"/><path stroke="#000000" stroke-width="1.0" stroke-linecap="butt" stroke-opacity="0.0" d="M93.5 139.5L581.5 139.5" fill-rule="nonzero"/><path stroke="#000000" stroke-width="1.0" stroke-linecap="butt" stroke-opacity="0.0" d="M93.5 100.5L581.5 100.5" fill-rule="nonzero"/><path stroke="#000000" stroke-width="1.0" stroke-linecap="butt" stroke-opacity="0.0" d="M93.5 81.5L581.5 81.5" fill-rule="nonzero"/><path stroke="#000000" stroke-width="1.0" stroke-linecap="butt" d="M581.5 294.5L93.5 294.5" fill-rule="nonzero"/><path stroke="#000000" stroke-width="1.0" stroke-linecap="butt" d="M93.5 294.5L93.5 61.5" fill-rule="nonzero"/><clipPath id="id_0"><path d="M93.55 61.916668L581.45 61.916668L581.45 294.45L93.55 294.45L93.55 61.916668Z" clip-rule="nonzero"/></clipPath><path stroke="#000000" stroke-width="2.0" stroke-linecap="butt" stroke-opacity="0.0" clip-path="url(#id_0)" d="M206.0 294.0L133.0 294.0L133.0 86.0C133.0 84.89543 133.89543 84.0 135.0 84.0L204.0 84.0C205.10457 84.0 206.0 84.89543 206.0 86.0Z" fill-rule="nonzero"/><path fill="#3d85c6" clip-path="url(#id_0)" d="M206.0 294.0L133.0 294.0L133.0 86.0C133.0 84.89543 133.89543 84.0 135.0 84.0L204.0 84.0C205.10457 84.0 206.0 84.89543 206.0 86.0Z" fill-rule="nonzero"/><path stroke="#000000" stroke-width="2.0" stroke-linecap="butt" stroke-opacity="0.0" clip-path="url(#id_0)" d="M318.0 294.0L245.0 294.0L245.0 281.0C245.0 279.89542 245.89543 279.0 247.0 279.0L316.0 279.0C317.10458 279.0 318.0 279.89542 318.0 281.0Z" fill-rule="nonzero"/><path fill="#3d85c6" clip-path="url(#id_0)" d="M318.0 294.0L245.0 294.0L245.0 281.0C245.0 279.89542 245.89543 279.0 247.0 279.0L316.0 279.0C317.10458 279.0 318.0 279.89542 318.0 281.0Z" fill-rule="nonzero"/><path stroke="#000000" stroke-width="2.0" stroke-linecap="butt" stroke-opacity="0.0" clip-path="url(#id_0)" d="M431.0 294.0L358.0 294.0L358.0 274.0C358.0 272.89542 358.89542 272.0 360.0 272.0L429.0 272.0C430.10458 272.0 431.0 272.89542 431.0 274.0Z" fill-rule="nonzero"/><path fill="#3d85c6" clip-path="url(#id_0)" d="M431.0 294.0L358.0 294.0L358.0 274.0C358.0 272.89542 358.89542 272.0 360.0 272.0L429.0 272.0C430.10458 272.0 431.0 272.89542 431.0 274.0Z" fill-rule="nonzero"/><path stroke="#000000" stroke-width="2.0" stroke-linecap="butt" stroke-opacity="0.0" clip-path="url(#id_0)" d="M543.0 294.0L470.0 294.0L470.0 255.0C470.0 253.89543 470.89542 253.0 472.0 253.0L541.0 253.0C542.10455 253.0 543.0 253.89543 543.0 255.0Z" fill-rule="nonzero"/><path fill="#3d85c6" clip-path="url(#id_0)" d="M543.0 294.0L470.0 294.0L470.0 255.0C470.0 253.89543 470.89542 253.0 472.0 253.0L541.0 253.0C542.10455 253.0 543.0 253.89543 543.0 255.0Z" fill-rule="nonzero"/><path stroke="#000000" stroke-width="1.0" stroke-linecap="butt" d="M169.5 300.5L169.5 288.5" fill-rule="nonzero"/><path stroke="#000000" stroke-width="1.0" stroke-linecap="butt" d="M281.5 300.5L281.5 288.5" fill-rule="nonzero"/><path stroke="#000000" stroke-width="1.0" stroke-linecap="butt" d="M393.5 300.5L393.5 288.5" fill-rule="nonzero"/><path stroke="#000000" stroke-width="1.0" stroke-linecap="butt" d="M505.5 300.5L505.5 288.5" fill-rule="nonzero"/><path stroke="#000000" stroke-width="1.0" stroke-linecap="butt" d="M87.5 294.5L99.5 294.5" fill-rule="nonzero"/><path stroke="#000000" stroke-width="1.0" stroke-linecap="butt" d="M87.5 236.5L99.5 236.5" fill-rule="nonzero"/><path stroke="#000000" stroke-width="1.0" stroke-linecap="butt" d="M87.5 178.5L99.5 178.5" fill-rule="nonzero"/><path stroke="#000000" stroke-width="1.0" stroke-linecap="butt" d="M87.5 120.5L99.5 120.5" fill-rule="nonzero"/><path stroke="#000000" stroke-width="1.0" stroke-linecap="butt" d="M87.5 61.5L99.5 61.5" fill-rule="nonzero"/><path fill="#000000" d="M279.39062 349.45L279.39062 340.85626L281.10938 340.85626L283.14062 346.9344Q283.42188 347.79376 283.54688 348.21564Q283.6875 347.7469 284.0 346.84064L286.0625 340.85626L287.59375 340.85626L287.59375 349.45L286.5 349.45L286.5 342.2625L284.0 349.45L282.96875 349.45L280.48438 342.1375L280.48438 349.45L279.39062 349.45ZM292.54688 347.45L293.64062 347.575Q293.39062 348.52814 292.6875 349.0594Q291.98438 349.59064 290.90625 349.59064Q289.54688 349.59064 288.73438 348.7469Q287.9375 347.90314 287.9375 346.3875Q287.9375 344.825 288.75 343.96564Q289.5625 343.09064 290.84375 343.09064Q292.09375 343.09064 292.875 343.9344Q293.67188 344.77814 293.67188 346.325Q293.67188 346.41876 293.67188 346.60626L289.03125 346.60626Q289.09375 347.6375 289.60938 348.1844Q290.125 348.71564 290.90625 348.71564Q291.48438 348.71564 291.89062 348.41876Q292.3125 348.10626 292.54688 347.45ZM289.09375 345.7469L292.5625 345.7469Q292.5 344.95 292.17188 344.5594Q291.65625 343.95 290.85938 343.95Q290.125 343.95 289.625 344.4344Q289.14062 344.91876 289.09375 345.7469ZM294.875 347.59064L295.90625 347.4344Q296.0 348.0594 296.39062 348.3875Q296.79688 348.71564 297.53125 348.71564Q298.25 348.71564 298.59375 348.4344Q298.95312 348.1375 298.95312 347.73126Q298.95312 347.3719 298.64062 347.16876Q298.42188 347.02814 297.5625 346.8094Q296.40625 346.5125 295.95312 346.3094Q295.51562 346.09064 295.28125 345.71564Q295.04688 345.34064 295.04688 344.8719Q295.04688 344.46564 295.23438 344.10626Q295.42188 343.7469 295.75 343.5125Q296.0 343.34064 296.42188 343.21564Q296.84375 343.09064 297.34375 343.09064Q298.0625 343.09064 298.60938 343.3094Q299.17188 343.5125 299.4375 343.8719Q299.70312 344.23126 299.79688 344.825L298.76562 344.96564Q298.70312 344.4969 298.35938 344.23126Q298.03125 343.95 297.40625 343.95Q296.6875 343.95 296.375 344.2Q296.0625 344.4344 296.0625 344.7625Q296.0625 344.96564 296.1875 345.1219Q296.32812 345.29376 296.59375 345.40314Q296.75 345.46564 297.53125 345.66876Q298.65625 345.98126 299.09375 346.16876Q299.53125 346.35626 299.78125 346.71564Q300.03125 347.075 300.03125 347.6219Q300.03125 348.15314 299.71875 348.6219Q299.42188 349.075 298.84375 349.34064Q298.26562 349.59064 297.53125 349.59064Q296.3125 349.59064 295.67188 349.09064Q295.04688 348.575 294.875 347.59064ZM301.875 347.59064L302.90625 347.4344Q303.0 348.0594 303.39062 348.3875Q303.79688 348.71564 304.53125 348.71564Q305.25 348.71564 305.59375 348.4344Q305.95312 348.1375 305.95312 347.73126Q305.95312 347.3719 305.64062 347.16876Q305.42188 347.02814 304.5625 346.8094Q303.40625 346.5125 302.95312 346.3094Q302.51562 346.09064 302.28125 345.71564Q302.04688 345.34064 302.04688 344.8719Q302.04688 344.46564 302.23438 344.10626Q302.42188 343.7469 302.75 343.5125Q303.0 343.34064 303.42188 343.21564Q303.84375 343.09064 304.34375 343.09064Q305.0625 343.09064 305.60938 343.3094Q306.17188 343.5125 306.4375 343.8719Q306.70312 344.23126 306.79688 344.825L305.76562 344.96564Q305.70312 344.4969 305.35938 344.23126Q305.03125 343.95 304.40625 343.95Q303.6875 343.95 303.375 344.2Q303.0625 344.4344 303.0625 344.7625Q303.0625 344.96564 303.1875 345.1219Q303.32812 345.29376 303.59375 345.40314Q303.75 345.46564 304.53125 345.66876Q305.65625 345.98126 306.09375 346.16876Q306.53125 346.35626 306.78125 346.71564Q307.03125 347.075 307.03125 347.6219Q307.03125 348.15314 306.71875 348.6219Q306.42188 349.075 305.84375 349.34064Q305.26562 349.59064 304.53125 349.59064Q303.3125 349.59064 302.67188 349.09064Q302.04688 348.575 301.875 347.59064ZM313.35938 348.6844Q312.76562 349.1844 312.21875 349.3875Q311.6875 349.59064 311.0625 349.59064Q310.03125 349.59064 309.48438 349.09064Q308.9375 348.59064 308.9375 347.8094Q308.9375 347.35626 309.14062 346.98126Q309.34375 346.59064 309.6875 346.3719Q310.03125 346.1375 310.45312 346.02814Q310.75 345.9344 311.39062 345.85626Q312.65625 345.71564 313.26562 345.4969Q313.26562 345.27814 313.26562 345.23126Q313.26562 344.575 312.96875 344.3094Q312.5625 343.96564 311.76562 343.96564Q311.03125 343.96564 310.67188 344.23126Q310.3125 344.48126 310.14062 345.1375L309.10938 344.9969Q309.25 344.34064 309.57812 343.9344Q309.90625 343.52814 310.51562 343.3094Q311.125 343.09064 311.92188 343.09064Q312.71875 343.09064 313.21875 343.27814Q313.71875 343.46564 313.95312 343.7469Q314.1875 344.02814 314.28125 344.46564Q314.32812 344.73126 314.32812 345.4344L314.32812 346.84064Q314.32812 348.3094 314.39062 348.7Q314.46875 349.09064 314.67188 349.45L313.5625 349.45Q313.40625 349.1219 313.35938 348.6844ZM313.26562 346.325Q312.6875 346.5594 311.54688 346.73126Q310.89062 346.825 310.625 346.95Q310.35938 347.0594 310.20312 347.27814Q310.0625 347.4969 310.0625 347.77814Q310.0625 348.2 310.375 348.48126Q310.70312 348.7625 311.3125 348.7625Q311.92188 348.7625 312.39062 348.4969Q312.875 348.23126 313.09375 347.7625Q313.26562 347.40314 313.26562 346.71564L313.26562 346.325ZM316.09375 349.96564L317.125 350.1219Q317.1875 350.59064 317.48438 350.8094Q317.875 351.10626 318.54688 351.10626Q319.28125 351.10626 319.67188 350.8094Q320.07812 350.5125 320.21875 349.9969Q320.3125 349.66876 320.29688 348.6375Q319.60938 349.45 318.57812 349.45Q317.29688 349.45 316.59375 348.52814Q315.89062 347.59064 315.89062 346.3094Q315.89062 345.41876 316.20312 344.66876Q316.53125 343.90314 317.14062 343.4969Q317.75 343.09064 318.57812 343.09064Q319.6875 343.09064 320.40625 343.98126L320.40625 343.23126L321.375 343.23126L321.375 348.60626Q321.375 350.0594 321.07812 350.66876Q320.78125 351.27814 320.14062 351.6219Q319.5 351.98126 318.5625 351.98126Q317.45312 351.98126 316.76562 351.48126Q316.07812 350.98126 316.09375 349.96564ZM316.96875 346.23126Q316.96875 347.45 317.45312 348.0125Q317.9375 348.575 318.67188 348.575Q319.40625 348.575 319.89062 348.0125Q320.39062 347.45 320.39062 346.2625Q320.39062 345.1219 319.875 344.54376Q319.375 343.96564 318.65625 343.96564Q317.95312 343.96564 317.45312 344.54376Q316.96875 345.10626 316.96875 346.23126ZM327.54688 347.45L328.64062 347.575Q328.39062 348.52814 327.6875 349.0594Q326.98438 349.59064 325.90625 349.59064Q324.54688 349.59064 323.73438 348.7469Q322.9375 347.90314 322.9375 346.3875Q322.9375 344.825 323.75 343.96564Q324.5625 343.09064 325.84375 343.09064Q327.09375 343.09064 327.875 343.9344Q328.67188 344.77814 328.67188 346.325Q328.67188 346.41876 328.67188 346.60626L324.03125 346.60626Q324.09375 347.6375 324.60938 348.1844Q325.125 348.71564 325.90625 348.71564Q326.48438 348.71564 326.89062 348.41876Q327.3125 348.10626 327.54688 347.45ZM324.09375 345.7469L327.5625 345.7469Q327.5 344.95 327.17188 344.5594Q326.65625 343.95 325.85938 343.95Q325.125 343.95 324.625 344.4344Q324.14062 344.91876 324.09375 345.7469ZM333.04688 346.6844L334.10938 346.59064Q334.1875 347.2469 334.46875 347.65314Q334.75 348.0594 335.32812 348.325Q335.92188 348.575 336.65625 348.575Q337.29688 348.575 337.79688 348.3875Q338.29688 348.1844 338.53125 347.85626Q338.78125 347.5125 338.78125 347.1219Q338.78125 346.71564 338.54688 346.41876Q338.3125 346.10626 337.78125 345.90314Q337.42188 345.7625 336.23438 345.48126Q335.0625 345.2 334.59375 344.95Q333.96875 344.6219 333.67188 344.15314Q333.375 343.66876 333.375 343.075Q333.375 342.4344 333.73438 341.8719Q334.10938 341.29376 334.8125 341.0125Q335.53125 340.71564 336.39062 340.71564Q337.34375 340.71564 338.07812 341.02814Q338.8125 341.325 339.20312 341.9344Q339.59375 342.52814 339.625 343.27814L338.53125 343.35626Q338.4375 342.54376 337.92188 342.1375Q337.42188 341.71564 336.4375 341.71564Q335.40625 341.71564 334.9375 342.09064Q334.46875 342.46564 334.46875 342.9969Q334.46875 343.46564 334.79688 343.7625Q335.125 344.0594 336.5 344.3719Q337.89062 344.6844 338.40625 344.91876Q339.15625 345.27814 339.51562 345.8094Q339.875 346.325 339.875 347.02814Q339.875 347.71564 339.48438 348.325Q339.09375 348.91876 338.35938 349.2625Q337.625 349.59064 336.70312 349.59064Q335.53125 349.59064 334.73438 349.2625Q333.95312 348.91876 333.5 348.23126Q333.0625 347.54376 333.04688 346.6844ZM341.29688 342.075L341.29688 340.85626L342.35938 340.85626L342.35938 342.075L341.29688 342.075ZM341.29688 349.45L341.29688 343.23126L342.35938 343.23126L342.35938 349.45L341.29688 349.45ZM343.73438 349.45L343.73438 348.59064L347.70312 344.04376Q347.01562 344.075 346.5 344.075L343.96875 344.075L343.96875 343.23126L349.0625 343.23126L349.0625 343.91876L345.6875 347.8719L345.03125 348.59064Q345.75 348.54376 346.35938 348.54376L349.25 348.54376L349.25 349.45L343.73438 349.45ZM353.54688 347.45L354.64062 347.575Q354.39062 348.52814 353.6875 349.0594Q352.98438 349.59064 351.90625 349.59064Q350.54688 349.59064 349.73438 348.7469Q348.9375 347.90314 348.9375 346.3875Q348.9375 344.825 349.75 343.96564Q350.5625 343.09064 351.84375 343.09064Q353.09375 343.09064 353.875 343.9344Q354.67188 344.77814 354.67188 346.325Q354.67188 346.41876 354.67188 346.60626L350.03125 346.60626Q350.09375 347.6375 350.60938 348.1844Q351.125 348.71564 351.90625 348.71564Q352.48438 348.71564 352.89062 348.41876Q353.3125 348.10626 353.54688 347.45ZM350.09375 345.7469L353.5625 345.7469Q353.5 344.95 353.17188 344.5594Q352.65625 343.95 351.85938 343.95Q351.125 343.95 350.625 344.4344Q350.14062 344.91876 350.09375 345.7469ZM361.3125 351.98126Q360.4375 350.8719 359.82812 349.40314Q359.23438 347.91876 359.23438 346.34064Q359.23438 344.95 359.67188 343.66876Q360.20312 342.1844 361.3125 340.71564L362.0625 340.71564Q361.35938 341.9344 361.125 342.45Q360.76562 343.2625 360.5625 344.1375Q360.3125 345.23126 360.3125 346.34064Q360.3125 349.16876 362.0625 351.98126L361.3125 351.98126ZM363.375 349.45L363.375 340.85626L366.60938 340.85626Q367.59375 340.85626 368.1875 341.1219Q368.78125 341.3875 369.10938 341.9344Q369.45312 342.46564 369.45312 343.0594Q369.45312 343.60626 369.15625 344.09064Q368.85938 344.575 368.25 344.8719Q369.03125 345.10626 369.4375 345.66876Q369.85938 346.21564 369.85938 346.96564Q369.85938 347.5594 369.60938 348.09064Q369.35938 348.60626 368.98438 348.8875Q368.60938 349.16876 368.03125 349.3094Q367.46875 349.45 366.65625 349.45L363.375 349.45ZM364.51562 344.46564L366.375 344.46564Q367.125 344.46564 367.45312 344.3719Q367.89062 344.2469 368.10938 343.95Q368.32812 343.6375 368.32812 343.1844Q368.32812 342.7625 368.125 342.4344Q367.92188 342.10626 367.53125 341.9969Q367.15625 341.8719 366.23438 341.8719L364.51562 341.8719L364.51562 344.46564ZM364.51562 348.4344L366.65625 348.4344Q367.20312 348.4344 367.42188 348.3875Q367.82812 348.325 368.07812 348.16876Q368.34375 347.9969 368.51562 347.6844Q368.6875 347.3719 368.6875 346.96564Q368.6875 346.48126 368.4375 346.1219Q368.20312 345.7625 367.76562 345.6219Q367.32812 345.48126 366.5 345.48126L364.51562 345.48126L364.51562 348.4344ZM371.25 351.84064L371.125 350.85626Q371.46875 350.95 371.73438 350.95Q372.07812 350.95 372.28125 350.825Q372.5 350.71564 372.64062 350.5125Q372.73438 350.34064 372.96875 349.71564Q372.98438 349.6375 373.0625 349.46564L370.6875 343.23126L371.82812 343.23126L373.125 346.825Q373.375 347.5125 373.57812 348.27814Q373.76562 347.54376 374.01562 346.85626L375.34375 343.23126L376.39062 343.23126L374.03125 349.5594Q373.64062 350.575 373.4375 350.96564Q373.15625 351.4969 372.78125 351.73126Q372.42188 351.98126 371.92188 351.98126Q371.625 351.98126 371.25 351.84064ZM378.59375 348.5125L378.75 349.4344Q378.29688 349.52814 377.95312 349.52814Q377.375 349.52814 377.0625 349.35626Q376.75 349.16876 376.60938 348.8719Q376.48438 348.575 376.48438 347.6219L376.48438 344.04376L375.71875 344.04376L375.71875 343.23126L376.48438 343.23126L376.48438 341.6844L377.53125 341.0594L377.53125 343.23126L378.59375 343.23126L378.59375 344.04376L377.53125 344.04376L377.53125 347.6844Q377.53125 348.1375 377.57812 348.2625Q377.64062 348.3875 377.76562 348.46564Q377.89062 348.54376 378.125 348.54376Q378.3125 348.54376 378.59375 348.5125ZM383.54688 347.45L384.64062 347.575Q384.39062 348.52814 383.6875 349.0594Q382.98438 349.59064 381.90625 349.59064Q380.54688 349.59064 379.73438 348.7469Q378.9375 347.90314 378.9375 346.3875Q378.9375 344.825 379.75 343.96564Q380.5625 343.09064 381.84375 343.09064Q383.09375 343.09064 383.875 343.9344Q384.67188 344.77814 384.67188 346.325Q384.67188 346.41876 384.67188 346.60626L380.03125 346.60626Q380.09375 347.6375 380.60938 348.1844Q381.125 348.71564 381.90625 348.71564Q382.48438 348.71564 382.89062 348.41876Q383.3125 348.10626 383.54688 347.45ZM380.09375 345.7469L383.5625 345.7469Q383.5 344.95 383.17188 344.5594Q382.65625 343.95 381.85938 343.95Q381.125 343.95 380.625 344.4344Q380.14062 344.91876 380.09375 345.7469ZM385.875 347.59064L386.90625 347.4344Q387.0 348.0594 387.39062 348.3875Q387.79688 348.71564 388.53125 348.71564Q389.25 348.71564 389.59375 348.4344Q389.95312 348.1375 389.95312 347.73126Q389.95312 347.3719 389.64062 347.16876Q389.42188 347.02814 388.5625 346.8094Q387.40625 346.5125 386.95312 346.3094Q386.51562 346.09064 386.28125 345.71564Q386.04688 345.34064 386.04688 344.8719Q386.04688 344.46564 386.23438 344.10626Q386.42188 343.7469 386.75 343.5125Q387.0 343.34064 387.42188 343.21564Q387.84375 343.09064 388.34375 343.09064Q389.0625 343.09064 389.60938 343.3094Q390.17188 343.5125 390.4375 343.8719Q390.70312 344.23126 390.79688 344.825L389.76562 344.96564Q389.70312 344.4969 389.35938 344.23126Q389.03125 343.95 388.40625 343.95Q387.6875 343.95 387.375 344.2Q387.0625 344.4344 387.0625 344.7625Q387.0625 344.96564 387.1875 345.1219Q387.32812 345.29376 387.59375 345.40314Q387.75 345.46564 388.53125 345.66876Q389.65625 345.98126 390.09375 346.16876Q390.53125 346.35626 390.78125 346.71564Q391.03125 347.075 391.03125 347.6219Q391.03125 348.15314 390.71875 348.6219Q390.42188 349.075 389.84375 349.34064Q389.26562 349.59064 388.53125 349.59064Q387.3125 349.59064 386.67188 349.09064Q386.04688 348.575 385.875 347.59064ZM393.98438 351.98126L393.23438 351.98126Q394.98438 349.16876 394.98438 346.34064Q394.98438 345.2469 394.73438 344.15314Q394.53125 343.27814 394.17188 342.46564Q393.9375 341.95 393.23438 340.71564L393.98438 340.71564Q395.07812 342.1844 395.60938 343.66876Q396.0625 344.95 396.0625 346.34064Q396.0625 347.91876 395.45312 349.40314Q394.84375 350.8719 393.98438 351.98126Z" fill-rule="nonzero"/><path fill="#000000" d="M29.550013 216.80833L20.956263 216.80833L20.956263 215.66771L28.534388 215.66771L28.534388 211.43333L29.550013 211.43333L29.550013 216.80833ZM28.784388 205.82396Q29.284388 206.41771 29.487513 206.96458Q29.690638 207.49583 29.690638 208.12083Q29.690638 209.15208 29.190638 209.69896Q28.690638 210.24583 27.909388 210.24583Q27.456263 210.24583 27.081263 210.04271Q26.690638 209.83958 26.471888 209.49583Q26.237513 209.15208 26.128138 208.73021Q26.034388 208.43333 25.956263 207.79271Q25.815638 206.52708 25.596888 205.91771Q25.378138 205.91771 25.331263 205.91771Q24.675013 205.91771 24.409388 206.21458Q24.065638 206.62083 24.065638 207.41771Q24.065638 208.15208 24.331263 208.51146Q24.581263 208.87083 25.237513 209.04271L25.096888 210.07396Q24.440638 209.93333 24.034388 209.60521Q23.628138 209.27708 23.409388 208.66771Q23.190638 208.05833 23.190638 207.26146Q23.190638 206.46458 23.378138 205.96458Q23.565638 205.46458 23.846888 205.23021Q24.128138 204.99583 24.565638 204.90208Q24.831263 204.85521 25.534388 204.85521L26.940638 204.85521Q28.409388 204.85521 28.800013 204.79271Q29.190638 204.71458 29.550013 204.51146L29.550013 205.62083Q29.221888 205.77708 28.784388 205.82396ZM26.425013 205.91771Q26.659388 206.49583 26.831263 207.63646Q26.925013 208.29271 27.050013 208.55833Q27.159388 208.82396 27.378138 208.98021Q27.596888 209.12083 27.878138 209.12083Q28.300013 209.12083 28.581263 208.80833Q28.862513 208.48021 28.862513 207.87083Q28.862513 207.26146 28.596888 206.79271Q28.331263 206.30833 27.862513 206.08958Q27.503138 205.91771 26.815638 205.91771L26.425013 205.91771ZM28.612513 200.58958L29.534388 200.43333Q29.628138 200.88646 29.628138 201.23021Q29.628138 201.80833 29.456263 202.12083Q29.268763 202.43333 28.971888 202.57396Q28.675013 202.69896 27.721888 202.69896L24.143763 202.69896L24.143763 203.46458L23.331263 203.46458L23.331263 202.69896L21.784388 202.69896L21.159388 201.65208L23.331263 201.65208L23.331263 200.58958L24.143763 200.58958L24.143763 201.65208L27.784388 201.65208Q28.237513 201.65208 28.362513 201.60521Q28.487513 201.54271 28.565638 201.41771Q28.643763 201.29271 28.643763 201.05833Q28.643763 200.87083 28.612513 200.58958ZM27.550013 195.63646L27.675013 194.54271Q28.628138 194.79271 29.159388 195.49583Q29.690638 196.19896 29.690638 197.27708Q29.690638 198.63646 28.846888 199.44896Q28.003138 200.24583 26.487513 200.24583Q24.925013 200.24583 24.065638 199.43333Q23.190638 198.62083 23.190638 197.33958Q23.190638 196.08958 24.034388 195.30833Q24.878138 194.51146 26.425013 194.51146Q26.518763 194.51146 26.706263 194.51146L26.706263 199.15208Q27.737513 199.08958 28.284388 198.57396Q28.815638 198.05833 28.815638 197.27708Q28.815638 196.69896 28.518763 196.29271Q28.206263 195.87083 27.550013 195.63646ZM25.846888 199.08958L25.846888 195.62083Q25.050013 195.68333 24.659388 196.01146Q24.050013 196.52708 24.050013 197.32396Q24.050013 198.05833 24.534388 198.55833Q25.018763 199.04271 25.846888 199.08958ZM29.550013 192.88646L23.331263 192.88646L23.331263 191.94896L24.206263 191.94896Q23.190638 191.26146 23.190638 189.96458Q23.190638 189.40208 23.393763 188.93333Q23.596888 188.44896 23.925013 188.21458Q24.253138 187.98021 24.690638 187.88646Q24.987513 187.83958 25.721888 187.83958L29.550013 187.83958L29.550013 188.88646L25.768763 188.88646Q25.112513 188.88646 24.800013 189.01146Q24.487513 189.13646 24.300013 189.44896Q24.096888 189.76146 24.096888 190.18333Q24.096888 190.85521 24.534388 191.35521Q24.956263 191.83958 26.143763 191.83958L29.550013 191.83958L29.550013 192.88646ZM27.268763 181.82396L27.409388 180.79271Q28.471888 180.96458 29.081263 181.66771Q29.690638 182.37083 29.690638 183.38646Q29.690638 184.66771 28.862513 185.44896Q28.018763 186.21458 26.456263 186.21458Q25.456263 186.21458 24.706263 185.88646Q23.940638 185.54271 23.565638 184.87083Q23.190638 184.18333 23.190638 183.37083Q23.190638 182.37083 23.706263 181.73021Q24.206263 181.07396 25.159388 180.88646L25.315638 181.91771Q24.690638 182.05833 24.378138 182.43333Q24.050013 182.80833 24.050013 183.33958Q24.050013 184.13646 24.628138 184.63646Q25.190638 185.13646 26.425013 185.13646Q27.690638 185.13646 28.253138 184.65208Q28.815638 184.16771 28.815638 183.40208Q28.815638 182.77708 28.440638 182.37083Q28.065638 181.94896 27.268763 181.82396ZM31.940638 179.93333L30.956263 180.05833Q31.050013 179.71458 31.050013 179.44896Q31.050013 179.10521 30.925013 178.90208Q30.815638 178.68333 30.612513 178.54271Q30.440638 178.44896 29.815638 178.21458Q29.737513 178.19896 29.565638 178.12083L23.331263 180.49583L23.331263 179.35521L26.925013 178.05833Q27.612513 177.80833 28.378138 177.60521Q27.643763 177.41771 26.956263 177.16771L23.331263 175.83958L23.331263 174.79271L29.659388 177.15208Q30.675013 177.54271 31.065638 177.74583Q31.596888 178.02708 31.831263 178.40208Q32.08126 178.76146 32.08126 179.26146Q32.08126 179.55833 31.940638 179.93333ZM32.08126 169.87083Q30.971888 170.74583 29.503138 171.35521Q28.018763 171.94896 26.440638 171.94896Q25.050013 171.94896 23.768763 171.51146Q22.284388 170.98021 20.815638 169.87083L20.815638 169.12083Q22.034388 169.82396 22.550013 170.05833Q23.362513 170.41771 24.237513 170.62083Q25.331263 170.87083 26.440638 170.87083Q29.268763 170.87083 32.08126 169.12083L32.08126 169.87083ZM27.690638 168.30833L27.534388 167.27708Q28.159388 167.18333 28.487513 166.79271Q28.815638 166.38646 28.815638 165.65208Q28.815638 164.93333 28.534388 164.58958Q28.237513 164.23021 27.831263 164.23021Q27.471888 164.23021 27.268763 164.54271Q27.128138 164.76146 26.909388 165.62083Q26.612513 166.77708 26.409388 167.23021Q26.190638 167.66771 25.815638 167.90208Q25.440638 168.13646 24.971888 168.13646Q24.565638 168.13646 24.206263 167.94896Q23.846888 167.76146 23.612513 167.43333Q23.440638 167.18333 23.315638 166.76146Q23.190638 166.33958 23.190638 165.83958Q23.190638 165.12083 23.409388 164.57396Q23.612513 164.01146 23.971888 163.74583Q24.331263 163.48021 24.925013 163.38646L25.065638 164.41771Q24.596888 164.48021 24.331263 164.82396Q24.050013 165.15208 24.050013 165.77708Q24.050013 166.49583 24.300013 166.80833Q24.534388 167.12083 24.862513 167.12083Q25.065638 167.12083 25.221888 166.99583Q25.393763 166.85521 25.503138 166.58958Q25.565638 166.43333 25.768763 165.65208Q26.081263 164.52708 26.268763 164.08958Q26.456263 163.65208 26.815638 163.40208Q27.175013 163.15208 27.721888 163.15208Q28.253138 163.15208 28.721888 163.46458Q29.175013 163.76146 29.440638 164.33958Q29.690638 164.91771 29.690638 165.65208Q29.690638 166.87083 29.190638 167.51146Q28.675013 168.13646 27.690638 168.30833ZM32.08126 160.19896L32.08126 160.94896Q29.268763 159.19896 26.440638 159.19896Q25.346888 159.19896 24.253138 159.44896Q23.378138 159.65208 22.565638 160.01146Q22.050013 160.24583 20.815638 160.94896L20.815638 160.19896Q22.284388 159.10521 23.768763 158.57396Q25.050013 158.12083 26.440638 158.12083Q28.018763 158.12083 29.503138 158.73021Q30.971888 159.33958 32.08126 160.19896Z" fill-rule="nonzero"/><path fill="#000000" d="M51.05 294.21564Q51.05 292.6844 51.3625 291.7625Q51.675 290.825 52.284374 290.325Q52.909374 289.825 53.846874 289.825Q54.534374 289.825 55.05 290.10626Q55.58125 290.3875 55.925 290.91876Q56.26875 291.4344 56.45625 292.1844Q56.64375 292.9344 56.64375 294.21564Q56.64375 295.73126 56.33125 296.65314Q56.034374 297.575 55.409374 298.09064Q54.8 298.59064 53.846874 298.59064Q52.6125 298.59064 51.89375 297.7Q51.05 296.6375 51.05 294.21564ZM52.128124 294.21564Q52.128124 296.325 52.628124 297.02814Q53.128124 297.73126 53.846874 297.73126Q54.58125 297.73126 55.065624 297.02814Q55.565624 296.325 55.565624 294.21564Q55.565624 292.09064 55.065624 291.40314Q54.58125 290.7 53.83125 290.7Q53.1125 290.7 52.675 291.3094Q52.128124 292.09064 52.128124 294.21564ZM58.64375 298.45L58.64375 297.2469L59.846874 297.2469L59.846874 298.45L58.64375 298.45ZM61.05 294.21564Q61.05 292.6844 61.3625 291.7625Q61.675 290.825 62.284374 290.325Q62.909374 289.825 63.846874 289.825Q64.53438 289.825 65.05 290.10626Q65.58125 290.3875 65.925 290.91876Q66.26875 291.4344 66.45625 292.1844Q66.64375 292.9344 66.64375 294.21564Q66.64375 295.73126 66.33125 296.65314Q66.03438 297.575 65.40938 298.09064Q64.8 298.59064 63.846874 298.59064Q62.6125 298.59064 61.89375 297.7Q61.05 296.6375 61.05 294.21564ZM62.128124 294.21564Q62.128124 296.325 62.628124 297.02814Q63.128124 297.73126 63.846874 297.73126Q64.58125 297.73126 65.06563 297.02814Q65.56563 296.325 65.56563 294.21564Q65.56563 292.09064 65.06563 291.40314Q64.58125 290.7 63.83125 290.7Q63.1125 290.7 62.675 291.3094Q62.128124 292.09064 62.128124 294.21564ZM68.05 294.21564Q68.05 292.6844 68.3625 291.7625Q68.675 290.825 69.28438 290.325Q69.90938 289.825 70.84688 289.825Q71.53438 289.825 72.05 290.10626Q72.58125 290.3875 72.925 290.91876Q73.26875 291.4344 73.45625 292.1844Q73.64375 292.9344 73.64375 294.21564Q73.64375 295.73126 73.33125 296.65314Q73.03438 297.575 72.40938 298.09064Q71.8 298.59064 70.84688 298.59064Q69.6125 298.59064 68.89375 297.7Q68.05 296.6375 68.05 294.21564ZM69.12813 294.21564Q69.12813 296.325 69.62813 297.02814Q70.12813 297.73126 70.84688 297.73126Q71.58125 297.73126 72.06563 297.02814Q72.56563 296.325 72.56563 294.21564Q72.56563 292.09064 72.06563 291.40314Q71.58125 290.7 70.83125 290.7Q70.1125 290.7 69.675 291.3094Q69.12813 292.09064 69.12813 294.21564ZM75.05 294.21564Q75.05 292.6844 75.3625 291.7625Q75.675 290.825 76.28438 290.325Q76.90938 289.825 77.84688 289.825Q78.53438 289.825 79.05 290.10626Q79.58125 290.3875 79.925 290.91876Q80.26875 291.4344 80.45625 292.1844Q80.64375 292.9344 80.64375 294.21564Q80.64375 295.73126 80.33125 296.65314Q80.03438 297.575 79.40938 298.09064Q78.8 298.59064 77.84688 298.59064Q76.6125 298.59064 75.89375 297.7Q75.05 296.6375 75.05 294.21564ZM76.12813 294.21564Q76.12813 296.325 76.62813 297.02814Q77.12813 297.73126 77.84688 297.73126Q78.58125 297.73126 79.06563 297.02814Q79.56563 296.325 79.56563 294.21564Q79.56563 292.09064 79.06563 291.40314Q78.58125 290.7 77.83125 290.7Q77.1125 290.7 76.675 291.3094Q76.12813 292.09064 76.12813 294.21564Z" fill-rule="nonzero"/><path fill="#000000" d="M51.05 236.08229Q51.05 234.55104 51.3625 233.62917Q51.675 232.69167 52.284374 232.19167Q52.909374 231.69167 53.846874 231.69167Q54.534374 231.69167 55.05 231.97292Q55.58125 232.25417 55.925 232.78542Q56.26875 233.30104 56.45625 234.05104Q56.64375 234.80104 56.64375 236.08229Q56.64375 237.59792 56.33125 238.51979Q56.034374 239.44167 55.409374 239.95729Q54.8 240.45729 53.846874 240.45729Q52.6125 240.45729 51.89375 239.56667Q51.05 238.50417 51.05 236.08229ZM52.128124 236.08229Q52.128124 238.19167 52.628124 238.89479Q53.128124 239.59792 53.846874 239.59792Q54.58125 239.59792 55.065624 238.89479Q55.565624 238.19167 55.565624 236.08229Q55.565624 233.95729 55.065624 233.26979Q54.58125 232.56667 53.83125 232.56667Q53.1125 232.56667 52.675 233.17604Q52.128124 233.95729 52.128124 236.08229ZM58.64375 240.31667L58.64375 239.11354L59.846874 239.11354L59.846874 240.31667L58.64375 240.31667ZM61.05 236.08229Q61.05 234.55104 61.3625 233.62917Q61.675 232.69167 62.284374 232.19167Q62.909374 231.69167 63.846874 231.69167Q64.53438 231.69167 65.05 231.97292Q65.58125 232.25417 65.925 232.78542Q66.26875 233.30104 66.45625 234.05104Q66.64375 234.80104 66.64375 236.08229Q66.64375 237.59792 66.33125 238.51979Q66.03438 239.44167 65.40938 239.95729Q64.8 240.45729 63.846874 240.45729Q62.6125 240.45729 61.89375 239.56667Q61.05 238.50417 61.05 236.08229ZM62.128124 236.08229Q62.128124 238.19167 62.628124 238.89479Q63.128124 239.59792 63.846874 239.59792Q64.58125 239.59792 65.06563 238.89479Q65.56563 238.19167 65.56563 236.08229Q65.56563 233.95729 65.06563 233.26979Q64.58125 232.56667 63.83125 232.56667Q63.1125 232.56667 62.675 233.17604Q62.128124 233.95729 62.128124 236.08229ZM68.05 236.08229Q68.05 234.55104 68.3625 233.62917Q68.675 232.69167 69.28438 232.19167Q69.90938 231.69167 70.84688 231.69167Q71.53438 231.69167 72.05 231.97292Q72.58125 232.25417 72.925 232.78542Q73.26875 233.30104 73.45625 234.05104Q73.64375 234.80104 73.64375 236.08229Q73.64375 237.59792 73.33125 238.51979Q73.03438 239.44167 72.40938 239.95729Q71.8 240.45729 70.84688 240.45729Q69.6125 240.45729 68.89375 239.56667Q68.05 238.50417 68.05 236.08229ZM69.12813 236.08229Q69.12813 238.19167 69.62813 238.89479Q70.12813 239.59792 70.84688 239.59792Q71.58125 239.59792 72.06563 238.89479Q72.56563 238.19167 72.56563 236.08229Q72.56563 233.95729 72.06563 233.26979Q71.58125 232.56667 70.83125 232.56667Q70.1125 232.56667 69.675 233.17604Q69.12813 233.95729 69.12813 236.08229ZM75.05 238.06667L76.15938 237.97292Q76.28438 238.78542 76.72188 239.19167Q77.175 239.59792 77.81563 239.59792Q78.56563 239.59792 79.09688 239.01979Q79.62813 238.44167 79.62813 237.50417Q79.62813 236.59792 79.1125 236.08229Q78.6125 235.55104 77.78438 235.55104Q77.28438 235.55104 76.8625 235.78542Q76.45625 236.01979 76.22188 236.37917L75.2375 236.25417L76.06563 231.84792L80.34688 231.84792L80.34688 232.84792L76.90938 232.84792L76.45625 235.16042Q77.22188 234.61354 78.06563 234.61354Q79.19063 234.61354 79.95625 235.39479Q80.7375 236.17604 80.7375 237.41042Q80.7375 238.56667 80.06563 239.42604Q79.2375 240.45729 77.81563 240.45729Q76.64375 240.45729 75.89375 239.80104Q75.15938 239.14479 75.05 238.06667Z" fill-rule="nonzero"/><path fill="#000000" d="M51.05 177.94896Q51.05 176.41771 51.3625 175.49583Q51.675 174.55833 52.284374 174.05833Q52.909374 173.55833 53.846874 173.55833Q54.534374 173.55833 55.05 173.83958Q55.58125 174.12083 55.925 174.65208Q56.26875 175.16771 56.45625 175.91771Q56.64375 176.66771 56.64375 177.94896Q56.64375 179.46458 56.33125 180.38646Q56.034374 181.30833 55.409374 181.82396Q54.8 182.32396 53.846874 182.32396Q52.6125 182.32396 51.89375 181.43333Q51.05 180.37083 51.05 177.94896ZM52.128124 177.94896Q52.128124 180.05833 52.628124 180.76146Q53.128124 181.46458 53.846874 181.46458Q54.58125 181.46458 55.065624 180.76146Q55.565624 180.05833 55.565624 177.94896Q55.565624 175.82396 55.065624 175.13646Q54.58125 174.43333 53.83125 174.43333Q53.1125 174.43333 52.675 175.04271Q52.128124 175.82396 52.128124 177.94896ZM58.64375 182.18333L58.64375 180.98021L59.846874 180.98021L59.846874 182.18333L58.64375 182.18333ZM61.05 177.94896Q61.05 176.41771 61.3625 175.49583Q61.675 174.55833 62.284374 174.05833Q62.909374 173.55833 63.846874 173.55833Q64.53438 173.55833 65.05 173.83958Q65.58125 174.12083 65.925 174.65208Q66.26875 175.16771 66.45625 175.91771Q66.64375 176.66771 66.64375 177.94896Q66.64375 179.46458 66.33125 180.38646Q66.03438 181.30833 65.40938 181.82396Q64.8 182.32396 63.846874 182.32396Q62.6125 182.32396 61.89375 181.43333Q61.05 180.37083 61.05 177.94896ZM62.128124 177.94896Q62.128124 180.05833 62.628124 180.76146Q63.128124 181.46458 63.846874 181.46458Q64.58125 181.46458 65.06563 180.76146Q65.56563 180.05833 65.56563 177.94896Q65.56563 175.82396 65.06563 175.13646Q64.58125 174.43333 63.83125 174.43333Q63.1125 174.43333 62.675 175.04271Q62.128124 175.82396 62.128124 177.94896ZM72.01875 182.18333L70.97188 182.18333L70.97188 175.46458Q70.58125 175.82396 69.95625 176.19896Q69.34688 176.55833 68.8625 176.73021L68.8625 175.71458Q69.7375 175.29271 70.39375 174.71458Q71.06563 174.12083 71.34688 173.55833L72.01875 173.55833L72.01875 182.18333ZM75.05 177.94896Q75.05 176.41771 75.3625 175.49583Q75.675 174.55833 76.28438 174.05833Q76.90938 173.55833 77.84688 173.55833Q78.53438 173.55833 79.05 173.83958Q79.58125 174.12083 79.925 174.65208Q80.26875 175.16771 80.45625 175.91771Q80.64375 176.66771 80.64375 177.94896Q80.64375 179.46458 80.33125 180.38646Q80.03438 181.30833 79.40938 181.82396Q78.8 182.32396 77.84688 182.32396Q76.6125 182.32396 75.89375 181.43333Q75.05 180.37083 75.05 177.94896ZM76.12813 177.94896Q76.12813 180.05833 76.62813 180.76146Q77.12813 181.46458 77.84688 181.46458Q78.58125 181.46458 79.06563 180.76146Q79.56563 180.05833 79.56563 177.94896Q79.56563 175.82396 79.06563 175.13646Q78.58125 174.43333 77.83125 174.43333Q77.1125 174.43333 76.675 175.04271Q76.12813 175.82396 76.12813 177.94896Z" fill-rule="nonzero"/><path fill="#000000" d="M51.05 119.81563Q51.05 118.28438 51.3625 117.3625Q51.675 116.425 52.284374 115.925Q52.909374 115.425 53.846874 115.425Q54.534374 115.425 55.05 115.70625Q55.58125 115.9875 55.925 116.51875Q56.26875 117.03438 56.45625 117.78438Q56.64375 118.53438 56.64375 119.81563Q56.64375 121.33125 56.33125 122.25313Q56.034374 123.175 55.409374 123.69063Q54.8 124.19063 53.846874 124.19063Q52.6125 124.19063 51.89375 123.3Q51.05 122.2375 51.05 119.81563ZM52.128124 119.81563Q52.128124 121.925 52.628124 122.62813Q53.128124 123.33125 53.846874 123.33125Q54.58125 123.33125 55.065624 122.62813Q55.565624 121.925 55.565624 119.81563Q55.565624 117.69063 55.065624 117.00313Q54.58125 116.3 53.83125 116.3Q53.1125 116.3 52.675 116.90938Q52.128124 117.69063 52.128124 119.81563ZM58.64375 124.05L58.64375 122.84688L59.846874 122.84688L59.846874 124.05L58.64375 124.05ZM61.05 119.81563Q61.05 118.28438 61.3625 117.3625Q61.675 116.425 62.284374 115.925Q62.909374 115.425 63.846874 115.425Q64.53438 115.425 65.05 115.70625Q65.58125 115.9875 65.925 116.51875Q66.26875 117.03438 66.45625 117.78438Q66.64375 118.53438 66.64375 119.81563Q66.64375 121.33125 66.33125 122.25313Q66.03438 123.175 65.40938 123.69063Q64.8 124.19063 63.846874 124.19063Q62.6125 124.19063 61.89375 123.3Q61.05 122.2375 61.05 119.81563ZM62.128124 119.81563Q62.128124 121.925 62.628124 122.62813Q63.128124 123.33125 63.846874 123.33125Q64.58125 123.33125 65.06563 122.62813Q65.56563 121.925 65.56563 119.81563Q65.56563 117.69063 65.06563 117.00313Q64.58125 116.3 63.83125 116.3Q63.1125 116.3 62.675 116.90938Q62.128124 117.69063 62.128124 119.81563ZM72.01875 124.05L70.97188 124.05L70.97188 117.33125Q70.58125 117.69063 69.95625 118.06563Q69.34688 118.425 68.8625 118.59688L68.8625 117.58125Q69.7375 117.15938 70.39375 116.58125Q71.06563 115.9875 71.34688 115.425L72.01875 115.425L72.01875 124.05ZM75.05 121.8L76.15938 121.70625Q76.28438 122.51875 76.72188 122.925Q77.175 123.33125 77.81563 123.33125Q78.56563 123.33125 79.09688 122.75313Q79.62813 122.175 79.62813 121.2375Q79.62813 120.33125 79.1125 119.81563Q78.6125 119.28438 77.78438 119.28438Q77.28438 119.28438 76.8625 119.51875Q76.45625 119.75313 76.22188 120.1125L75.2375 119.9875L76.06563 115.58125L80.34688 115.58125L80.34688 116.58125L76.90938 116.58125L76.45625 118.89375Q77.22188 118.34688 78.06563 118.34688Q79.19063 118.34688 79.95625 119.12813Q80.7375 119.90938 80.7375 121.14375Q80.7375 122.3 80.06563 123.15938Q79.2375 124.19063 77.81563 124.19063Q76.64375 124.19063 75.89375 123.53438Q75.15938 122.87813 75.05 121.8Z" fill-rule="nonzero"/><path fill="#000000" d="M51.05 61.68229Q51.05 60.15104 51.3625 59.229164Q51.675 58.291664 52.284374 57.791664Q52.909374 57.291664 53.846874 57.291664Q54.534374 57.291664 55.05 57.572914Q55.58125 57.854164 55.925 58.385414Q56.26875 58.90104 56.45625 59.65104Q56.64375 60.40104 56.64375 61.68229Q56.64375 63.197914 56.33125 64.11979Q56.034374 65.041664 55.409374 65.55729Q54.8 66.05729 53.846874 66.05729Q52.6125 66.05729 51.89375 65.166664Q51.05 64.104164 51.05 61.68229ZM52.128124 61.68229Q52.128124 63.791664 52.628124 64.49479Q53.128124 65.197914 53.846874 65.197914Q54.58125 65.197914 55.065624 64.49479Q55.565624 63.791664 55.565624 61.68229Q55.565624 59.55729 55.065624 58.86979Q54.58125 58.166664 53.83125 58.166664Q53.1125 58.166664 52.675 58.77604Q52.128124 59.55729 52.128124 61.68229ZM58.64375 65.916664L58.64375 64.71354L59.846874 64.71354L59.846874 65.916664L58.64375 65.916664ZM61.05 61.68229Q61.05 60.15104 61.3625 59.229164Q61.675 58.291664 62.284374 57.791664Q62.909374 57.291664 63.846874 57.291664Q64.53438 57.291664 65.05 57.572914Q65.58125 57.854164 65.925 58.385414Q66.26875 58.90104 66.45625 59.65104Q66.64375 60.40104 66.64375 61.68229Q66.64375 63.197914 66.33125 64.11979Q66.03438 65.041664 65.40938 65.55729Q64.8 66.05729 63.846874 66.05729Q62.6125 66.05729 61.89375 65.166664Q61.05 64.104164 61.05 61.68229ZM62.128124 61.68229Q62.128124 63.791664 62.628124 64.49479Q63.128124 65.197914 63.846874 65.197914Q64.58125 65.197914 65.06563 64.49479Q65.56563 63.791664 65.56563 61.68229Q65.56563 59.55729 65.06563 58.86979Q64.58125 58.166664 63.83125 58.166664Q63.1125 58.166664 62.675 58.77604Q62.128124 59.55729 62.128124 61.68229ZM73.59688 64.90104L73.59688 65.916664L67.90938 65.916664Q67.90938 65.541664 68.03438 65.18229Q68.25313 64.604164 68.72188 64.041664Q69.20625 63.479164 70.1125 62.74479Q71.51875 61.58854 72.00313 60.916664Q72.50313 60.24479 72.50313 59.65104Q72.50313 59.02604 72.05 58.604164Q71.59688 58.166664 70.87813 58.166664Q70.1125 58.166664 69.65938 58.61979Q69.20625 59.072914 69.19063 59.885414L68.1125 59.77604Q68.22188 58.55729 68.94063 57.93229Q69.675 57.291664 70.90938 57.291664Q72.14375 57.291664 72.8625 57.979164Q73.58125 58.666664 73.58125 59.68229Q73.58125 60.197914 73.3625 60.697914Q73.15938 61.18229 72.65938 61.74479Q72.175 62.291664 71.05 63.24479Q70.09688 64.041664 69.81563 64.33854Q69.55 64.61979 69.37813 64.90104L73.59688 64.90104ZM75.05 61.68229Q75.05 60.15104 75.3625 59.229164Q75.675 58.291664 76.28438 57.791664Q76.90938 57.291664 77.84688 57.291664Q78.53438 57.291664 79.05 57.572914Q79.58125 57.854164 79.925 58.385414Q80.26875 58.90104 80.45625 59.65104Q80.64375 60.40104 80.64375 61.68229Q80.64375 63.197914 80.33125 64.11979Q80.03438 65.041664 79.40938 65.55729Q78.8 66.05729 77.84688 66.05729Q76.6125 66.05729 75.89375 65.166664Q75.05 64.104164 75.05 61.68229ZM76.12813 61.68229Q76.12813 63.791664 76.62813 64.49479Q77.12813 65.197914 77.84688 65.197914Q78.58125 65.197914 79.06563 64.49479Q79.56563 63.791664 79.56563 61.68229Q79.56563 59.55729 79.06563 58.86979Q78.58125 58.166664 77.83125 58.166664Q77.1125 58.166664 76.675 58.77604Q76.12813 59.55729 76.12813 61.68229Z" fill-rule="nonzero"/><path fill="#000000" d="M151.38362 312.79376Q150.72737 312.54376 150.39925 312.10626Q150.08675 311.65314 150.08675 311.04376Q150.08675 310.10626 150.75862 309.46564Q151.44612 308.825 152.5555 308.825Q153.6805 308.825 154.368 309.48126Q155.0555 310.1375 155.0555 311.075Q155.0555 311.66876 154.743 312.10626Q154.4305 312.54376 153.78987 312.79376Q154.58675 313.04376 154.993 313.6219Q155.39925 314.2 155.39925 314.9969Q155.39925 316.09064 154.618 316.84064Q153.85237 317.59064 152.57112 317.59064Q151.3055 317.59064 150.52425 316.84064Q149.743 316.09064 149.743 314.96564Q149.743 314.1219 150.16487 313.5594Q150.60237 312.9969 151.38362 312.79376ZM151.16487 310.9969Q151.16487 311.60626 151.5555 311.9969Q151.96175 312.3875 152.58675 312.3875Q153.19612 312.3875 153.58675 312.0125Q153.97737 311.6219 153.97737 311.0594Q153.97737 310.48126 153.57112 310.09064Q153.16487 309.6844 152.57112 309.6844Q151.96175 309.6844 151.5555 310.075Q151.16487 310.46564 151.16487 310.9969ZM150.83675 314.96564Q150.83675 315.41876 151.03987 315.84064Q151.25862 316.2625 151.6805 316.4969Q152.10237 316.73126 152.58675 316.73126Q153.33675 316.73126 153.82112 316.2469Q154.32112 315.7625 154.32112 315.0125Q154.32112 314.2469 153.82112 313.7469Q153.32112 313.2469 152.5555 313.2469Q151.8055 313.2469 151.32112 313.7469Q150.83675 314.23126 150.83675 314.96564ZM160.13362 317.45L160.13362 308.85626L163.368 308.85626Q164.35237 308.85626 164.94612 309.1219Q165.53987 309.3875 165.868 309.9344Q166.21175 310.46564 166.21175 311.0594Q166.21175 311.60626 165.91487 312.09064Q165.618 312.575 165.00862 312.8719Q165.78987 313.10626 166.19612 313.66876Q166.618 314.21564 166.618 314.96564Q166.618 315.5594 166.368 316.09064Q166.118 316.60626 165.743 316.8875Q165.368 317.16876 164.78987 317.3094Q164.22737 317.45 163.41487 317.45L160.13362 317.45ZM161.27425 312.46564L163.13362 312.46564Q163.88362 312.46564 164.21175 312.3719Q164.64925 312.2469 164.868 311.95Q165.08675 311.6375 165.08675 311.1844Q165.08675 310.7625 164.88362 310.4344Q164.6805 310.10626 164.28987 309.9969Q163.91487 309.8719 162.993 309.8719L161.27425 309.8719L161.27425 312.46564ZM161.27425 316.4344L163.41487 316.4344Q163.96175 316.4344 164.1805 316.3875Q164.58675 316.325 164.83675 316.16876Q165.10237 315.9969 165.27425 315.6844Q165.44612 315.3719 165.44612 314.96564Q165.44612 314.48126 165.19612 314.1219Q164.96175 313.7625 164.52425 313.6219Q164.08675 313.48126 163.25862 313.48126L161.27425 313.48126L161.27425 316.4344ZM168.00862 319.84064L167.88362 318.85626Q168.22737 318.95 168.493 318.95Q168.83675 318.95 169.03987 318.825Q169.25862 318.71564 169.39925 318.5125Q169.493 318.34064 169.72737 317.71564Q169.743 317.6375 169.82112 317.46564L167.44612 311.23126L168.58675 311.23126L169.88362 314.825Q170.13362 315.5125 170.33675 316.27814Q170.52425 315.54376 170.77425 314.85626L172.10237 311.23126L173.14925 311.23126L170.78987 317.5594Q170.39925 318.575 170.19612 318.96564Q169.91487 319.4969 169.53987 319.73126Q169.1805 319.98126 168.6805 319.98126Q168.38362 319.98126 168.00862 319.84064ZM175.35237 316.5125L175.50862 317.4344Q175.0555 317.52814 174.71175 317.52814Q174.13362 317.52814 173.82112 317.35626Q173.50862 317.16876 173.368 316.8719Q173.243 316.575 173.243 315.6219L173.243 312.04376L172.47737 312.04376L172.47737 311.23126L173.243 311.23126L173.243 309.6844L174.28987 309.0594L174.28987 311.23126L175.35237 311.23126L175.35237 312.04376L174.28987 312.04376L174.28987 315.6844Q174.28987 316.1375 174.33675 316.2625Q174.39925 316.3875 174.52425 316.46564Q174.64925 316.54376 174.88362 316.54376Q175.07112 316.54376 175.35237 316.5125ZM180.3055 315.45L181.39925 315.575Q181.14925 316.52814 180.44612 317.0594Q179.743 317.59064 178.66487 317.59064Q177.3055 317.59064 176.493 316.7469Q175.69612 315.90314 175.69612 314.3875Q175.69612 312.825 176.50862 311.96564Q177.32112 311.09064 178.60237 311.09064Q179.85237 311.09064 180.63362 311.9344Q181.4305 312.77814 181.4305 314.325Q181.4305 314.41876 181.4305 314.60626L176.78987 314.60626Q176.85237 315.6375 177.368 316.1844Q177.88362 316.71564 178.66487 316.71564Q179.243 316.71564 179.64925 316.41876Q180.07112 316.10626 180.3055 315.45ZM176.85237 313.7469L180.32112 313.7469Q180.25862 312.95 179.9305 312.5594Q179.41487 311.95 178.618 311.95Q177.88362 311.95 177.38362 312.4344Q176.89925 312.91876 176.85237 313.7469ZM182.63362 315.59064L183.66487 315.4344Q183.75862 316.0594 184.14925 316.3875Q184.5555 316.71564 185.28987 316.71564Q186.00862 316.71564 186.35237 316.4344Q186.71175 316.1375 186.71175 315.73126Q186.71175 315.3719 186.39925 315.16876Q186.1805 315.02814 185.32112 314.8094Q184.16487 314.5125 183.71175 314.3094Q183.27425 314.09064 183.03987 313.71564Q182.8055 313.34064 182.8055 312.8719Q182.8055 312.46564 182.993 312.10626Q183.1805 311.7469 183.50862 311.5125Q183.75862 311.34064 184.1805 311.21564Q184.60237 311.09064 185.10237 311.09064Q185.82112 311.09064 186.368 311.3094Q186.9305 311.5125 187.19612 311.8719Q187.46175 312.23126 187.5555 312.825L186.52425 312.96564Q186.46175 312.4969 186.118 312.23126Q185.78987 311.95 185.16487 311.95Q184.44612 311.95 184.13362 312.2Q183.82112 312.4344 183.82112 312.7625Q183.82112 312.96564 183.94612 313.1219Q184.08675 313.29376 184.35237 313.40314Q184.50862 313.46564 185.28987 313.66876Q186.41487 313.98126 186.85237 314.16876Q187.28987 314.35626 187.53987 314.71564Q187.78987 315.075 187.78987 315.6219Q187.78987 316.15314 187.47737 316.6219Q187.1805 317.075 186.60237 317.34064Q186.02425 317.59064 185.28987 317.59064Q184.07112 317.59064 183.4305 317.09064Q182.8055 316.575 182.63362 315.59064Z" fill-rule="nonzero"/><path fill="#000000" d="M263.88828 310.96564L262.8414 311.04376Q262.70078 310.41876 262.45078 310.1375Q262.01328 309.6844 261.38828 309.6844Q260.88828 309.6844 260.49765 309.96564Q260.01328 310.34064 259.7164 311.04376Q259.43515 311.73126 259.41953 313.0125Q259.79453 312.4344 260.3414 312.15314Q260.9039 311.8719 261.51328 311.8719Q262.56015 311.8719 263.29453 312.65314Q264.04453 313.4344 264.04453 314.65314Q264.04453 315.46564 263.68515 316.16876Q263.3414 316.85626 262.73203 317.23126Q262.12265 317.59064 261.35703 317.59064Q260.0289 317.59064 259.20078 316.6219Q258.37265 315.65314 258.37265 313.4344Q258.37265 310.9344 259.29453 309.8094Q260.0914 308.825 261.45078 308.825Q262.4664 308.825 263.10703 309.40314Q263.76328 309.96564 263.88828 310.96564ZM259.5914 314.66876Q259.5914 315.21564 259.81015 315.71564Q260.04453 316.2 260.45078 316.46564Q260.87265 316.73126 261.3414 316.73126Q261.99765 316.73126 262.48203 316.2Q262.9664 315.65314 262.9664 314.73126Q262.9664 313.84064 262.48203 313.325Q262.01328 312.8094 261.29453 312.8094Q260.57578 312.8094 260.07578 313.325Q259.5914 313.84064 259.5914 314.66876ZM268.79453 317.45L268.79453 315.3875L265.07578 315.3875L265.07578 314.41876L268.99765 308.85626L269.85703 308.85626L269.85703 314.41876L271.01328 314.41876L271.01328 315.3875L269.85703 315.3875L269.85703 317.45L268.79453 317.45ZM268.79453 314.41876L268.79453 310.5594L266.10703 314.41876L268.79453 314.41876ZM275.79453 317.45L275.79453 308.85626L279.0289 308.85626Q280.01328 308.85626 280.60703 309.1219Q281.20078 309.3875 281.5289 309.9344Q281.87265 310.46564 281.87265 311.0594Q281.87265 311.60626 281.57578 312.09064Q281.2789 312.575 280.66953 312.8719Q281.45078 313.10626 281.85703 313.66876Q282.2789 314.21564 282.2789 314.96564Q282.2789 315.5594 282.0289 316.09064Q281.7789 316.60626 281.4039 316.8875Q281.0289 317.16876 280.45078 317.3094Q279.88828 317.45 279.07578 317.45L275.79453 317.45ZM276.93515 312.46564L278.79453 312.46564Q279.54453 312.46564 279.87265 312.3719Q280.31015 312.2469 280.5289 311.95Q280.74765 311.6375 280.74765 311.1844Q280.74765 310.7625 280.54453 310.4344Q280.3414 310.10626 279.95078 309.9969Q279.57578 309.8719 278.6539 309.8719L276.93515 309.8719L276.93515 312.46564ZM276.93515 316.4344L279.07578 316.4344Q279.62265 316.4344 279.8414 316.3875Q280.24765 316.325 280.49765 316.16876Q280.76328 315.9969 280.93515 315.6844Q281.10703 315.3719 281.10703 314.96564Q281.10703 314.48126 280.85703 314.1219Q280.62265 313.7625 280.18515 313.6219Q279.74765 313.48126 278.91953 313.48126L276.93515 313.48126L276.93515 316.4344ZM283.66953 319.84064L283.54453 318.85626Q283.88828 318.95 284.1539 318.95Q284.49765 318.95 284.70078 318.825Q284.91953 318.71564 285.06015 318.5125Q285.1539 318.34064 285.38828 317.71564Q285.4039 317.6375 285.48203 317.46564L283.10703 311.23126L284.24765 311.23126L285.54453 314.825Q285.79453 315.5125 285.99765 316.27814Q286.18515 315.54376 286.43515 314.85626L287.76328 311.23126L288.81015 311.23126L286.45078 317.5594Q286.06015 318.575 285.85703 318.96564Q285.57578 319.4969 285.20078 319.73126Q284.8414 319.98126 284.3414 319.98126Q284.04453 319.98126 283.66953 319.84064ZM291.01328 316.5125L291.16953 317.4344Q290.7164 317.52814 290.37265 317.52814Q289.79453 317.52814 289.48203 317.35626Q289.16953 317.16876 289.0289 316.8719Q288.9039 316.575 288.9039 315.6219L288.9039 312.04376L288.13828 312.04376L288.13828 311.23126L288.9039 311.23126L288.9039 309.6844L289.95078 309.0594L289.95078 311.23126L291.01328 311.23126L291.01328 312.04376L289.95078 312.04376L289.95078 315.6844Q289.95078 316.1375 289.99765 316.2625Q290.06015 316.3875 290.18515 316.46564Q290.31015 316.54376 290.54453 316.54376Q290.73203 316.54376 291.01328 316.5125ZM295.9664 315.45L297.06015 315.575Q296.81015 316.52814 296.10703 317.0594Q295.4039 317.59064 294.32578 317.59064Q292.9664 317.59064 292.1539 316.7469Q291.35703 315.90314 291.35703 314.3875Q291.35703 312.825 292.16953 311.96564Q292.98203 311.09064 294.26328 311.09064Q295.51328 311.09064 296.29453 311.9344Q297.0914 312.77814 297.0914 314.325Q297.0914 314.41876 297.0914 314.60626L292.45078 314.60626Q292.51328 315.6375 293.0289 316.1844Q293.54453 316.71564 294.32578 316.71564Q294.9039 316.71564 295.31015 316.41876Q295.73203 316.10626 295.9664 315.45ZM292.51328 313.7469L295.98203 313.7469Q295.91953 312.95 295.5914 312.5594Q295.07578 311.95 294.2789 311.95Q293.54453 311.95 293.04453 312.4344Q292.56015 312.91876 292.51328 313.7469ZM298.29453 315.59064L299.32578 315.4344Q299.41953 316.0594 299.81015 316.3875Q300.2164 316.71564 300.95078 316.71564Q301.66953 316.71564 302.01328 316.4344Q302.37265 316.1375 302.37265 315.73126Q302.37265 315.3719 302.06015 315.16876Q301.8414 315.02814 300.98203 314.8094Q299.82578 314.5125 299.37265 314.3094Q298.93515 314.09064 298.70078 313.71564Q298.4664 313.34064 298.4664 312.8719Q298.4664 312.46564 298.6539 312.10626Q298.8414 311.7469 299.16953 311.5125Q299.41953 311.34064 299.8414 311.21564Q300.26328 311.09064 300.76328 311.09064Q301.48203 311.09064 302.0289 311.3094Q302.5914 311.5125 302.85703 311.8719Q303.12265 312.23126 303.2164 312.825L302.18515 312.96564Q302.12265 312.4969 301.7789 312.23126Q301.45078 311.95 300.82578 311.95Q300.10703 311.95 299.79453 312.2Q299.48203 312.4344 299.48203 312.7625Q299.48203 312.96564 299.60703 313.1219Q299.74765 313.29376 300.01328 313.40314Q300.16953 313.46564 300.95078 313.66876Q302.07578 313.98126 302.51328 314.16876Q302.95078 314.35626 303.20078 314.71564Q303.45078 315.075 303.45078 315.6219Q303.45078 316.15314 303.13828 316.6219Q302.8414 317.075 302.26328 317.34064Q301.68515 317.59064 300.95078 317.59064Q299.73203 317.59064 299.0914 317.09064Q298.4664 316.575 298.29453 315.59064Z" fill-rule="nonzero"/><path fill="#000000" d="M372.62735 316.4344L372.62735 317.45L366.93985 317.45Q366.93985 317.075 367.06485 316.71564Q367.2836 316.1375 367.75235 315.575Q368.23672 315.0125 369.14297 314.27814Q370.54922 313.1219 371.0336 312.45Q371.5336 311.77814 371.5336 311.1844Q371.5336 310.5594 371.08047 310.1375Q370.62735 309.7 369.9086 309.7Q369.14297 309.7 368.68985 310.15314Q368.23672 310.60626 368.2211 311.41876L367.14297 311.3094Q367.25235 310.09064 367.9711 309.46564Q368.70547 308.825 369.93985 308.825Q371.17422 308.825 371.89297 309.5125Q372.61172 310.2 372.61172 311.21564Q372.61172 311.73126 372.39297 312.23126Q372.18985 312.71564 371.68985 313.27814Q371.20547 313.825 370.08047 314.77814Q369.12735 315.575 368.8461 315.8719Q368.58047 316.15314 368.4086 316.4344L372.62735 316.4344ZM374.08047 315.2L375.18985 315.10626Q375.31485 315.91876 375.75235 316.325Q376.20547 316.73126 376.8461 316.73126Q377.5961 316.73126 378.12735 316.15314Q378.6586 315.575 378.6586 314.6375Q378.6586 313.73126 378.14297 313.21564Q377.64297 312.6844 376.81485 312.6844Q376.31485 312.6844 375.89297 312.91876Q375.48672 313.15314 375.25235 313.5125L374.26797 313.3875L375.0961 308.98126L379.37735 308.98126L379.37735 309.98126L375.93985 309.98126L375.48672 312.29376Q376.25235 311.7469 377.0961 311.7469Q378.2211 311.7469 378.98672 312.52814Q379.76797 313.3094 379.76797 314.54376Q379.76797 315.7 379.0961 316.5594Q378.26797 317.59064 376.8461 317.59064Q375.67422 317.59064 374.92422 316.9344Q374.18985 316.27814 374.08047 315.2ZM386.54922 310.96564L385.50235 311.04376Q385.36172 310.41876 385.11172 310.1375Q384.67422 309.6844 384.04922 309.6844Q383.54922 309.6844 383.1586 309.96564Q382.67422 310.34064 382.37735 311.04376Q382.0961 311.73126 382.08047 313.0125Q382.45547 312.4344 383.00235 312.15314Q383.56485 311.8719 384.17422 311.8719Q385.2211 311.8719 385.95547 312.65314Q386.70547 313.4344 386.70547 314.65314Q386.70547 315.46564 386.3461 316.16876Q386.00235 316.85626 385.39297 317.23126Q384.7836 317.59064 384.01797 317.59064Q382.68985 317.59064 381.86172 316.6219Q381.0336 315.65314 381.0336 313.4344Q381.0336 310.9344 381.95547 309.8094Q382.75235 308.825 384.11172 308.825Q385.12735 308.825 385.76797 309.40314Q386.42422 309.96564 386.54922 310.96564ZM382.25235 314.66876Q382.25235 315.21564 382.4711 315.71564Q382.70547 316.2 383.11172 316.46564Q383.5336 316.73126 384.00235 316.73126Q384.6586 316.73126 385.14297 316.2Q385.62735 315.65314 385.62735 314.73126Q385.62735 313.84064 385.14297 313.325Q384.67422 312.8094 383.95547 312.8094Q383.23672 312.8094 382.73672 313.325Q382.25235 313.84064 382.25235 314.66876ZM391.45547 317.45L391.45547 308.85626L394.68985 308.85626Q395.67422 308.85626 396.26797 309.1219Q396.86172 309.3875 397.18985 309.9344Q397.5336 310.46564 397.5336 311.0594Q397.5336 311.60626 397.23672 312.09064Q396.93985 312.575 396.33047 312.8719Q397.11172 313.10626 397.51797 313.66876Q397.93985 314.21564 397.93985 314.96564Q397.93985 315.5594 397.68985 316.09064Q397.43985 316.60626 397.06485 316.8875Q396.68985 317.16876 396.11172 317.3094Q395.54922 317.45 394.73672 317.45L391.45547 317.45ZM392.5961 312.46564L394.45547 312.46564Q395.20547 312.46564 395.5336 312.3719Q395.9711 312.2469 396.18985 311.95Q396.4086 311.6375 396.4086 311.1844Q396.4086 310.7625 396.20547 310.4344Q396.00235 310.10626 395.61172 309.9969Q395.23672 309.8719 394.31485 309.8719L392.5961 309.8719L392.5961 312.46564ZM392.5961 316.4344L394.73672 316.4344Q395.2836 316.4344 395.50235 316.3875Q395.9086 316.325 396.1586 316.16876Q396.42422 315.9969 396.5961 315.6844Q396.76797 315.3719 396.76797 314.96564Q396.76797 314.48126 396.51797 314.1219Q396.2836 313.7625 395.8461 313.6219Q395.4086 313.48126 394.58047 313.48126L392.5961 313.48126L392.5961 316.4344ZM399.33047 319.84064L399.20547 318.85626Q399.54922 318.95 399.81485 318.95Q400.1586 318.95 400.36172 318.825Q400.58047 318.71564 400.7211 318.5125Q400.81485 318.34064 401.04922 317.71564Q401.06485 317.6375 401.14297 317.46564L398.76797 311.23126L399.9086 311.23126L401.20547 314.825Q401.45547 315.5125 401.6586 316.27814Q401.8461 315.54376 402.0961 314.85626L403.42422 311.23126L404.4711 311.23126L402.11172 317.5594Q401.7211 318.575 401.51797 318.96564Q401.23672 319.4969 400.86172 319.73126Q400.50235 319.98126 400.00235 319.98126Q399.70547 319.98126 399.33047 319.84064ZM406.67422 316.5125L406.83047 317.4344Q406.37735 317.52814 406.0336 317.52814Q405.45547 317.52814 405.14297 317.35626Q404.83047 317.16876 404.68985 316.8719Q404.56485 316.575 404.56485 315.6219L404.56485 312.04376L403.79922 312.04376L403.79922 311.23126L404.56485 311.23126L404.56485 309.6844L405.61172 309.0594L405.61172 311.23126L406.67422 311.23126L406.67422 312.04376L405.61172 312.04376L405.61172 315.6844Q405.61172 316.1375 405.6586 316.2625Q405.7211 316.3875 405.8461 316.46564Q405.9711 316.54376 406.20547 316.54376Q406.39297 316.54376 406.67422 316.5125ZM411.62735 315.45L412.7211 315.575Q412.4711 316.52814 411.76797 317.0594Q411.06485 317.59064 409.98672 317.59064Q408.62735 317.59064 407.81485 316.7469Q407.01797 315.90314 407.01797 314.3875Q407.01797 312.825 407.83047 311.96564Q408.64297 311.09064 409.92422 311.09064Q411.17422 311.09064 411.95547 311.9344Q412.75235 312.77814 412.75235 314.325Q412.75235 314.41876 412.75235 314.60626L408.11172 314.60626Q408.17422 315.6375 408.68985 316.1844Q409.20547 316.71564 409.98672 316.71564Q410.56485 316.71564 410.9711 316.41876Q411.39297 316.10626 411.62735 315.45ZM408.17422 313.7469L411.64297 313.7469Q411.58047 312.95 411.25235 312.5594Q410.73672 311.95 409.93985 311.95Q409.20547 311.95 408.70547 312.4344Q408.2211 312.91876 408.17422 313.7469ZM413.95547 315.59064L414.98672 315.4344Q415.08047 316.0594 415.4711 316.3875Q415.87735 316.71564 416.61172 316.71564Q417.33047 316.71564 417.67422 316.4344Q418.0336 316.1375 418.0336 315.73126Q418.0336 315.3719 417.7211 315.16876Q417.50235 315.02814 416.64297 314.8094Q415.48672 314.5125 415.0336 314.3094Q414.5961 314.09064 414.36172 313.71564Q414.12735 313.34064 414.12735 312.8719Q414.12735 312.46564 414.31485 312.10626Q414.50235 311.7469 414.83047 311.5125Q415.08047 311.34064 415.50235 311.21564Q415.92422 311.09064 416.42422 311.09064Q417.14297 311.09064 417.68985 311.3094Q418.25235 311.5125 418.51797 311.8719Q418.7836 312.23126 418.87735 312.825L417.8461 312.96564Q417.7836 312.4969 417.43985 312.23126Q417.11172 311.95 416.48672 311.95Q415.76797 311.95 415.45547 312.2Q415.14297 312.4344 415.14297 312.7625Q415.14297 312.96564 415.26797 313.1219Q415.4086 313.29376 415.67422 313.40314Q415.83047 313.46564 416.61172 313.66876Q417.73672 313.98126 418.17422 314.16876Q418.61172 314.35626 418.86172 314.71564Q419.11172 315.075 419.11172 315.6219Q419.11172 316.15314 418.79922 316.6219Q418.50235 317.075 417.92422 317.34064Q417.3461 317.59064 416.61172 317.59064Q415.39297 317.59064 414.75235 317.09064Q414.12735 316.575 413.95547 315.59064Z" fill-rule="nonzero"/><path fill="#000000" d="M479.71014 317.45L478.66327 317.45L478.66327 310.73126Q478.27264 311.09064 477.64764 311.46564Q477.03827 311.825 476.5539 311.9969L476.5539 310.98126Q477.4289 310.5594 478.08514 309.98126Q478.75702 309.3875 479.03827 308.825L479.71014 308.825L479.71014 317.45ZM482.7414 313.21564Q482.7414 311.6844 483.0539 310.7625Q483.3664 309.825 483.97577 309.325Q484.60077 308.825 485.53827 308.825Q486.22577 308.825 486.7414 309.10626Q487.27264 309.3875 487.6164 309.91876Q487.96014 310.4344 488.14764 311.1844Q488.33514 311.9344 488.33514 313.21564Q488.33514 314.73126 488.02264 315.65314Q487.72577 316.575 487.10077 317.09064Q486.4914 317.59064 485.53827 317.59064Q484.3039 317.59064 483.58514 316.7Q482.7414 315.6375 482.7414 313.21564ZM483.81952 313.21564Q483.81952 315.325 484.31952 316.02814Q484.81952 316.73126 485.53827 316.73126Q486.27264 316.73126 486.75702 316.02814Q487.25702 315.325 487.25702 313.21564Q487.25702 311.09064 486.75702 310.40314Q486.27264 309.7 485.52264 309.7Q484.8039 309.7 484.3664 310.3094Q483.81952 311.09064 483.81952 313.21564ZM495.28827 316.4344L495.28827 317.45L489.60077 317.45Q489.60077 317.075 489.72577 316.71564Q489.94452 316.1375 490.41327 315.575Q490.89764 315.0125 491.8039 314.27814Q493.21014 313.1219 493.69452 312.45Q494.19452 311.77814 494.19452 311.1844Q494.19452 310.5594 493.7414 310.1375Q493.28827 309.7 492.56952 309.7Q491.8039 309.7 491.35077 310.15314Q490.89764 310.60626 490.88202 311.41876L489.8039 311.3094Q489.91327 310.09064 490.63202 309.46564Q491.3664 308.825 492.60077 308.825Q493.83514 308.825 494.5539 309.5125Q495.27264 310.2 495.27264 311.21564Q495.27264 311.73126 495.0539 312.23126Q494.85077 312.71564 494.35077 313.27814Q493.8664 313.825 492.7414 314.77814Q491.78827 315.575 491.50702 315.8719Q491.2414 316.15314 491.06952 316.4344L495.28827 316.4344ZM500.1164 317.45L500.1164 315.3875L496.39764 315.3875L496.39764 314.41876L500.31952 308.85626L501.1789 308.85626L501.1789 314.41876L502.33514 314.41876L502.33514 315.3875L501.1789 315.3875L501.1789 317.45L500.1164 317.45ZM500.1164 314.41876L500.1164 310.5594L497.4289 314.41876L500.1164 314.41876ZM507.1164 317.45L507.1164 308.85626L510.35077 308.85626Q511.33514 308.85626 511.9289 309.1219Q512.52264 309.3875 512.85077 309.9344Q513.1945 310.46564 513.1945 311.0594Q513.1945 311.60626 512.89764 312.09064Q512.60077 312.575 511.9914 312.8719Q512.77264 313.10626 513.1789 313.66876Q513.60077 314.21564 513.60077 314.96564Q513.60077 315.5594 513.35077 316.09064Q513.10077 316.60626 512.72577 316.8875Q512.35077 317.16876 511.77264 317.3094Q511.21014 317.45 510.39764 317.45L507.1164 317.45ZM508.25702 312.46564L510.1164 312.46564Q510.8664 312.46564 511.19452 312.3719Q511.63202 312.2469 511.85077 311.95Q512.0695 311.6375 512.0695 311.1844Q512.0695 310.7625 511.8664 310.4344Q511.66327 310.10626 511.27264 309.9969Q510.89764 309.8719 509.97577 309.8719L508.25702 309.8719L508.25702 312.46564ZM508.25702 316.4344L510.39764 316.4344Q510.94452 316.4344 511.16327 316.3875Q511.56952 316.325 511.81952 316.16876Q512.08514 315.9969 512.257 315.6844Q512.4289 315.3719 512.4289 314.96564Q512.4289 314.48126 512.1789 314.1219Q511.94452 313.7625 511.50702 313.6219Q511.06952 313.48126 510.2414 313.48126L508.25702 313.48126L508.25702 316.4344ZM514.9914 319.84064L514.8664 318.85626Q515.21014 318.95 515.47577 318.95Q515.8195 318.95 516.02264 318.825Q516.2414 318.71564 516.382 318.5125Q516.47577 318.34064 516.71014 317.71564Q516.72577 317.6375 516.8039 317.46564L514.4289 311.23126L515.5695 311.23126L516.8664 314.825Q517.1164 315.5125 517.3195 316.27814Q517.507 315.54376 517.757 314.85626L519.08514 311.23126L520.132 311.23126L517.77264 317.5594Q517.382 318.575 517.1789 318.96564Q516.89764 319.4969 516.52264 319.73126Q516.16327 319.98126 515.66327 319.98126Q515.3664 319.98126 514.9914 319.84064ZM522.33514 316.5125L522.4914 317.4344Q522.03827 317.52814 521.6945 317.52814Q521.1164 317.52814 520.8039 317.35626Q520.4914 317.16876 520.35077 316.8719Q520.22577 316.575 520.22577 315.6219L520.22577 312.04376L519.46014 312.04376L519.46014 311.23126L520.22577 311.23126L520.22577 309.6844L521.27264 309.0594L521.27264 311.23126L522.33514 311.23126L522.33514 312.04376L521.27264 312.04376L521.27264 315.6844Q521.27264 316.1375 521.3195 316.2625Q521.382 316.3875 521.507 316.46564Q521.632 316.54376 521.8664 316.54376Q522.0539 316.54376 522.33514 316.5125ZM527.28827 315.45L528.382 315.575Q528.132 316.52814 527.4289 317.0594Q526.72577 317.59064 525.64764 317.59064Q524.28827 317.59064 523.47577 316.7469Q522.6789 315.90314 522.6789 314.3875Q522.6789 312.825 523.4914 311.96564Q524.3039 311.09064 525.58514 311.09064Q526.83514 311.09064 527.6164 311.9344Q528.41327 312.77814 528.41327 314.325Q528.41327 314.41876 528.41327 314.60626L523.77264 314.60626Q523.83514 315.6375 524.35077 316.1844Q524.8664 316.71564 525.64764 316.71564Q526.22577 316.71564 526.632 316.41876Q527.0539 316.10626 527.28827 315.45ZM523.83514 313.7469L527.3039 313.7469Q527.2414 312.95 526.91327 312.5594Q526.39764 311.95 525.60077 311.95Q524.8664 311.95 524.3664 312.4344Q523.882 312.91876 523.83514 313.7469ZM529.6164 315.59064L530.64764 315.4344Q530.7414 316.0594 531.132 316.3875Q531.53827 316.71564 532.27264 316.71564Q532.9914 316.71564 533.33514 316.4344Q533.6945 316.1375 533.6945 315.73126Q533.6945 315.3719 533.382 315.16876Q533.16327 315.02814 532.3039 314.8094Q531.14764 314.5125 530.6945 314.3094Q530.257 314.09064 530.02264 313.71564Q529.78827 313.34064 529.78827 312.8719Q529.78827 312.46564 529.97577 312.10626Q530.16327 311.7469 530.4914 311.5125Q530.7414 311.34064 531.16327 311.21564Q531.58514 311.09064 532.08514 311.09064Q532.8039 311.09064 533.35077 311.3094Q533.91327 311.5125 534.1789 311.8719Q534.4445 312.23126 534.53827 312.825L533.507 312.96564Q533.4445 312.4969 533.10077 312.23126Q532.77264 311.95 532.14764 311.95Q531.4289 311.95 531.1164 312.2Q530.8039 312.4344 530.8039 312.7625Q530.8039 312.96564 530.9289 313.1219Q531.0695 313.29376 531.33514 313.40314Q531.4914 313.46564 532.27264 313.66876Q533.39764 313.98126 533.83514 314.16876Q534.27264 314.35626 534.52264 314.71564Q534.77264 315.075 534.77264 315.6219Q534.77264 316.15314 534.46014 316.6219Q534.16327 317.075 533.58514 317.34064Q533.007 317.59064 532.27264 317.59064Q531.0539 317.59064 530.41327 317.09064Q529.78827 316.575 529.6164 315.59064Z" fill-rule="nonzero"/><path fill="#757575" d="M48.46875 37.55L48.46875 23.2375L50.359375 23.2375L50.359375 35.8625L57.40625 35.8625L57.40625 37.55L48.46875 37.55ZM66.09375 36.26875Q65.109375 37.096874 64.203125 37.440624Q63.296875 37.784374 62.265625 37.784374Q60.5625 37.784374 59.640625 36.95625Q58.71875 36.1125 58.71875 34.815624Q58.71875 34.05 59.0625 33.425Q59.421875 32.8 59.984375 32.425Q60.546875 32.034374 61.25 31.83125Q61.765625 31.70625 62.8125 31.565624Q64.9375 31.315624 65.9375 30.971874Q65.953125 30.6125 65.953125 30.503124Q65.953125 29.440624 65.453125 28.9875Q64.78125 28.39375 63.453125 28.39375Q62.203125 28.39375 61.609375 28.83125Q61.03125 29.26875 60.75 30.378124L59.03125 30.14375Q59.265625 29.034374 59.796875 28.3625Q60.328125 27.675 61.34375 27.315624Q62.359375 26.940624 63.703125 26.940624Q65.03125 26.940624 65.859375 27.253124Q66.6875 27.565624 67.078125 28.05Q67.46875 28.51875 67.625 29.2375Q67.71875 29.690624 67.71875 30.8625L67.71875 33.20625Q67.71875 35.659374 67.828125 36.315624Q67.9375 36.95625 68.28125 37.55L66.4375 37.55Q66.171875 37.003124 66.09375 36.26875ZM65.9375 32.346874Q64.984375 32.7375 63.0625 33.003124Q61.984375 33.159374 61.53125 33.3625Q61.09375 33.55 60.84375 33.925Q60.59375 34.3 60.59375 34.76875Q60.59375 35.471874 61.125 35.940624Q61.65625 36.409374 62.6875 36.409374Q63.703125 36.409374 64.484375 35.971874Q65.28125 35.51875 65.65625 34.753124Q65.9375 34.14375 65.9375 32.9875L65.9375 32.346874ZM74.15625 35.971874L74.40625 37.534374Q73.671875 37.690624 73.078125 37.690624Q72.125 37.690624 71.59375 37.39375Q71.078125 37.08125 70.859375 36.596874Q70.640625 36.096874 70.640625 34.51875L70.640625 28.55L69.359375 28.55L69.359375 27.175L70.640625 27.175L70.640625 24.6125L72.390625 23.55L72.390625 27.175L74.15625 27.175L74.15625 28.55L72.390625 28.55L72.390625 34.6125Q72.390625 35.3625 72.484375 35.58125Q72.578125 35.784374 72.78125 35.925Q73.0 36.05 73.390625 36.05Q73.671875 36.05 74.15625 35.971874ZM83.421875 34.20625L85.234375 34.440624Q84.8125 36.01875 83.640625 36.909374Q82.484375 37.784374 80.671875 37.784374Q78.40625 37.784374 77.0625 36.39375Q75.734375 34.9875 75.734375 32.45625Q75.734375 29.83125 77.078125 28.39375Q78.421875 26.940624 80.578125 26.940624Q82.65625 26.940624 83.96875 28.3625Q85.296875 29.76875 85.296875 32.346874Q85.296875 32.503124 85.28125 32.815624L77.546875 32.815624Q77.640625 34.51875 78.515625 35.425Q79.390625 36.33125 80.6875 36.33125Q81.65625 36.33125 82.328125 35.83125Q83.015625 35.315624 83.421875 34.20625ZM77.640625 31.3625L83.4375 31.3625Q83.328125 30.065624 82.78125 29.409374Q81.9375 28.39375 80.59375 28.39375Q79.390625 28.39375 78.5625 29.20625Q77.734375 30.003124 77.640625 31.3625ZM87.3125 37.55L87.3125 27.175L88.90625 27.175L88.90625 28.659374Q90.046875 26.940624 92.203125 26.940624Q93.140625 26.940624 93.921875 27.284374Q94.71875 27.6125 95.109375 28.159374Q95.5 28.70625 95.65625 29.45625Q95.75 29.95625 95.75 31.175L95.75 37.55L93.984375 37.55L93.984375 31.2375Q93.984375 30.159374 93.78125 29.628124Q93.578125 29.096874 93.046875 28.784374Q92.53125 28.471874 91.828125 28.471874Q90.703125 28.471874 89.890625 29.190624Q89.078125 29.89375 89.078125 31.878124L89.078125 37.55L87.3125 37.55ZM104.09375 33.753124L105.8125 33.971874Q105.53125 35.76875 104.359375 36.784374Q103.203125 37.784374 101.5 37.784374Q99.375 37.784374 98.078125 36.39375Q96.78125 35.003124 96.78125 32.409374Q96.78125 30.721874 97.328125 29.471874Q97.890625 28.20625 99.03125 27.58125Q100.171875 26.940624 101.515625 26.940624Q103.203125 26.940624 104.265625 27.8Q105.34375 28.659374 105.65625 30.221874L103.9375 30.4875Q103.703125 29.440624 103.078125 28.925Q102.453125 28.39375 101.578125 28.39375Q100.25 28.39375 99.421875 29.346874Q98.59375 30.3 98.59375 32.346874Q98.59375 34.440624 99.390625 35.39375Q100.1875 36.33125 101.484375 36.33125Q102.515625 36.33125 103.203125 35.70625Q103.90625 35.065624 104.09375 33.753124ZM107.234375 41.55L107.046875 39.89375Q107.625 40.05 108.046875 40.05Q108.640625 40.05 108.984375 39.846874Q109.34375 39.659374 109.5625 39.315624Q109.734375 39.05 110.109375 38.003124Q110.15625 37.846874 110.265625 37.565624L106.328125 27.175L108.21875 27.175L110.375 33.190624Q110.796875 34.33125 111.125 35.58125Q111.4375 34.378124 111.84375 33.221874L114.0625 27.175L115.828125 27.175L111.875 37.721874Q111.25 39.440624 110.890625 40.08125Q110.421875 40.95625 109.8125 41.346874Q109.21875 41.753124 108.375 41.753124Q107.859375 41.753124 107.234375 41.55ZM123.46875 37.55L123.46875 23.2375L128.84375 23.2375Q130.48438 23.2375 131.46875 23.675Q132.45312 24.096874 133.01562 25.003124Q133.57812 25.909374 133.57812 26.89375Q133.57812 27.815624 133.07812 28.628124Q132.59375 29.440624 131.57812 29.925Q132.875 30.315624 133.57812 31.2375Q134.28125 32.14375 134.28125 33.39375Q134.28125 34.409374 133.84375 35.26875Q133.42188 36.128124 132.79688 36.596874Q132.17188 37.065624 131.23438 37.315624Q130.29688 37.55 128.92188 37.55L123.46875 37.55ZM125.359375 29.253124L128.45312 29.253124Q129.71875 29.253124 130.26562 29.08125Q130.98438 28.8625 131.34375 28.378124Q131.71875 27.878124 131.71875 27.1125Q131.71875 26.409374 131.375 25.8625Q131.03125 25.315624 130.39062 25.128124Q129.76562 24.925 128.21875 24.925L125.359375 24.925L125.359375 29.253124ZM125.359375 35.8625L128.92188 35.8625Q129.84375 35.8625 130.21875 35.784374Q130.875 35.675 131.3125 35.409374Q131.75 35.128124 132.03125 34.6125Q132.3125 34.08125 132.3125 33.39375Q132.3125 32.596874 131.90625 32.003124Q131.5 31.409374 130.76562 31.175Q130.03125 30.940624 128.67188 30.940624L125.359375 30.940624L125.359375 35.8625ZM143.42188 34.20625L145.23438 34.440624Q144.8125 36.01875 143.64062 36.909374Q142.48438 37.784374 140.67188 37.784374Q138.40625 37.784374 137.0625 36.39375Q135.73438 34.9875 135.73438 32.45625Q135.73438 29.83125 137.07812 28.39375Q138.42188 26.940624 140.57812 26.940624Q142.65625 26.940624 143.96875 28.3625Q145.29688 29.76875 145.29688 32.346874Q145.29688 32.503124 145.28125 32.815624L137.54688 32.815624Q137.64062 34.51875 138.51562 35.425Q139.39062 36.33125 140.6875 36.33125Q141.65625 36.33125 142.32812 35.83125Q143.01562 35.315624 143.42188 34.20625ZM137.64062 31.3625L143.4375 31.3625Q143.32812 30.065624 142.78125 29.409374Q141.9375 28.39375 140.59375 28.39375Q139.39062 28.39375 138.5625 29.20625Q137.73438 30.003124 137.64062 31.3625ZM151.15625 35.971874L151.40625 37.534374Q150.67188 37.690624 150.07812 37.690624Q149.125 37.690624 148.59375 37.39375Q148.07812 37.08125 147.85938 36.596874Q147.64062 36.096874 147.64062 34.51875L147.64062 28.55L146.35938 28.55L146.35938 27.175L147.64062 27.175L147.64062 24.6125L149.39062 23.55L149.39062 27.175L151.15625 27.175L151.15625 28.55L149.39062 28.55L149.39062 34.6125Q149.39062 35.3625 149.48438 35.58125Q149.57812 35.784374 149.78125 35.925Q150.0 36.05 150.39062 36.05Q150.67188 36.05 151.15625 35.971874ZM155.23438 37.55L152.0625 27.175L153.875 27.175L155.53125 33.159374L156.14062 35.39375Q156.1875 35.221874 156.67188 33.253124L158.32812 27.175L160.14062 27.175L161.6875 33.190624L162.20312 35.175L162.79688 33.175L164.57812 27.175L166.28125 27.175L163.04688 37.55L161.21875 37.55L159.5625 31.33125L159.17188 29.565624L157.0625 37.55L155.23438 37.55ZM175.42188 34.20625L177.23438 34.440624Q176.8125 36.01875 175.64062 36.909374Q174.48438 37.784374 172.67188 37.784374Q170.40625 37.784374 169.0625 36.39375Q167.73438 34.9875 167.73438 32.45625Q167.73438 29.83125 169.07812 28.39375Q170.42188 26.940624 172.57812 26.940624Q174.65625 26.940624 175.96875 28.3625Q177.29688 29.76875 177.29688 32.346874Q177.29688 32.503124 177.28125 32.815624L169.54688 32.815624Q169.64062 34.51875 170.51562 35.425Q171.39062 36.33125 172.6875 36.33125Q173.65625 36.33125 174.32812 35.83125Q175.01562 35.315624 175.42188 34.20625ZM169.64062 31.3625L175.4375 31.3625Q175.32812 30.065624 174.78125 29.409374Q173.9375 28.39375 172.59375 28.39375Q171.39062 28.39375 170.5625 29.20625Q169.73438 30.003124 169.64062 31.3625ZM186.42188 34.20625L188.23438 34.440624Q187.8125 36.01875 186.64062 36.909374Q185.48438 37.784374 183.67188 37.784374Q181.40625 37.784374 180.0625 36.39375Q178.73438 34.9875 178.73438 32.45625Q178.73438 29.83125 180.07812 28.39375Q181.42188 26.940624 183.57812 26.940624Q185.65625 26.940624 186.96875 28.3625Q188.29688 29.76875 188.29688 32.346874Q188.29688 32.503124 188.28125 32.815624L180.54688 32.815624Q180.64062 34.51875 181.51562 35.425Q182.39062 36.33125 183.6875 36.33125Q184.65625 36.33125 185.32812 35.83125Q186.01562 35.315624 186.42188 34.20625ZM180.64062 31.3625L186.4375 31.3625Q186.32812 30.065624 185.78125 29.409374Q184.9375 28.39375 183.59375 28.39375Q182.39062 28.39375 181.5625 29.20625Q180.73438 30.003124 180.64062 31.3625ZM190.3125 37.55L190.3125 27.175L191.90625 27.175L191.90625 28.659374Q193.04688 26.940624 195.20312 26.940624Q196.14062 26.940624 196.92188 27.284374Q197.71875 27.6125 198.10938 28.159374Q198.5 28.70625 198.65625 29.45625Q198.75 29.95625 198.75 31.175L198.75 37.55L196.98438 37.55L196.98438 31.2375Q196.98438 30.159374 196.78125 29.628124Q196.57812 29.096874 196.04688 28.784374Q195.53125 28.471874 194.82812 28.471874Q193.70312 28.471874 192.89062 29.190624Q192.07812 29.89375 192.07812 31.878124L192.07812 37.55L190.3125 37.55ZM204.96875 37.55L210.46875 23.2375L212.51562 23.2375L218.375 37.55L216.21875 37.55L214.54688 33.20625L208.5625 33.20625L206.98438 37.55L204.96875 37.55ZM209.10938 31.675L213.95312 31.675L212.46875 27.70625Q211.78125 25.89375 211.45312 24.7375Q211.17188 26.1125 210.67188 27.471874L209.10938 31.675ZM219.28125 37.55L219.28125 23.2375L221.03125 23.2375L221.03125 37.55L219.28125 37.55ZM227.15625 35.971874L227.40625 37.534374Q226.67188 37.690624 226.07812 37.690624Q225.125 37.690624 224.59375 37.39375Q224.07812 37.08125 223.85938 36.596874Q223.64062 36.096874 223.64062 34.51875L223.64062 28.55L222.35938 28.55L222.35938 27.175L223.64062 27.175L223.64062 24.6125L225.39062 23.55L225.39062 27.175L227.15625 27.175L227.15625 28.55L225.39062 28.55L225.39062 34.6125Q225.39062 35.3625 225.48438 35.58125Q225.57812 35.784374 225.78125 35.925Q226.0 36.05 226.39062 36.05Q226.67188 36.05 227.15625 35.971874ZM236.09375 36.26875Q235.10938 37.096874 234.20312 37.440624Q233.29688 37.784374 232.26562 37.784374Q230.5625 37.784374 229.64062 36.95625Q228.71875 36.1125 228.71875 34.815624Q228.71875 34.05 229.0625 33.425Q229.42188 32.8 229.98438 32.425Q230.54688 32.034374 231.25 31.83125Q231.76562 31.70625 232.8125 31.565624Q234.9375 31.315624 235.9375 30.971874Q235.95312 30.6125 235.95312 30.503124Q235.95312 29.440624 235.45312 28.9875Q234.78125 28.39375 233.45312 28.39375Q232.20312 28.39375 231.60938 28.83125Q231.03125 29.26875 230.75 30.378124L229.03125 30.14375Q229.26562 29.034374 229.79688 28.3625Q230.32812 27.675 231.34375 27.315624Q232.35938 26.940624 233.70312 26.940624Q235.03125 26.940624 235.85938 27.253124Q236.6875 27.565624 237.07812 28.05Q237.46875 28.51875 237.625 29.2375Q237.71875 29.690624 237.71875 30.8625L237.71875 33.20625Q237.71875 35.659374 237.82812 36.315624Q237.9375 36.95625 238.28125 37.55L236.4375 37.55Q236.17188 37.003124 236.09375 36.26875ZM235.9375 32.346874Q234.98438 32.7375 233.0625 33.003124Q231.98438 33.159374 231.53125 33.3625Q231.09375 33.55 230.84375 33.925Q230.59375 34.3 230.59375 34.76875Q230.59375 35.471874 231.125 35.940624Q231.65625 36.409374 232.6875 36.409374Q233.70312 36.409374 234.48438 35.971874Q235.28125 35.51875 235.65625 34.753124Q235.9375 34.14375 235.9375 32.9875L235.9375 32.346874ZM240.32812 25.253124L240.32812 23.2375L242.09375 23.2375L242.09375 25.253124L240.32812 25.253124ZM240.32812 37.55L240.32812 27.175L242.09375 27.175L242.09375 37.55L240.32812 37.55ZM244.29688 37.55L244.29688 27.175L245.875 27.175L245.875 28.753124Q246.48438 27.64375 247.0 27.3Q247.51562 26.940624 248.125 26.940624Q249.01562 26.940624 249.9375 27.503124L249.32812 29.14375Q248.6875 28.753124 248.04688 28.753124Q247.46875 28.753124 247.0 29.1125Q246.54688 29.45625 246.34375 30.065624Q246.0625 31.003124 246.0625 32.1125L246.0625 37.55L244.29688 37.55ZM264.09375 36.26875Q263.10938 37.096874 262.20312 37.440624Q261.29688 37.784374 260.26562 37.784374Q258.5625 37.784374 257.64062 36.95625Q256.71875 36.1125 256.71875 34.815624Q256.71875 34.05 257.0625 33.425Q257.42188 32.8 257.98438 32.425Q258.54688 32.034374 259.25 31.83125Q259.76562 31.70625 260.8125 31.565624Q262.9375 31.315624 263.9375 30.971874Q263.95312 30.6125 263.95312 30.503124Q263.95312 29.440624 263.45312 28.9875Q262.78125 28.39375 261.45312 28.39375Q260.20312 28.39375 259.60938 28.83125Q259.03125 29.26875 258.75 30.378124L257.03125 30.14375Q257.26562 29.034374 257.79688 28.3625Q258.32812 27.675 259.34375 27.315624Q260.35938 26.940624 261.70312 26.940624Q263.03125 26.940624 263.85938 27.253124Q264.6875 27.565624 265.07812 28.05Q265.46875 28.51875 265.625 29.2375Q265.71875 29.690624 265.71875 30.8625L265.71875 33.20625Q265.71875 35.659374 265.82812 36.315624Q265.9375 36.95625 266.28125 37.55L264.4375 37.55Q264.17188 37.003124 264.09375 36.26875ZM263.9375 32.346874Q262.98438 32.7375 261.0625 33.003124Q259.98438 33.159374 259.53125 33.3625Q259.09375 33.55 258.84375 33.925Q258.59375 34.3 258.59375 34.76875Q258.59375 35.471874 259.125 35.940624Q259.65625 36.409374 260.6875 36.409374Q261.70312 36.409374 262.48438 35.971874Q263.28125 35.51875 263.65625 34.753124Q263.9375 34.14375 263.9375 32.9875L263.9375 32.346874ZM268.3125 37.55L268.3125 27.175L269.90625 27.175L269.90625 28.659374Q271.04688 26.940624 273.20312 26.940624Q274.14062 26.940624 274.92188 27.284374Q275.71875 27.6125 276.10938 28.159374Q276.5 28.70625 276.65625 29.45625Q276.75 29.95625 276.75 31.175L276.75 37.55L274.98438 37.55L274.98438 31.2375Q274.98438 30.159374 274.78125 29.628124Q274.57812 29.096874 274.04688 28.784374Q273.53125 28.471874 272.82812 28.471874Q271.70312 28.471874 270.89062 29.190624Q270.07812 29.89375 270.07812 31.878124L270.07812 37.55L268.3125 37.55ZM285.04688 37.55L285.04688 36.2375Q284.0625 37.784374 282.14062 37.784374Q280.90625 37.784374 279.85938 37.096874Q278.82812 36.409374 278.25 35.190624Q277.6875 33.971874 277.6875 32.378124Q277.6875 30.815624 278.20312 29.55Q278.71875 28.284374 279.75 27.6125Q280.79688 26.940624 282.0625 26.940624Q283.0 26.940624 283.73438 27.346874Q284.46875 27.7375 284.9375 28.3625L284.9375 23.2375L286.67188 23.2375L286.67188 37.55L285.04688 37.55ZM279.48438 32.378124Q279.48438 34.3625 280.32812 35.346874Q281.17188 36.33125 282.3125 36.33125Q283.46875 36.33125 284.26562 35.39375Q285.07812 34.45625 285.07812 32.51875Q285.07812 30.39375 284.25 29.39375Q283.4375 28.39375 282.23438 28.39375Q281.0625 28.39375 280.26562 29.3625Q279.48438 30.315624 279.48438 32.378124ZM295.54688 37.55L295.54688 23.2375L300.9375 23.2375Q302.375 23.2375 303.125 23.3625Q304.17188 23.55 304.89062 24.05Q305.60938 24.534374 306.03125 25.425Q306.46875 26.315624 306.46875 27.378124Q306.46875 29.20625 305.29688 30.471874Q304.14062 31.721874 301.10938 31.721874L297.4375 31.721874L297.4375 37.55L295.54688 37.55ZM297.4375 30.034374L301.14062 30.034374Q302.96875 30.034374 303.73438 29.3625Q304.51562 28.675 304.51562 27.425Q304.51562 26.534374 304.0625 25.89375Q303.60938 25.253124 302.875 25.05Q302.39062 24.925 301.09375 24.925L297.4375 24.925L297.4375 30.034374ZM308.32812 25.253124L308.32812 23.2375L310.09375 23.2375L310.09375 25.253124L308.32812 25.253124ZM308.32812 37.55L308.32812 27.175L310.09375 27.175L310.09375 37.55L308.32812 37.55ZM322.1875 37.55L322.1875 24.925L317.46875 24.925L317.46875 23.2375L328.8125 23.2375L328.8125 24.925L324.07812 24.925L324.07812 37.55L322.1875 37.55ZM330.3125 37.55L330.3125 23.2375L332.07812 23.2375L332.07812 28.3625Q333.3125 26.940624 335.1875 26.940624Q336.32812 26.940624 337.17188 27.39375Q338.03125 27.846874 338.39062 28.659374Q338.76562 29.45625 338.76562 30.971874L338.76562 37.55L337.01562 37.55L337.01562 30.971874Q337.01562 29.659374 336.4375 29.065624Q335.85938 28.45625 334.82812 28.45625Q334.04688 28.45625 333.34375 28.8625Q332.65625 29.26875 332.35938 29.971874Q332.07812 30.659374 332.07812 31.878124L332.07812 37.55L330.3125 37.55ZM340.29688 37.55L340.29688 27.175L341.875 27.175L341.875 28.753124Q342.48438 27.64375 343.0 27.3Q343.51562 26.940624 344.125 26.940624Q345.01562 26.940624 345.9375 27.503124L345.32812 29.14375Q344.6875 28.753124 344.04688 28.753124Q343.46875 28.753124 343.0 29.1125Q342.54688 29.45625 342.34375 30.065624Q342.0625 31.003124 342.0625 32.1125L342.0625 37.55L340.29688 37.55ZM346.67188 32.3625Q346.67188 29.4875 348.26562 28.096874Q349.60938 26.940624 351.53125 26.940624Q353.67188 26.940624 355.01562 28.346874Q356.375 29.753124 356.375 32.221874Q356.375 34.221874 355.78125 35.378124Q355.1875 36.51875 354.03125 37.159374Q352.89062 37.784374 351.53125 37.784374Q349.34375 37.784374 348.0 36.39375Q346.67188 34.9875 346.67188 32.3625ZM348.46875 32.3625Q348.46875 34.3625 349.32812 35.346874Q350.20312 36.33125 351.53125 36.33125Q352.84375 36.33125 353.70312 35.346874Q354.57812 34.346874 354.57812 32.3Q354.57812 30.378124 353.70312 29.39375Q352.82812 28.39375 351.53125 28.39375Q350.20312 28.39375 349.32812 29.39375Q348.46875 30.378124 348.46875 32.3625ZM365.10938 37.55L365.10938 36.01875Q363.90625 37.784374 361.82812 37.784374Q360.90625 37.784374 360.10938 37.440624Q359.3125 37.08125 358.92188 36.55Q358.54688 36.01875 358.39062 35.2375Q358.28125 34.721874 358.28125 33.596874L358.28125 27.175L360.03125 27.175L360.03125 32.925Q360.03125 34.3 360.14062 34.784374Q360.3125 35.471874 360.84375 35.878124Q361.39062 36.26875 362.17188 36.26875Q362.96875 36.26875 363.65625 35.8625Q364.35938 35.45625 364.64062 34.76875Q364.9375 34.065624 364.9375 32.7375L364.9375 27.175L366.6875 27.175L366.6875 37.55L365.10938 37.55ZM368.0 38.409374L369.70312 38.659374Q369.8125 39.45625 370.29688 39.815624Q370.95312 40.3 372.09375 40.3Q373.3125 40.3 373.96875 39.815624Q374.64062 39.33125 374.875 38.45625Q375.01562 37.909374 375.0 36.190624Q373.84375 37.55 372.125 37.55Q369.98438 37.55 368.8125 36.003124Q367.64062 34.45625 367.64062 32.3Q367.64062 30.815624 368.17188 29.565624Q368.71875 28.315624 369.73438 27.628124Q370.76562 26.940624 372.14062 26.940624Q373.96875 26.940624 375.17188 28.425L375.17188 27.175L376.78125 27.175L376.78125 36.14375Q376.78125 38.565624 376.28125 39.565624Q375.79688 40.58125 374.71875 41.159374Q373.65625 41.753124 372.09375 41.753124Q370.25 41.753124 369.09375 40.925Q367.95312 40.096874 368.0 38.409374ZM369.45312 32.175Q369.45312 34.221874 370.26562 35.159374Q371.07812 36.096874 372.29688 36.096874Q373.5 36.096874 374.3125 35.159374Q375.14062 34.221874 375.14062 32.2375Q375.14062 30.33125 374.29688 29.3625Q373.45312 28.39375 372.26562 28.39375Q371.09375 28.39375 370.26562 29.346874Q369.45312 30.3 369.45312 32.175ZM379.3125 37.55L379.3125 23.2375L381.07812 23.2375L381.07812 28.3625Q382.3125 26.940624 384.1875 26.940624Q385.32812 26.940624 386.17188 27.39375Q387.03125 27.846874 387.39062 28.659374Q387.76562 29.45625 387.76562 30.971874L387.76562 37.55L386.01562 37.55L386.01562 30.971874Q386.01562 29.659374 385.4375 29.065624Q384.85938 28.45625 383.82812 28.45625Q383.04688 28.45625 382.34375 28.8625Q381.65625 29.26875 381.35938 29.971874Q381.07812 30.659374 381.07812 31.878124L381.07812 37.55L379.3125 37.55ZM402.09375 36.26875Q401.10938 37.096874 400.20312 37.440624Q399.29688 37.784374 398.26562 37.784374Q396.5625 37.784374 395.64062 36.95625Q394.71875 36.1125 394.71875 34.815624Q394.71875 34.05 395.0625 33.425Q395.42188 32.8 395.98438 32.425Q396.54688 32.034374 397.25 31.83125Q397.76562 31.70625 398.8125 31.565624Q400.9375 31.315624 401.9375 30.971874Q401.95312 30.6125 401.95312 30.503124Q401.95312 29.440624 401.45312 28.9875Q400.78125 28.39375 399.45312 28.39375Q398.20312 28.39375 397.60938 28.83125Q397.03125 29.26875 396.75 30.378124L395.03125 30.14375Q395.26562 29.034374 395.79688 28.3625Q396.32812 27.675 397.34375 27.315624Q398.35938 26.940624 399.70312 26.940624Q401.03125 26.940624 401.85938 27.253124Q402.6875 27.565624 403.07812 28.05Q403.46875 28.51875 403.625 29.2375Q403.71875 29.690624 403.71875 30.8625L403.71875 33.20625Q403.71875 35.659374 403.82812 36.315624Q403.9375 36.95625 404.28125 37.55L402.4375 37.55Q402.17188 37.003124 402.09375 36.26875ZM401.9375 32.346874Q400.98438 32.7375 399.0625 33.003124Q397.98438 33.159374 397.53125 33.3625Q397.09375 33.55 396.84375 33.925Q396.59375 34.3 396.59375 34.76875Q396.59375 35.471874 397.125 35.940624Q397.65625 36.409374 398.6875 36.409374Q399.70312 36.409374 400.48438 35.971874Q401.28125 35.51875 401.65625 34.753124Q401.9375 34.14375 401.9375 32.9875L401.9375 32.346874ZM416.1875 37.55L416.1875 24.925L411.46875 24.925L411.46875 23.2375L422.8125 23.2375L422.8125 24.925L418.07812 24.925L418.07812 37.55L416.1875 37.55ZM434.76562 32.534374L436.65625 33.003124Q436.0625 35.346874 434.51562 36.58125Q432.96875 37.8 430.71875 37.8Q428.40625 37.8 426.95312 36.8625Q425.51562 35.909374 424.75 34.128124Q424.0 32.33125 424.0 30.284374Q424.0 28.05 424.84375 26.39375Q425.70312 24.721874 427.28125 23.8625Q428.85938 22.9875 430.75 22.9875Q432.90625 22.9875 434.35938 24.08125Q435.82812 25.175 436.40625 27.159374L434.54688 27.596874Q434.04688 26.034374 433.09375 25.33125Q432.15625 24.6125 430.71875 24.6125Q429.0625 24.6125 427.95312 25.409374Q426.84375 26.190624 426.39062 27.534374Q425.95312 28.8625 425.95312 30.26875Q425.95312 32.096874 426.48438 33.471874Q427.01562 34.83125 428.14062 35.503124Q429.26562 36.175 430.5625 36.175Q432.15625 36.175 433.26562 35.253124Q434.375 34.33125 434.76562 32.534374ZM438.54688 37.55L438.54688 23.2375L443.9375 23.2375Q445.375 23.2375 446.125 23.3625Q447.17188 23.55 447.89062 24.05Q448.60938 24.534374 449.03125 25.425Q449.46875 26.315624 449.46875 27.378124Q449.46875 29.20625 448.29688 30.471874Q447.14062 31.721874 444.10938 31.721874L440.4375 31.721874L440.4375 37.55L438.54688 37.55ZM440.4375 30.034374L444.14062 30.034374Q445.96875 30.034374 446.73438 29.3625Q447.51562 28.675 447.51562 27.425Q447.51562 26.534374 447.0625 25.89375Q446.60938 25.253124 445.875 25.05Q445.39062 24.925 444.09375 24.925L440.4375 24.925L440.4375 30.034374ZM467.76562 32.534374L469.65625 33.003124Q469.0625 35.346874 467.51562 36.58125Q465.96875 37.8 463.71875 37.8Q461.40625 37.8 459.95312 36.8625Q458.51562 35.909374 457.75 34.128124Q457.0 32.33125 457.0 30.284374Q457.0 28.05 457.84375 26.39375Q458.70312 24.721874 460.28125 23.8625Q461.85938 22.9875 463.75 22.9875Q465.90625 22.9875 467.35938 24.08125Q468.82812 25.175 469.40625 27.159374L467.54688 27.596874Q467.04688 26.034374 466.09375 25.33125Q465.15625 24.6125 463.71875 24.6125Q462.0625 24.6125 460.95312 25.409374Q459.84375 26.190624 459.39062 27.534374Q458.95312 28.8625 458.95312 30.26875Q458.95312 32.096874 459.48438 33.471874Q460.01562 34.83125 461.14062 35.503124Q462.26562 36.175 463.5625 36.175Q465.15625 36.175 466.26562 35.253124Q467.375 34.33125 467.76562 32.534374ZM470.67188 32.3625Q470.67188 29.4875 472.26562 28.096874Q473.60938 26.940624 475.53125 26.940624Q477.67188 26.940624 479.01562 28.346874Q480.375 29.753124 480.375 32.221874Q480.375 34.221874 479.78125 35.378124Q479.1875 36.51875 478.03125 37.159374Q476.89062 37.784374 475.53125 37.784374Q473.34375 37.784374 472.0 36.39375Q470.67188 34.9875 470.67188 32.3625ZM472.46875 32.3625Q472.46875 34.3625 473.32812 35.346874Q474.20312 36.33125 475.53125 36.33125Q476.84375 36.33125 477.70312 35.346874Q478.57812 34.346874 478.57812 32.3Q478.57812 30.378124 477.70312 29.39375Q476.82812 28.39375 475.53125 28.39375Q474.20312 28.39375 473.32812 29.39375Q472.46875 30.378124 472.46875 32.3625ZM482.3125 37.55L482.3125 27.175L483.90625 27.175L483.90625 28.659374Q485.04688 26.940624 487.20312 26.940624Q488.14062 26.940624 488.92188 27.284374Q489.71875 27.6125 490.10938 28.159374Q490.5 28.70625 490.65625 29.45625Q490.75 29.95625 490.75 31.175L490.75 37.55L488.98438 37.55L488.98438 31.2375Q488.98438 30.159374 488.78125 29.628124Q488.57812 29.096874 488.04688 28.784374Q487.53125 28.471874 486.82812 28.471874Q485.70312 28.471874 484.89062 29.190624Q484.07812 29.89375 484.07812 31.878124L484.07812 37.55L482.3125 37.55ZM492.3125 37.55L492.3125 27.175L493.90625 27.175L493.90625 28.659374Q495.04688 26.940624 497.20312 26.940624Q498.14062 26.940624 498.92188 27.284374Q499.71875 27.6125 500.10938 28.159374Q500.5 28.70625 500.65625 29.45625Q500.75 29.95625 500.75 31.175L500.75 37.55L498.98438 37.55L498.98438 31.2375Q498.98438 30.159374 498.78125 29.628124Q498.57812 29.096874 498.04688 28.784374Q497.53125 28.471874 496.82812 28.471874Q495.70312 28.471874 494.89062 29.190624Q494.07812 29.89375 494.07812 31.878124L494.07812 37.55L492.3125 37.55ZM509.42188 34.20625L511.23438 34.440624Q510.8125 36.01875 509.64062 36.909374Q508.48438 37.784374 506.67188 37.784374Q504.40625 37.784374 503.0625 36.39375Q501.73438 34.9875 501.73438 32.45625Q501.73438 29.83125 503.07812 28.39375Q504.42188 26.940624 506.57812 26.940624Q508.65625 26.940624 509.96875 28.3625Q511.29688 29.76875 511.29688 32.346874Q511.29688 32.503124 511.28125 32.815624L503.54688 32.815624Q503.64062 34.51875 504.51562 35.425Q505.39062 36.33125 506.6875 36.33125Q507.65625 36.33125 508.32812 35.83125Q509.01562 35.315624 509.42188 34.20625ZM503.64062 31.3625L509.4375 31.3625Q509.32812 30.065624 508.78125 29.409374Q507.9375 28.39375 506.59375 28.39375Q505.39062 28.39375 504.5625 29.20625Q503.73438 30.003124 503.64062 31.3625ZM520.09375 33.753124L521.8125 33.971874Q521.53125 35.76875 520.3594 36.784374Q519.2031 37.784374 517.5 37.784374Q515.375 37.784374 514.0781 36.39375Q512.78125 35.003124 512.78125 32.409374Q512.78125 30.721874 513.3281 29.471874Q513.8906 28.20625 515.03125 27.58125Q516.1719 26.940624 517.5156 26.940624Q519.2031 26.940624 520.2656 27.8Q521.34375 28.659374 521.65625 30.221874L519.9375 30.4875Q519.7031 29.440624 519.0781 28.925Q518.4531 28.39375 517.5781 28.39375Q516.25 28.39375 515.4219 29.346874Q514.59375 30.3 514.59375 32.346874Q514.59375 34.440624 515.3906 35.39375Q516.1875 36.33125 517.4844 36.33125Q518.5156 36.33125 519.2031 35.70625Q519.90625 35.065624 520.09375 33.753124ZM527.15625 35.971874L527.40625 37.534374Q526.6719 37.690624 526.0781 37.690624Q525.125 37.690624 524.59375 37.39375Q524.0781 37.08125 523.8594 36.596874Q523.6406 36.096874 523.6406 34.51875L523.6406 28.55L522.3594 28.55L522.3594 27.175L523.6406 27.175L523.6406 24.6125L525.3906 23.55L525.3906 27.175L527.15625 27.175L527.15625 28.55L525.3906 28.55L525.3906 34.6125Q525.3906 35.3625 525.4844 35.58125Q525.5781 35.784374 525.78125 35.925Q526.0 36.05 526.3906 36.05Q526.6719 36.05 527.15625 35.971874ZM529.3281 25.253124L529.3281 23.2375L531.09375 23.2375L531.09375 25.253124L529.3281 25.253124ZM529.3281 37.55L529.3281 27.175L531.09375 27.175L531.09375 37.55L529.3281 37.55ZM532.6719 32.3625Q532.6719 29.4875 534.2656 28.096874Q535.6094 26.940624 537.53125 26.940624Q539.6719 26.940624 541.0156 28.346874Q542.375 29.753124 542.375 32.221874Q542.375 34.221874 541.78125 35.378124Q541.1875 36.51875 540.03125 37.159374Q538.8906 37.784374 537.53125 37.784374Q535.34375 37.784374 534.0 36.39375Q532.6719 34.9875 532.6719 32.3625ZM534.46875 32.3625Q534.46875 34.3625 535.3281 35.346874Q536.2031 36.33125 537.53125 36.33125Q538.84375 36.33125 539.7031 35.346874Q540.5781 34.346874 540.5781 32.3Q540.5781 30.378124 539.7031 29.39375Q538.8281 28.39375 537.53125 28.39375Q536.2031 28.39375 535.3281 29.39375Q534.46875 30.378124 534.46875 32.3625ZM544.3125 37.55L544.3125 27.175L545.90625 27.175L545.90625 28.659374Q547.0469 26.940624 549.2031 26.940624Q550.1406 26.940624 550.9219 27.284374Q551.71875 27.6125 552.1094 28.159374Q552.5 28.70625 552.65625 29.45625Q552.75 29.95625 552.75 31.175L552.75 37.55L550.9844 37.55L550.9844 31.2375Q550.9844 30.159374 550.78125 29.628124Q550.5781 29.096874 550.0469 28.784374Q549.53125 28.471874 548.8281 28.471874Q547.7031 28.471874 546.8906 29.190624Q546.0781 29.89375 546.0781 31.878124L546.0781 37.55L544.3125 37.55Z" fill-rule="nonzero"/></svg>