<svg version="1.1" viewBox="0.0 0.0 600.0 371.0" fill="none" stroke="none" stroke-linecap="square" stroke-miterlimit="10" width="600" height="371" xmlns:xlink="http://www.w3.org/1999/xlink" xmlns="http://www.w3.org/2000/svg"><path fill="#ffffff" d="M0 0L600.0 0L600.0 371.0L0 371.0L0 0Z" fill-rule="nonzero"/><path stroke="#000000" stroke-width="1.0" stroke-linecap="butt" stroke-opacity="0.0" d="M93.5 277.5L581.5 277.5" fill-rule="nonzero"/><path stroke="#000000" stroke-width="1.0" stroke-linecap="butt" stroke-opacity="0.0" d="M93.5 259.5L581.5 259.5" fill-rule="nonzero"/><path stroke="#000000" stroke-width="1.0" stroke-linecap="butt" stroke-opacity="0.0" d="M93.5 224.5L581.5 224.5" fill-rule="nonzero"/><path stroke="#000000" stroke-width="1.0" stroke-linecap="butt" stroke-opacity="0.0" d="M93.5 207.5L581.5 207.5" fill-rule="nonzero"/><path stroke="#000000" stroke-width="1.0" stroke-linecap="butt" stroke-opacity="0.0" d="M93.5 172.5L581.5 172.5" fill-rule="nonzero"/><path stroke="#000000" stroke-width="1.0" stroke-linecap="butt" stroke-opacity="0.0" d="M93.5 155.5L581.5 155.5" fill-rule="nonzero"/><path stroke="#000000" stroke-width="1.0" stroke-linecap="butt" stroke-opacity="0.0" d="M93.5 120.5L581.5 120.5" fill-rule="nonzero"/><path stroke="#000000" stroke-width="1.0" stroke-linecap="butt" stroke-opacity="0.0" d="M93.5 103.5L581.5 103.5" fill-rule="nonzero"/><path stroke="#000000" stroke-width="1.0" stroke-linecap="butt" d="M581.5 294.5L93.5 294.5" fill-rule="nonzero"/><path stroke="#000000" stroke-width="1.0" stroke-linecap="butt" d="M93.5 294.5L93.5 85.5" fill-rule="nonzero"/><clipPath id="id_0"><path d="M93.55 85.916664L581.45 85.916664L581.45 294.45L93.55 294.45L93.55 85.916664Z" clip-rule="nonzero"/></clipPath><path stroke="#000000" stroke-width="2.0" stroke-linecap="butt" stroke-opacity="0.0" clip-path="url(#id_0)" d="M206.0 294.0L133.0 294.0L133.0 88.0C133.0 86.89543 133.89543 86.0 135.0 86.0L204.0 86.0C205.10457 86.0 206.0 86.89543 206.0 88.0Z" fill-rule="nonzero"/><path fill="#6aa84f" clip-path="url(#id_0)" d="M206.0 294.0L133.0 294.0L133.0 88.0C133.0 86.89543 133.89543 86.0 135.0 86.0L204.0 86.0C205.10457 86.0 206.0 86.89543 206.0 88.0Z" fill-rule="nonzero"/><path stroke="#000000" stroke-width="2.0" stroke-linecap="butt" stroke-opacity="0.0" clip-path="url(#id_0)" d="M318.0 294.0L245.0 294.0L245.0 287.0C245.0 285.89542 245.89543 285.0 247.0 285.0L316.0 285.0C317.10458 285.0 318.0 285.89542 318.0 287.0Z" fill-rule="nonzero"/><path fill="#6aa84f" clip-path="url(#id_0)" d="M318.0 294.0L245.0 294.0L245.0 287.0C245.0 285.89542 245.89543 285.0 247.0 285.0L316.0 285.0C317.10458 285.0 318.0 285.89542 318.0 287.0Z" fill-rule="nonzero"/><path stroke="#000000" stroke-width="2.0" stroke-linecap="butt" stroke-opacity="0.0" clip-path="url(#id_0)" d="M431.0 294.0L358.0 294.0L358.0 287.0C358.0 285.89542 358.89542 285.0 360.0 285.0L429.0 285.0C430.10458 285.0 431.0 285.89542 431.0 287.0Z" fill-rule="nonzero"/><path fill="#6aa84f" clip-path="url(#id_0)" d="M431.0 294.0L358.0 294.0L358.0 287.0C358.0 285.89542 358.89542 285.0 360.0 285.0L429.0 285.0C430.10458 285.0 431.0 285.89542 431.0 287.0Z" fill-rule="nonzero"/><path stroke="#000000" stroke-width="2.0" stroke-linecap="butt" stroke-opacity="0.0" clip-path="url(#id_0)" d="M543.0 294.0L470.0 294.0L470.0 286.0C470.0 284.89542 470.89542 284.0 472.0 284.0L541.0 284.0C542.10455 284.0 543.0 284.89542 543.0 286.0Z" fill-rule="nonzero"/><path fill="#6aa84f" clip-path="url(#id_0)" d="M543.0 294.0L470.0 294.0L470.0 286.0C470.0 284.89542 470.89542 284.0 472.0 284.0L541.0 284.0C542.10455 284.0 543.0 284.89542 543.0 286.0Z" fill-rule="nonzero"/><path stroke="#000000" stroke-width="1.0" stroke-linecap="butt" d="M169.5 300.5L169.5 288.5" fill-rule="nonzero"/><path stroke="#000000" stroke-width="1.0" stroke-linecap="butt" d="M281.5 300.5L281.5 288.5" fill-rule="nonzero"/><path stroke="#000000" stroke-width="1.0" stroke-linecap="butt" d="M393.5 300.5L393.5 288.5" fill-rule="nonzero"/><path stroke="#000000" stroke-width="1.0" stroke-linecap="butt" d="M505.5 300.5L505.5 288.5" fill-rule="nonzero"/><path stroke="#000000" stroke-width="1.0" stroke-linecap="butt" d="M87.5 294.5L99.5 294.5" fill-rule="nonzero"/><path stroke="#000000" stroke-width="1.0" stroke-linecap="butt" d="M87.5 242.5L99.5 242.5" fill-rule="nonzero"/><path stroke="#000000" stroke-width="1.0" stroke-linecap="butt" d="M87.5 190.5L99.5 190.5" fill-rule="nonzero"/><path stroke="#000000" stroke-width="1.0" stroke-linecap="butt" d="M87.5 138.5L99.5 138.5" fill-rule="nonzero"/><path stroke="#000000" stroke-width="1.0" stroke-linecap="butt" d="M87.5 85.5L99.5 85.5" fill-rule="nonzero"/><path fill="#000000" d="M279.39062 349.45L279.39062 340.85626L281.10938 340.85626L283.14062 346.9344Q283.42188 347.79376 283.54688 348.21564Q283.6875 347.7469 284.0 346.84064L286.0625 340.85626L287.59375 340.85626L287.59375 349.45L286.5 349.45L286.5 342.2625L284.0 349.45L282.96875 349.45L280.48438 342.1375L280.48438 349.45L279.39062 349.45ZM292.54688 347.45L293.64062 347.575Q293.39062 348.52814 292.6875 349.0594Q291.98438 349.59064 290.90625 349.59064Q289.54688 349.59064 288.73438 348.7469Q287.9375 347.90314 287.9375 346.3875Q287.9375 344.825 288.75 343.96564Q289.5625 343.09064 290.84375 343.09064Q292.09375 343.09064 292.875 343.9344Q293.67188 344.77814 293.67188 346.325Q293.67188 346.41876 293.67188 346.60626L289.03125 346.60626Q289.09375 347.6375 289.60938 348.1844Q290.125 348.71564 290.90625 348.71564Q291.48438 348.71564 291.89062 348.41876Q292.3125 348.10626 292.54688 347.45ZM289.09375 345.7469L292.5625 345.7469Q292.5 344.95 292.17188 344.5594Q291.65625 343.95 290.85938 343.95Q290.125 343.95 289.625 344.4344Q289.14062 344.91876 289.09375 345.7469ZM294.875 347.59064L295.90625 347.4344Q296.0 348.0594 296.39062 348.3875Q296.79688 348.71564 297.53125 348.71564Q298.25 348.71564 298.59375 348.4344Q298.95312 348.1375 298.95312 347.73126Q298.95312 347.3719 298.64062 347.16876Q298.42188 347.02814 297.5625 346.8094Q296.40625 346.5125 295.95312 346.3094Q295.51562 346.09064 295.28125 345.71564Q295.04688 345.34064 295.04688 344.8719Q295.04688 344.46564 295.23438 344.10626Q295.42188 343.7469 295.75 343.5125Q296.0 343.34064 296.42188 343.21564Q296.84375 343.09064 297.34375 343.09064Q298.0625 343.09064 298.60938 343.3094Q299.17188 343.5125 299.4375 343.8719Q299.70312 344.23126 299.79688 344.825L298.76562 344.96564Q298.70312 344.4969 298.35938 344.23126Q298.03125 343.95 297.40625 343.95Q296.6875 343.95 296.375 344.2Q296.0625 344.4344 296.0625 344.7625Q296.0625 344.96564 296.1875 345.1219Q296.32812 345.29376 296.59375 345.40314Q296.75 345.46564 297.53125 345.66876Q298.65625 345.98126 299.09375 346.16876Q299.53125 346.35626 299.78125 346.71564Q300.03125 347.075 300.03125 347.6219Q300.03125 348.15314 299.71875 348.6219Q299.42188 349.075 298.84375 349.34064Q298.26562 349.59064 297.53125 349.59064Q296.3125 349.59064 295.67188 349.09064Q295.04688 348.575 294.875 347.59064ZM301.875 347.59064L302.90625 347.4344Q303.0 348.0594 303.39062 348.3875Q303.79688 348.71564 304.53125 348.71564Q305.25 348.71564 305.59375 348.4344Q305.95312 348.1375 305.95312 347.73126Q305.95312 347.3719 305.64062 347.16876Q305.42188 347.02814 304.5625 346.8094Q303.40625 346.5125 302.95312 346.3094Q302.51562 346.09064 302.28125 345.71564Q302.04688 345.34064 302.04688 344.8719Q302.04688 344.46564 302.23438 344.10626Q302.42188 343.7469 302.75 343.5125Q303.0 343.34064 303.42188 343.21564Q303.84375 343.09064 304.34375 343.09064Q305.0625 343.09064 305.60938 343.3094Q306.17188 343.5125 306.4375 343.8719Q306.70312 344.23126 306.79688 344.825L305.76562 344.96564Q305.70312 344.4969 305.35938 344.23126Q305.03125 343.95 304.40625 343.95Q303.6875 343.95 303.375 344.2Q303.0625 344.4344 303.0625 344.7625Q303.0625 344.96564 303.1875 345.1219Q303.32812 345.29376 303.59375 345.40314Q303.75 345.46564 304.53125 345.66876Q305.65625 345.98126 306.09375 346.16876Q306.53125 346.35626 306.78125 346.71564Q307.03125 347.075 307.03125 347.6219Q307.03125 348.15314 306.71875 348.6219Q306.42188 349.075 305.84375 349.34064Q305.26562 349.59064 304.53125 349.59064Q303.3125 349.59064 302.67188 349.09064Q302.04688 348.575 301.875 347.59064ZM313.35938 348.6844Q312.76562 349.1844 312.21875 349.3875Q311.6875 349.59064 311.0625 349.59064Q310.03125 349.59064 309.48438 349.09064Q308.9375 348.59064 308.9375 347.8094Q308.9375 347.35626 309.14062 346.98126Q309.34375 346.59064 309.6875 346.3719Q310.03125 346.1375 310.45312 346.02814Q310.75 345.9344 311.39062 345.85626Q312.65625 345.71564 313.26562 345.4969Q313.26562 345.27814 313.26562 345.23126Q313.26562 344.575 312.96875 344.3094Q312.5625 343.96564 311.76562 343.96564Q311.03125 343.96564 310.67188 344.23126Q310.3125 344.48126 310.14062 345.1375L309.10938 344.9969Q309.25 344.34064 309.57812 343.9344Q309.90625 343.52814 310.51562 343.3094Q311.125 343.09064 311.92188 343.09064Q312.71875 343.09064 313.21875 343.27814Q313.71875 343.46564 313.95312 343.7469Q314.1875 344.02814 314.28125 344.46564Q314.32812 344.73126 314.32812 345.4344L314.32812 346.84064Q314.32812 348.3094 314.39062 348.7Q314.46875 349.09064 314.67188 349.45L313.5625 349.45Q313.40625 349.1219 313.35938 348.6844ZM313.26562 346.325Q312.6875 346.5594 311.54688 346.73126Q310.89062 346.825 310.625 346.95Q310.35938 347.0594 310.20312 347.27814Q310.0625 347.4969 310.0625 347.77814Q310.0625 348.2 310.375 348.48126Q310.70312 348.7625 311.3125 348.7625Q311.92188 348.7625 312.39062 348.4969Q312.875 348.23126 313.09375 347.7625Q313.26562 347.40314 313.26562 346.71564L313.26562 346.325ZM316.09375 349.96564L317.125 350.1219Q317.1875 350.59064 317.48438 350.8094Q317.875 351.10626 318.54688 351.10626Q319.28125 351.10626 319.67188 350.8094Q320.07812 350.5125 320.21875 349.9969Q320.3125 349.66876 320.29688 348.6375Q319.60938 349.45 318.57812 349.45Q317.29688 349.45 316.59375 348.52814Q315.89062 347.59064 315.89062 346.3094Q315.89062 345.41876 316.20312 344.66876Q316.53125 343.90314 317.14062 343.4969Q317.75 343.09064 318.57812 343.09064Q319.6875 343.09064 320.40625 343.98126L320.40625 343.23126L321.375 343.23126L321.375 348.60626Q321.375 350.0594 321.07812 350.66876Q320.78125 351.27814 320.14062 351.6219Q319.5 351.98126 318.5625 351.98126Q317.45312 351.98126 316.76562 351.48126Q316.07812 350.98126 316.09375 349.96564ZM316.96875 346.23126Q316.96875 347.45 317.45312 348.0125Q317.9375 348.575 318.67188 348.575Q319.40625 348.575 319.89062 348.0125Q320.39062 347.45 320.39062 346.2625Q320.39062 345.1219 319.875 344.54376Q319.375 343.96564 318.65625 343.96564Q317.95312 343.96564 317.45312 344.54376Q316.96875 345.10626 316.96875 346.23126ZM327.54688 347.45L328.64062 347.575Q328.39062 348.52814 327.6875 349.0594Q326.98438 349.59064 325.90625 349.59064Q324.54688 349.59064 323.73438 348.7469Q322.9375 347.90314 322.9375 346.3875Q322.9375 344.825 323.75 343.96564Q324.5625 343.09064 325.84375 343.09064Q327.09375 343.09064 327.875 343.9344Q328.67188 344.77814 328.67188 346.325Q328.67188 346.41876 328.67188 346.60626L324.03125 346.60626Q324.09375 347.6375 324.60938 348.1844Q325.125 348.71564 325.90625 348.71564Q326.48438 348.71564 326.89062 348.41876Q327.3125 348.10626 327.54688 347.45ZM324.09375 345.7469L327.5625 345.7469Q327.5 344.95 327.17188 344.5594Q326.65625 343.95 325.85938 343.95Q325.125 343.95 324.625 344.4344Q324.14062 344.91876 324.09375 345.7469ZM333.04688 346.6844L334.10938 346.59064Q334.1875 347.2469 334.46875 347.65314Q334.75 348.0594 335.32812 348.325Q335.92188 348.575 336.65625 348.575Q337.29688 348.575 337.79688 348.3875Q338.29688 348.1844 338.53125 347.85626Q338.78125 347.5125 338.78125 347.1219Q338.78125 346.71564 338.54688 346.41876Q338.3125 346.10626 337.78125 345.90314Q337.42188 345.7625 336.23438 345.48126Q335.0625 345.2 334.59375 344.95Q333.96875 344.6219 333.67188 344.15314Q333.375 343.66876 333.375 343.075Q333.375 342.4344 333.73438 341.8719Q334.10938 341.29376 334.8125 341.0125Q335.53125 340.71564 336.39062 340.71564Q337.34375 340.71564 338.07812 341.02814Q338.8125 341.325 339.20312 341.9344Q339.59375 342.52814 339.625 343.27814L338.53125 343.35626Q338.4375 342.54376 337.92188 342.1375Q337.42188 341.71564 336.4375 341.71564Q335.40625 341.71564 334.9375 342.09064Q334.46875 342.46564 334.46875 342.9969Q334.46875 343.46564 334.79688 343.7625Q335.125 344.0594 336.5 344.3719Q337.89062 344.6844 338.40625 344.91876Q339.15625 345.27814 339.51562 345.8094Q339.875 346.325 339.875 347.02814Q339.875 347.71564 339.48438 348.325Q339.09375 348.91876 338.35938 349.2625Q337.625 349.59064 336.70312 349.59064Q335.53125 349.59064 334.73438 349.2625Q333.95312 348.91876 333.5 348.23126Q333.0625 347.54376 333.04688 346.6844ZM341.29688 342.075L341.29688 340.85626L342.35938 340.85626L342.35938 342.075L341.29688 342.075ZM341.29688 349.45L341.29688 343.23126L342.35938 343.23126L342.35938 349.45L341.29688 349.45ZM343.73438 349.45L343.73438 348.59064L347.70312 344.04376Q347.01562 344.075 346.5 344.075L343.96875 344.075L343.96875 343.23126L349.0625 343.23126L349.0625 343.91876L345.6875 347.8719L345.03125 348.59064Q345.75 348.54376 346.35938 348.54376L349.25 348.54376L349.25 349.45L343.73438 349.45ZM353.54688 347.45L354.64062 347.575Q354.39062 348.52814 353.6875 349.0594Q352.98438 349.59064 351.90625 349.59064Q350.54688 349.59064 349.73438 348.7469Q348.9375 347.90314 348.9375 346.3875Q348.9375 344.825 349.75 343.96564Q350.5625 343.09064 351.84375 343.09064Q353.09375 343.09064 353.875 343.9344Q354.67188 344.77814 354.67188 346.325Q354.67188 346.41876 354.67188 346.60626L350.03125 346.60626Q350.09375 347.6375 350.60938 348.1844Q351.125 348.71564 351.90625 348.71564Q352.48438 348.71564 352.89062 348.41876Q353.3125 348.10626 353.54688 347.45ZM350.09375 345.7469L353.5625 345.7469Q353.5 344.95 353.17188 344.5594Q352.65625 343.95 351.85938 343.95Q351.125 343.95 350.625 344.4344Q350.14062 344.91876 350.09375 345.7469ZM361.3125 351.98126Q360.4375 350.8719 359.82812 349.40314Q359.23438 347.91876 359.23438 346.34064Q359.23438 344.95 359.67188 343.66876Q360.20312 342.1844 361.3125 340.71564L362.0625 340.71564Q361.35938 341.9344 361.125 342.45Q360.76562 343.2625 360.5625 344.1375Q360.3125 345.23126 360.3125 346.34064Q360.3125 349.16876 362.0625 351.98126L361.3125 351.98126ZM363.375 349.45L363.375 340.85626L366.60938 340.85626Q367.59375 340.85626 368.1875 341.1219Q368.78125 341.3875 369.10938 341.9344Q369.45312 342.46564 369.45312 343.0594Q369.45312 343.60626 369.15625 344.09064Q368.85938 344.575 368.25 344.8719Q369.03125 345.10626 369.4375 345.66876Q369.85938 346.21564 369.85938 346.96564Q369.85938 347.5594 369.60938 348.09064Q369.35938 348.60626 368.98438 348.8875Q368.60938 349.16876 368.03125 349.3094Q367.46875 349.45 366.65625 349.45L363.375 349.45ZM364.51562 344.46564L366.375 344.46564Q367.125 344.46564 367.45312 344.3719Q367.89062 344.2469 368.10938 343.95Q368.32812 343.6375 368.32812 343.1844Q368.32812 342.7625 368.125 342.4344Q367.92188 342.10626 367.53125 341.9969Q367.15625 341.8719 366.23438 341.8719L364.51562 341.8719L364.51562 344.46564ZM364.51562 348.4344L366.65625 348.4344Q367.20312 348.4344 367.42188 348.3875Q367.82812 348.325 368.07812 348.16876Q368.34375 347.9969 368.51562 347.6844Q368.6875 347.3719 368.6875 346.96564Q368.6875 346.48126 368.4375 346.1219Q368.20312 345.7625 367.76562 345.6219Q367.32812 345.48126 366.5 345.48126L364.51562 345.48126L364.51562 348.4344ZM371.25 351.84064L371.125 350.85626Q371.46875 350.95 371.73438 350.95Q372.07812 350.95 372.28125 350.825Q372.5 350.71564 372.64062 350.5125Q372.73438 350.34064 372.96875 349.71564Q372.98438 349.6375 373.0625 349.46564L370.6875 343.23126L371.82812 343.23126L373.125 346.825Q373.375 347.5125 373.57812 348.27814Q373.76562 347.54376 374.01562 346.85626L375.34375 343.23126L376.39062 343.23126L374.03125 349.5594Q373.64062 350.575 373.4375 350.96564Q373.15625 351.4969 372.78125 351.73126Q372.42188 351.98126 371.92188 351.98126Q371.625 351.98126 371.25 351.84064ZM378.59375 348.5125L378.75 349.4344Q378.29688 349.52814 377.95312 349.52814Q377.375 349.52814 377.0625 349.35626Q376.75 349.16876 376.60938 348.8719Q376.48438 348.575 376.48438 347.6219L376.48438 344.04376L375.71875 344.04376L375.71875 343.23126L376.48438 343.23126L376.48438 341.6844L377.53125 341.0594L377.53125 343.23126L378.59375 343.23126L378.59375 344.04376L377.53125 344.04376L377.53125 347.6844Q377.53125 348.1375 377.57812 348.2625Q377.64062 348.3875 377.76562 348.46564Q377.89062 348.54376 378.125 348.54376Q378.3125 348.54376 378.59375 348.5125ZM383.54688 347.45L384.64062 347.575Q384.39062 348.52814 383.6875 349.0594Q382.98438 349.59064 381.90625 349.59064Q380.54688 349.59064 379.73438 348.7469Q378.9375 347.90314 378.9375 346.3875Q378.9375 344.825 379.75 343.96564Q380.5625 343.09064 381.84375 343.09064Q383.09375 343.09064 383.875 343.9344Q384.67188 344.77814 384.67188 346.325Q384.67188 346.41876 384.67188 346.60626L380.03125 346.60626Q380.09375 347.6375 380.60938 348.1844Q381.125 348.71564 381.90625 348.71564Q382.48438 348.71564 382.89062 348.41876Q383.3125 348.10626 383.54688 347.45ZM380.09375 345.7469L383.5625 345.7469Q383.5 344.95 383.17188 344.5594Q382.65625 343.95 381.85938 343.95Q381.125 343.95 380.625 344.4344Q380.14062 344.91876 380.09375 345.7469ZM385.875 347.59064L386.90625 347.4344Q387.0 348.0594 387.39062 348.3875Q387.79688 348.71564 388.53125 348.71564Q389.25 348.71564 389.59375 348.4344Q389.95312 348.1375 389.95312 347.73126Q389.95312 347.3719 389.64062 347.16876Q389.42188 347.02814 388.5625 346.8094Q387.40625 346.5125 386.95312 346.3094Q386.51562 346.09064 386.28125 345.71564Q386.04688 345.34064 386.04688 344.8719Q386.04688 344.46564 386.23438 344.10626Q386.42188 343.7469 386.75 343.5125Q387.0 343.34064 387.42188 343.21564Q387.84375 343.09064 388.34375 343.09064Q389.0625 343.09064 389.60938 343.3094Q390.17188 343.5125 390.4375 343.8719Q390.70312 344.23126 390.79688 344.825L389.76562 344.96564Q389.70312 344.4969 389.35938 344.23126Q389.03125 343.95 388.40625 343.95Q387.6875 343.95 387.375 344.2Q387.0625 344.4344 387.0625 344.7625Q387.0625 344.96564 387.1875 345.1219Q387.32812 345.29376 387.59375 345.40314Q387.75 345.46564 388.53125 345.66876Q389.65625 345.98126 390.09375 346.16876Q390.53125 346.35626 390.78125 346.71564Q391.03125 347.075 391.03125 347.6219Q391.03125 348.15314 390.71875 348.6219Q390.42188 349.075 389.84375 349.34064Q389.26562 349.59064 388.53125 349.59064Q387.3125 349.59064 386.67188 349.09064Q386.04688 348.575 385.875 347.59064ZM393.98438 351.98126L393.23438 351.98126Q394.98438 349.16876 394.98438 346.34064Q394.98438 345.2469 394.73438 344.15314Q394.53125 343.27814 394.17188 342.46564Q393.9375 341.95 393.23438 340.71564L393.98438 340.71564Q395.07812 342.1844 395.60938 343.66876Q396.0625 344.95 396.0625 346.34064Q396.0625 347.91876 395.45312 349.40314Q394.84375 350.8719 393.98438 351.98126Z" fill-rule="nonzero"/><path fill="#000000" d="M29.550013 228.80833L20.956263 228.80833L20.956263 227.66771L28.534388 227.66771L28.534388 223.43333L29.550013 223.43333L29.550013 228.80833ZM28.784388 217.82396Q29.284388 218.41771 29.487513 218.96458Q29.690638 219.49583 29.690638 220.12083Q29.690638 221.15208 29.190638 221.69896Q28.690638 222.24583 27.909388 222.24583Q27.456263 222.24583 27.081263 222.04271Q26.690638 221.83958 26.471888 221.49583Q26.237513 221.15208 26.128138 220.73021Q26.034388 220.43333 25.956263 219.79271Q25.815638 218.52708 25.596888 217.91771Q25.378138 217.91771 25.331263 217.91771Q24.675013 217.91771 24.409388 218.21458Q24.065638 218.62083 24.065638 219.41771Q24.065638 220.15208 24.331263 220.51146Q24.581263 220.87083 25.237513 221.04271L25.096888 222.07396Q24.440638 221.93333 24.034388 221.60521Q23.628138 221.27708 23.409388 220.66771Q23.190638 220.05833 23.190638 219.26146Q23.190638 218.46458 23.378138 217.96458Q23.565638 217.46458 23.846888 217.23021Q24.128138 216.99583 24.565638 216.90208Q24.831263 216.85521 25.534388 216.85521L26.940638 216.85521Q28.409388 216.85521 28.800013 216.79271Q29.190638 216.71458 29.550013 216.51146L29.550013 217.62083Q29.221888 217.77708 28.784388 217.82396ZM26.425013 217.91771Q26.659388 218.49583 26.831263 219.63646Q26.925013 220.29271 27.050013 220.55833Q27.159388 220.82396 27.378138 220.98021Q27.596888 221.12083 27.878138 221.12083Q28.300013 221.12083 28.581263 220.80833Q28.862513 220.48021 28.862513 219.87083Q28.862513 219.26146 28.596888 218.79271Q28.331263 218.30833 27.862513 218.08958Q27.503138 217.91771 26.815638 217.91771L26.425013 217.91771ZM28.612513 212.58958L29.534388 212.43333Q29.628138 212.88646 29.628138 213.23021Q29.628138 213.80833 29.456263 214.12083Q29.268763 214.43333 28.971888 214.57396Q28.675013 214.69896 27.721888 214.69896L24.143763 214.69896L24.143763 215.46458L23.331263 215.46458L23.331263 214.69896L21.784388 214.69896L21.159388 213.65208L23.331263 213.65208L23.331263 212.58958L24.143763 212.58958L24.143763 213.65208L27.784388 213.65208Q28.237513 213.65208 28.362513 213.60521Q28.487513 213.54271 28.565638 213.41771Q28.643763 213.29271 28.643763 213.05833Q28.643763 212.87083 28.612513 212.58958ZM27.550013 207.63646L27.675013 206.54271Q28.628138 206.79271 29.159388 207.49583Q29.690638 208.19896 29.690638 209.27708Q29.690638 210.63646 28.846888 211.44896Q28.003138 212.24583 26.487513 212.24583Q24.925013 212.24583 24.065638 211.43333Q23.190638 210.62083 23.190638 209.33958Q23.190638 208.08958 24.034388 207.30833Q24.878138 206.51146 26.425013 206.51146Q26.518763 206.51146 26.706263 206.51146L26.706263 211.15208Q27.737513 211.08958 28.284388 210.57396Q28.815638 210.05833 28.815638 209.27708Q28.815638 208.69896 28.518763 208.29271Q28.206263 207.87083 27.550013 207.63646ZM25.846888 211.08958L25.846888 207.62083Q25.050013 207.68333 24.659388 208.01146Q24.050013 208.52708 24.050013 209.32396Q24.050013 210.05833 24.534388 210.55833Q25.018763 211.04271 25.846888 211.08958ZM29.550013 204.88646L23.331263 204.88646L23.331263 203.94896L24.206263 203.94896Q23.190638 203.26146 23.190638 201.96458Q23.190638 201.40208 23.393763 200.93333Q23.596888 200.44896 23.925013 200.21458Q24.253138 199.98021 24.690638 199.88646Q24.987513 199.83958 25.721888 199.83958L29.550013 199.83958L29.550013 200.88646L25.768763 200.88646Q25.112513 200.88646 24.800013 201.01146Q24.487513 201.13646 24.300013 201.44896Q24.096888 201.76146 24.096888 202.18333Q24.096888 202.85521 24.534388 203.35521Q24.956263 203.83958 26.143763 203.83958L29.550013 203.83958L29.550013 204.88646ZM27.268763 193.82396L27.409388 192.79271Q28.471888 192.96458 29.081263 193.66771Q29.690638 194.37083 29.690638 195.38646Q29.690638 196.66771 28.862513 197.44896Q28.018763 198.21458 26.456263 198.21458Q25.456263 198.21458 24.706263 197.88646Q23.940638 197.54271 23.565638 196.87083Q23.190638 196.18333 23.190638 195.37083Q23.190638 194.37083 23.706263 193.73021Q24.206263 193.07396 25.159388 192.88646L25.315638 193.91771Q24.690638 194.05833 24.378138 194.43333Q24.050013 194.80833 24.050013 195.33958Q24.050013 196.13646 24.628138 196.63646Q25.190638 197.13646 26.425013 197.13646Q27.690638 197.13646 28.253138 196.65208Q28.815638 196.16771 28.815638 195.40208Q28.815638 194.77708 28.440638 194.37083Q28.065638 193.94896 27.268763 193.82396ZM31.940638 191.93333L30.956263 192.05833Q31.050013 191.71458 31.050013 191.44896Q31.050013 191.10521 30.925013 190.90208Q30.815638 190.68333 30.612513 190.54271Q30.440638 190.44896 29.815638 190.21458Q29.737513 190.19896 29.565638 190.12083L23.331263 192.49583L23.331263 191.35521L26.925013 190.05833Q27.612513 189.80833 28.378138 189.60521Q27.643763 189.41771 26.956263 189.16771L23.331263 187.83958L23.331263 186.79271L29.659388 189.15208Q30.675013 189.54271 31.065638 189.74583Q31.596888 190.02708 31.831263 190.40208Q32.08126 190.76146 32.08126 191.26146Q32.08126 191.55833 31.940638 191.93333ZM32.08126 181.87083Q30.971888 182.74583 29.503138 183.35521Q28.018763 183.94896 26.440638 183.94896Q25.050013 183.94896 23.768763 183.51146Q22.284388 182.98021 20.815638 181.87083L20.815638 181.12083Q22.034388 181.82396 22.550013 182.05833Q23.362513 182.41771 24.237513 182.62083Q25.331263 182.87083 26.440638 182.87083Q29.268763 182.87083 32.08126 181.12083L32.08126 181.87083ZM27.690638 180.30833L27.534388 179.27708Q28.159388 179.18333 28.487513 178.79271Q28.815638 178.38646 28.815638 177.65208Q28.815638 176.93333 28.534388 176.58958Q28.237513 176.23021 27.831263 176.23021Q27.471888 176.23021 27.268763 176.54271Q27.128138 176.76146 26.909388 177.62083Q26.612513 178.77708 26.409388 179.23021Q26.190638 179.66771 25.815638 179.90208Q25.440638 180.13646 24.971888 180.13646Q24.565638 180.13646 24.206263 179.94896Q23.846888 179.76146 23.612513 179.43333Q23.440638 179.18333 23.315638 178.76146Q23.190638 178.33958 23.190638 177.83958Q23.190638 177.12083 23.409388 176.57396Q23.612513 176.01146 23.971888 175.74583Q24.331263 175.48021 24.925013 175.38646L25.065638 176.41771Q24.596888 176.48021 24.331263 176.82396Q24.050013 177.15208 24.050013 177.77708Q24.050013 178.49583 24.300013 178.80833Q24.534388 179.12083 24.862513 179.12083Q25.065638 179.12083 25.221888 178.99583Q25.393763 178.85521 25.503138 178.58958Q25.565638 178.43333 25.768763 177.65208Q26.081263 176.52708 26.268763 176.08958Q26.456263 175.65208 26.815638 175.40208Q27.175013 175.15208 27.721888 175.15208Q28.253138 175.15208 28.721888 175.46458Q29.175013 175.76146 29.440638 176.33958Q29.690638 176.91771 29.690638 177.65208Q29.690638 178.87083 29.190638 179.51146Q28.675013 180.13646 27.690638 180.30833ZM32.08126 172.19896L32.08126 172.94896Q29.268763 171.19896 26.440638 171.19896Q25.346888 171.19896 24.253138 171.44896Q23.378138 171.65208 22.565638 172.01146Q22.050013 172.24583 20.815638 172.94896L20.815638 172.19896Q22.284388 171.10521 23.768763 170.57396Q25.050013 170.12083 26.440638 170.12083Q28.018763 170.12083 29.503138 170.73021Q30.971888 171.33958 32.08126 172.19896Z" fill-rule="nonzero"/><path fill="#000000" d="M51.05 294.21564Q51.05 292.6844 51.3625 291.7625Q51.675 290.825 52.284374 290.325Q52.909374 289.825 53.846874 289.825Q54.534374 289.825 55.05 290.10626Q55.58125 290.3875 55.925 290.91876Q56.26875 291.4344 56.45625 292.1844Q56.64375 292.9344 56.64375 294.21564Q56.64375 295.73126 56.33125 296.65314Q56.034374 297.575 55.409374 298.09064Q54.8 298.59064 53.846874 298.59064Q52.6125 298.59064 51.89375 297.7Q51.05 296.6375 51.05 294.21564ZM52.128124 294.21564Q52.128124 296.325 52.628124 297.02814Q53.128124 297.73126 53.846874 297.73126Q54.58125 297.73126 55.065624 297.02814Q55.565624 296.325 55.565624 294.21564Q55.565624 292.09064 55.065624 291.40314Q54.58125 290.7 53.83125 290.7Q53.1125 290.7 52.675 291.3094Q52.128124 292.09064 52.128124 294.21564ZM58.64375 298.45L58.64375 297.2469L59.846874 297.2469L59.846874 298.45L58.64375 298.45ZM61.05 294.21564Q61.05 292.6844 61.3625 291.7625Q61.675 290.825 62.284374 290.325Q62.909374 289.825 63.846874 289.825Q64.53438 289.825 65.05 290.10626Q65.58125 290.3875 65.925 290.91876Q66.26875 291.4344 66.45625 292.1844Q66.64375 292.9344 66.64375 294.21564Q66.64375 295.73126 66.33125 296.65314Q66.03438 297.575 65.40938 298.09064Q64.8 298.59064 63.846874 298.59064Q62.6125 298.59064 61.89375 297.7Q61.05 296.6375 61.05 294.21564ZM62.128124 294.21564Q62.128124 296.325 62.628124 297.02814Q63.128124 297.73126 63.846874 297.73126Q64.58125 297.73126 65.06563 297.02814Q65.56563 296.325 65.56563 294.21564Q65.56563 292.09064 65.06563 291.40314Q64.58125 290.7 63.83125 290.7Q63.1125 290.7 62.675 291.3094Q62.128124 292.09064 62.128124 294.21564ZM68.05 294.21564Q68.05 292.6844 68.3625 291.7625Q68.675 290.825 69.28438 290.325Q69.90938 289.825 70.84688 289.825Q71.53438 289.825 72.05 290.10626Q72.58125 290.3875 72.925 290.91876Q73.26875 291.4344 73.45625 292.1844Q73.64375 292.9344 73.64375 294.21564Q73.64375 295.73126 73.33125 296.65314Q73.03438 297.575 72.40938 298.09064Q71.8 298.59064 70.84688 298.59064Q69.6125 298.59064 68.89375 297.7Q68.05 296.6375 68.05 294.21564ZM69.12813 294.21564Q69.12813 296.325 69.62813 297.02814Q70.12813 297.73126 70.84688 297.73126Q71.58125 297.73126 72.06563 297.02814Q72.56563 296.325 72.56563 294.21564Q72.56563 292.09064 72.06563 291.40314Q71.58125 290.7 70.83125 290.7Q70.1125 290.7 69.675 291.3094Q69.12813 292.09064 69.12813 294.21564ZM75.05 294.21564Q75.05 292.6844 75.3625 291.7625Q75.675 290.825 76.28438 290.325Q76.90938 289.825 77.84688 289.825Q78.53438 289.825 79.05 290.10626Q79.58125 290.3875 79.925 290.91876Q80.26875 291.4344 80.45625 292.1844Q80.64375 292.9344 80.64375 294.21564Q80.64375 295.73126 80.33125 296.65314Q80.03438 297.575 79.40938 298.09064Q78.8 298.59064 77.84688 298.59064Q76.6125 298.59064 75.89375 297.7Q75.05 296.6375 75.05 294.21564ZM76.12813 294.21564Q76.12813 296.325 76.62813 297.02814Q77.12813 297.73126 77.84688 297.73126Q78.58125 297.73126 79.06563 297.02814Q79.56563 296.325 79.56563 294.21564Q79.56563 292.09064 79.06563 291.40314Q78.58125 290.7 77.83125 290.7Q77.1125 290.7 76.675 291.3094Q76.12813 292.09064 76.12813 294.21564Z" fill-rule="nonzero"/><path fill="#000000" d="M51.05 242.08229Q51.05 240.55104 51.3625 239.62917Q51.675 238.69167 52.284374 238.19167Q52.909374 237.69167 53.846874 237.69167Q54.534374 237.69167 55.05 237.97292Q55.58125 238.25417 55.925 238.78542Q56.26875 239.30104 56.45625 240.05104Q56.64375 240.80104 56.64375 242.08229Q56.64375 243.59792 56.33125 244.51979Q56.034374 245.44167 55.409374 245.95729Q54.8 246.45729 53.846874 246.45729Q52.6125 246.45729 51.89375 245.56667Q51.05 244.50417 51.05 242.08229ZM52.128124 242.08229Q52.128124 244.19167 52.628124 244.89479Q53.128124 245.59792 53.846874 245.59792Q54.58125 245.59792 55.065624 244.89479Q55.565624 244.19167 55.565624 242.08229Q55.565624 239.95729 55.065624 239.26979Q54.58125 238.56667 53.83125 238.56667Q53.1125 238.56667 52.675 239.17604Q52.128124 239.95729 52.128124 242.08229ZM58.64375 246.31667L58.64375 245.11354L59.846874 245.11354L59.846874 246.31667L58.64375 246.31667ZM61.05 242.08229Q61.05 240.55104 61.3625 239.62917Q61.675 238.69167 62.284374 238.19167Q62.909374 237.69167 63.846874 237.69167Q64.53438 237.69167 65.05 237.97292Q65.58125 238.25417 65.925 238.78542Q66.26875 239.30104 66.45625 240.05104Q66.64375 240.80104 66.64375 242.08229Q66.64375 243.59792 66.33125 244.51979Q66.03438 245.44167 65.40938 245.95729Q64.8 246.45729 63.846874 246.45729Q62.6125 246.45729 61.89375 245.56667Q61.05 244.50417 61.05 242.08229ZM62.128124 242.08229Q62.128124 244.19167 62.628124 244.89479Q63.128124 245.59792 63.846874 245.59792Q64.58125 245.59792 65.06563 244.89479Q65.56563 244.19167 65.56563 242.08229Q65.56563 239.95729 65.06563 239.26979Q64.58125 238.56667 63.83125 238.56667Q63.1125 238.56667 62.675 239.17604Q62.128124 239.95729 62.128124 242.08229ZM73.59688 245.30104L73.59688 246.31667L67.90938 246.31667Q67.90938 245.94167 68.03438 245.58229Q68.25313 245.00417 68.72188 244.44167Q69.20625 243.87917 70.1125 243.14479Q71.51875 241.98854 72.00313 241.31667Q72.50313 240.64479 72.50313 240.05104Q72.50313 239.42604 72.05 239.00417Q71.59688 238.56667 70.87813 238.56667Q70.1125 238.56667 69.65938 239.01979Q69.20625 239.47292 69.19063 240.28542L68.1125 240.17604Q68.22188 238.95729 68.94063 238.33229Q69.675 237.69167 70.90938 237.69167Q72.14375 237.69167 72.8625 238.37917Q73.58125 239.06667 73.58125 240.08229Q73.58125 240.59792 73.3625 241.09792Q73.15938 241.58229 72.65938 242.14479Q72.175 242.69167 71.05 243.64479Q70.09688 244.44167 69.81563 244.73854Q69.55 245.01979 69.37813 245.30104L73.59688 245.30104ZM75.05 244.06667L76.15938 243.97292Q76.28438 244.78542 76.72188 245.19167Q77.175 245.59792 77.81563 245.59792Q78.56563 245.59792 79.09688 245.01979Q79.62813 244.44167 79.62813 243.50417Q79.62813 242.59792 79.1125 242.08229Q78.6125 241.55104 77.78438 241.55104Q77.28438 241.55104 76.8625 241.78542Q76.45625 242.01979 76.22188 242.37917L75.2375 242.25417L76.06563 237.84792L80.34688 237.84792L80.34688 238.84792L76.90938 238.84792L76.45625 241.16042Q77.22188 240.61354 78.06563 240.61354Q79.19063 240.61354 79.95625 241.39479Q80.7375 242.17604 80.7375 243.41042Q80.7375 244.56667 80.06563 245.42604Q79.2375 246.45729 77.81563 246.45729Q76.64375 246.45729 75.89375 245.80104Q75.15938 245.14479 75.05 244.06667Z" fill-rule="nonzero"/><path fill="#000000" d="M51.05 189.94896Q51.05 188.41771 51.3625 187.49583Q51.675 186.55833 52.284374 186.05833Q52.909374 185.55833 53.846874 185.55833Q54.534374 185.55833 55.05 185.83958Q55.58125 186.12083 55.925 186.65208Q56.26875 187.16771 56.45625 187.91771Q56.64375 188.66771 56.64375 189.94896Q56.64375 191.46458 56.33125 192.38646Q56.034374 193.30833 55.409374 193.82396Q54.8 194.32396 53.846874 194.32396Q52.6125 194.32396 51.89375 193.43333Q51.05 192.37083 51.05 189.94896ZM52.128124 189.94896Q52.128124 192.05833 52.628124 192.76146Q53.128124 193.46458 53.846874 193.46458Q54.58125 193.46458 55.065624 192.76146Q55.565624 192.05833 55.565624 189.94896Q55.565624 187.82396 55.065624 187.13646Q54.58125 186.43333 53.83125 186.43333Q53.1125 186.43333 52.675 187.04271Q52.128124 187.82396 52.128124 189.94896ZM58.64375 194.18333L58.64375 192.98021L59.846874 192.98021L59.846874 194.18333L58.64375 194.18333ZM61.05 189.94896Q61.05 188.41771 61.3625 187.49583Q61.675 186.55833 62.284374 186.05833Q62.909374 185.55833 63.846874 185.55833Q64.53438 185.55833 65.05 185.83958Q65.58125 186.12083 65.925 186.65208Q66.26875 187.16771 66.45625 187.91771Q66.64375 188.66771 66.64375 189.94896Q66.64375 191.46458 66.33125 192.38646Q66.03438 193.30833 65.40938 193.82396Q64.8 194.32396 63.846874 194.32396Q62.6125 194.32396 61.89375 193.43333Q61.05 192.37083 61.05 189.94896ZM62.128124 189.94896Q62.128124 192.05833 62.628124 192.76146Q63.128124 193.46458 63.846874 193.46458Q64.58125 193.46458 65.06563 192.76146Q65.56563 192.05833 65.56563 189.94896Q65.56563 187.82396 65.06563 187.13646Q64.58125 186.43333 63.83125 186.43333Q63.1125 186.43333 62.675 187.04271Q62.128124 187.82396 62.128124 189.94896ZM68.05 191.93333L69.15938 191.83958Q69.28438 192.65208 69.72188 193.05833Q70.175 193.46458 70.81563 193.46458Q71.56563 193.46458 72.09688 192.88646Q72.62813 192.30833 72.62813 191.37083Q72.62813 190.46458 72.1125 189.94896Q71.6125 189.41771 70.78438 189.41771Q70.28438 189.41771 69.8625 189.65208Q69.45625 189.88646 69.22188 190.24583L68.2375 190.12083L69.06563 185.71458L73.34688 185.71458L73.34688 186.71458L69.90938 186.71458L69.45625 189.02708Q70.22188 188.48021 71.06563 188.48021Q72.19063 188.48021 72.95625 189.26146Q73.7375 190.04271 73.7375 191.27708Q73.7375 192.43333 73.06563 193.29271Q72.2375 194.32396 70.81563 194.32396Q69.64375 194.32396 68.89375 193.66771Q68.15938 193.01146 68.05 191.93333ZM75.05 189.94896Q75.05 188.41771 75.3625 187.49583Q75.675 186.55833 76.28438 186.05833Q76.90938 185.55833 77.84688 185.55833Q78.53438 185.55833 79.05 185.83958Q79.58125 186.12083 79.925 186.65208Q80.26875 187.16771 80.45625 187.91771Q80.64375 188.66771 80.64375 189.94896Q80.64375 191.46458 80.33125 192.38646Q80.03438 193.30833 79.40938 193.82396Q78.8 194.32396 77.84688 194.32396Q76.6125 194.32396 75.89375 193.43333Q75.05 192.37083 75.05 189.94896ZM76.12813 189.94896Q76.12813 192.05833 76.62813 192.76146Q77.12813 193.46458 77.84688 193.46458Q78.58125 193.46458 79.06563 192.76146Q79.56563 192.05833 79.56563 189.94896Q79.56563 187.82396 79.06563 187.13646Q78.58125 186.43333 77.83125 186.43333Q77.1125 186.43333 76.675 187.04271Q76.12813 187.82396 76.12813 189.94896Z" fill-rule="nonzero"/><path fill="#000000" d="M51.05 137.81563Q51.05 136.28438 51.3625 135.3625Q51.675 134.425 52.284374 133.925Q52.909374 133.425 53.846874 133.425Q54.534374 133.425 55.05 133.70625Q55.58125 133.9875 55.925 134.51875Q56.26875 135.03438 56.45625 135.78438Q56.64375 136.53438 56.64375 137.81563Q56.64375 139.33125 56.33125 140.25313Q56.034374 141.175 55.409374 141.69063Q54.8 142.19063 53.846874 142.19063Q52.6125 142.19063 51.89375 141.3Q51.05 140.2375 51.05 137.81563ZM52.128124 137.81563Q52.128124 139.925 52.628124 140.62813Q53.128124 141.33125 53.846874 141.33125Q54.58125 141.33125 55.065624 140.62813Q55.565624 139.925 55.565624 137.81563Q55.565624 135.69063 55.065624 135.00313Q54.58125 134.3 53.83125 134.3Q53.1125 134.3 52.675 134.90938Q52.128124 135.69063 52.128124 137.81563ZM58.64375 142.05L58.64375 140.84688L59.846874 140.84688L59.846874 142.05L58.64375 142.05ZM61.05 137.81563Q61.05 136.28438 61.3625 135.3625Q61.675 134.425 62.284374 133.925Q62.909374 133.425 63.846874 133.425Q64.53438 133.425 65.05 133.70625Q65.58125 133.9875 65.925 134.51875Q66.26875 135.03438 66.45625 135.78438Q66.64375 136.53438 66.64375 137.81563Q66.64375 139.33125 66.33125 140.25313Q66.03438 141.175 65.40938 141.69063Q64.8 142.19063 63.846874 142.19063Q62.6125 142.19063 61.89375 141.3Q61.05 140.2375 61.05 137.81563ZM62.128124 137.81563Q62.128124 139.925 62.628124 140.62813Q63.128124 141.33125 63.846874 141.33125Q64.58125 141.33125 65.06563 140.62813Q65.56563 139.925 65.56563 137.81563Q65.56563 135.69063 65.06563 135.00313Q64.58125 134.3 63.83125 134.3Q63.1125 134.3 62.675 134.90938Q62.128124 135.69063 62.128124 137.81563ZM68.1125 134.58125L68.1125 133.56563L73.675 133.56563L73.675 134.39375Q72.8625 135.26875 72.05 136.72188Q71.25313 138.15938 70.81563 139.69063Q70.4875 140.76875 70.40938 142.05L69.31563 142.05Q69.33125 141.03438 69.70625 139.59688Q70.09688 138.15938 70.8 136.83125Q71.51875 135.50313 72.33125 134.58125L68.1125 134.58125ZM75.05 139.8L76.15938 139.70625Q76.28438 140.51875 76.72188 140.925Q77.175 141.33125 77.81563 141.33125Q78.56563 141.33125 79.09688 140.75313Q79.62813 140.175 79.62813 139.2375Q79.62813 138.33125 79.1125 137.81563Q78.6125 137.28438 77.78438 137.28438Q77.28438 137.28438 76.8625 137.51875Q76.45625 137.75313 76.22188 138.1125L75.2375 137.9875L76.06563 133.58125L80.34688 133.58125L80.34688 134.58125L76.90938 134.58125L76.45625 136.89375Q77.22188 136.34688 78.06563 136.34688Q79.19063 136.34688 79.95625 137.12813Q80.7375 137.90938 80.7375 139.14375Q80.7375 140.3 80.06563 141.15938Q79.2375 142.19063 77.81563 142.19063Q76.64375 142.19063 75.89375 141.53438Q75.15938 140.87813 75.05 139.8Z" fill-rule="nonzero"/><path fill="#000000" d="M51.05 85.68229Q51.05 84.15104 51.3625 83.229164Q51.675 82.291664 52.284374 81.791664Q52.909374 81.291664 53.846874 81.291664Q54.534374 81.291664 55.05 81.572914Q55.58125 81.854164 55.925 82.385414Q56.26875 82.90104 56.45625 83.65104Q56.64375 84.40104 56.64375 85.68229Q56.64375 87.197914 56.33125 88.11979Q56.034374 89.041664 55.409374 89.55729Q54.8 90.05729 53.846874 90.05729Q52.6125 90.05729 51.89375 89.166664Q51.05 88.104164 51.05 85.68229ZM52.128124 85.68229Q52.128124 87.791664 52.628124 88.49479Q53.128124 89.197914 53.846874 89.197914Q54.58125 89.197914 55.065624 88.49479Q55.565624 87.791664 55.565624 85.68229Q55.565624 83.55729 55.065624 82.86979Q54.58125 82.166664 53.83125 82.166664Q53.1125 82.166664 52.675 82.77604Q52.128124 83.55729 52.128124 85.68229ZM58.64375 89.916664L58.64375 88.71354L59.846874 88.71354L59.846874 89.916664L58.64375 89.916664ZM65.01875 89.916664L63.971874 89.916664L63.971874 83.197914Q63.58125 83.55729 62.95625 83.93229Q62.346874 84.291664 61.8625 84.46354L61.8625 83.447914Q62.7375 83.02604 63.39375 82.447914Q64.06563 81.854164 64.34688 81.291664L65.01875 81.291664L65.01875 89.916664ZM68.05 85.68229Q68.05 84.15104 68.3625 83.229164Q68.675 82.291664 69.28438 81.791664Q69.90938 81.291664 70.84688 81.291664Q71.53438 81.291664 72.05 81.572914Q72.58125 81.854164 72.925 82.385414Q73.26875 82.90104 73.45625 83.65104Q73.64375 84.40104 73.64375 85.68229Q73.64375 87.197914 73.33125 88.11979Q73.03438 89.041664 72.40938 89.55729Q71.8 90.05729 70.84688 90.05729Q69.6125 90.05729 68.89375 89.166664Q68.05 88.104164 68.05 85.68229ZM69.12813 85.68229Q69.12813 87.791664 69.62813 88.49479Q70.12813 89.197914 70.84688 89.197914Q71.58125 89.197914 72.06563 88.49479Q72.56563 87.791664 72.56563 85.68229Q72.56563 83.55729 72.06563 82.86979Q71.58125 82.166664 70.83125 82.166664Q70.1125 82.166664 69.675 82.77604Q69.12813 83.55729 69.12813 85.68229ZM75.05 85.68229Q75.05 84.15104 75.3625 83.229164Q75.675 82.291664 76.28438 81.791664Q76.90938 81.291664 77.84688 81.291664Q78.53438 81.291664 79.05 81.572914Q79.58125 81.854164 79.925 82.385414Q80.26875 82.90104 80.45625 83.65104Q80.64375 84.40104 80.64375 85.68229Q80.64375 87.197914 80.33125 88.11979Q80.03438 89.041664 79.40938 89.55729Q78.8 90.05729 77.84688 90.05729Q76.6125 90.05729 75.89375 89.166664Q75.05 88.104164 75.05 85.68229ZM76.12813 85.68229Q76.12813 87.791664 76.62813 88.49479Q77.12813 89.197914 77.84688 89.197914Q78.58125 89.197914 79.06563 88.49479Q79.56563 87.791664 79.56563 85.68229Q79.56563 83.55729 79.06563 82.86979Q78.58125 82.166664 77.83125 82.166664Q77.1125 82.166664 76.675 82.77604Q76.12813 83.55729 76.12813 85.68229Z" fill-rule="nonzero"/><path fill="#000000" d="M151.38362 312.79376Q150.72737 312.54376 150.39925 312.10626Q150.08675 311.65314 150.08675 311.04376Q150.08675 310.10626 150.75862 309.46564Q151.44612 308.825 152.5555 308.825Q153.6805 308.825 154.368 309.48126Q155.0555 310.1375 155.0555 311.075Q155.0555 311.66876 154.743 312.10626Q154.4305 312.54376 153.78987 312.79376Q154.58675 313.04376 154.993 313.6219Q155.39925 314.2 155.39925 314.9969Q155.39925 316.09064 154.618 316.84064Q153.85237 317.59064 152.57112 317.59064Q151.3055 317.59064 150.52425 316.84064Q149.743 316.09064 149.743 314.96564Q149.743 314.1219 150.16487 313.5594Q150.60237 312.9969 151.38362 312.79376ZM151.16487 310.9969Q151.16487 311.60626 151.5555 311.9969Q151.96175 312.3875 152.58675 312.3875Q153.19612 312.3875 153.58675 312.0125Q153.97737 311.6219 153.97737 311.0594Q153.97737 310.48126 153.57112 310.09064Q153.16487 309.6844 152.57112 309.6844Q151.96175 309.6844 151.5555 310.075Q151.16487 310.46564 151.16487 310.9969ZM150.83675 314.96564Q150.83675 315.41876 151.03987 315.84064Q151.25862 316.2625 151.6805 316.4969Q152.10237 316.73126 152.58675 316.73126Q153.33675 316.73126 153.82112 316.2469Q154.32112 315.7625 154.32112 315.0125Q154.32112 314.2469 153.82112 313.7469Q153.32112 313.2469 152.5555 313.2469Q151.8055 313.2469 151.32112 313.7469Q150.83675 314.23126 150.83675 314.96564ZM160.13362 317.45L160.13362 308.85626L163.368 308.85626Q164.35237 308.85626 164.94612 309.1219Q165.53987 309.3875 165.868 309.9344Q166.21175 310.46564 166.21175 311.0594Q166.21175 311.60626 165.91487 312.09064Q165.618 312.575 165.00862 312.8719Q165.78987 313.10626 166.19612 313.66876Q166.618 314.21564 166.618 314.96564Q166.618 315.5594 166.368 316.09064Q166.118 316.60626 165.743 316.8875Q165.368 317.16876 164.78987 317.3094Q164.22737 317.45 163.41487 317.45L160.13362 317.45ZM161.27425 312.46564L163.13362 312.46564Q163.88362 312.46564 164.21175 312.3719Q164.64925 312.2469 164.868 311.95Q165.08675 311.6375 165.08675 311.1844Q165.08675 310.7625 164.88362 310.4344Q164.6805 310.10626 164.28987 309.9969Q163.91487 309.8719 162.993 309.8719L161.27425 309.8719L161.27425 312.46564ZM161.27425 316.4344L163.41487 316.4344Q163.96175 316.4344 164.1805 316.3875Q164.58675 316.325 164.83675 316.16876Q165.10237 315.9969 165.27425 315.6844Q165.44612 315.3719 165.44612 314.96564Q165.44612 314.48126 165.19612 314.1219Q164.96175 313.7625 164.52425 313.6219Q164.08675 313.48126 163.25862 313.48126L161.27425 313.48126L161.27425 316.4344ZM168.00862 319.84064L167.88362 318.85626Q168.22737 318.95 168.493 318.95Q168.83675 318.95 169.03987 318.825Q169.25862 318.71564 169.39925 318.5125Q169.493 318.34064 169.72737 317.71564Q169.743 317.6375 169.82112 317.46564L167.44612 311.23126L168.58675 311.23126L169.88362 314.825Q170.13362 315.5125 170.33675 316.27814Q170.52425 315.54376 170.77425 314.85626L172.10237 311.23126L173.14925 311.23126L170.78987 317.5594Q170.39925 318.575 170.19612 318.96564Q169.91487 319.4969 169.53987 319.73126Q169.1805 319.98126 168.6805 319.98126Q168.38362 319.98126 168.00862 319.84064ZM175.35237 316.5125L175.50862 317.4344Q175.0555 317.52814 174.71175 317.52814Q174.13362 317.52814 173.82112 317.35626Q173.50862 317.16876 173.368 316.8719Q173.243 316.575 173.243 315.6219L173.243 312.04376L172.47737 312.04376L172.47737 311.23126L173.243 311.23126L173.243 309.6844L174.28987 309.0594L174.28987 311.23126L175.35237 311.23126L175.35237 312.04376L174.28987 312.04376L174.28987 315.6844Q174.28987 316.1375 174.33675 316.2625Q174.39925 316.3875 174.52425 316.46564Q174.64925 316.54376 174.88362 316.54376Q175.07112 316.54376 175.35237 316.5125ZM180.3055 315.45L181.39925 315.575Q181.14925 316.52814 180.44612 317.0594Q179.743 317.59064 178.66487 317.59064Q177.3055 317.59064 176.493 316.7469Q175.69612 315.90314 175.69612 314.3875Q175.69612 312.825 176.50862 311.96564Q177.32112 311.09064 178.60237 311.09064Q179.85237 311.09064 180.63362 311.9344Q181.4305 312.77814 181.4305 314.325Q181.4305 314.41876 181.4305 314.60626L176.78987 314.60626Q176.85237 315.6375 177.368 316.1844Q177.88362 316.71564 178.66487 316.71564Q179.243 316.71564 179.64925 316.41876Q180.07112 316.10626 180.3055 315.45ZM176.85237 313.7469L180.32112 313.7469Q180.25862 312.95 179.9305 312.5594Q179.41487 311.95 178.618 311.95Q177.88362 311.95 177.38362 312.4344Q176.89925 312.91876 176.85237 313.7469ZM182.63362 315.59064L183.66487 315.4344Q183.75862 316.0594 184.14925 316.3875Q184.5555 316.71564 185.28987 316.71564Q186.00862 316.71564 186.35237 316.4344Q186.71175 316.1375 186.71175 315.73126Q186.71175 315.3719 186.39925 315.16876Q186.1805 315.02814 185.32112 314.8094Q184.16487 314.5125 183.71175 314.3094Q183.27425 314.09064 183.03987 313.71564Q182.8055 313.34064 182.8055 312.8719Q182.8055 312.46564 182.993 312.10626Q183.1805 311.7469 183.50862 311.5125Q183.75862 311.34064 184.1805 311.21564Q184.60237 311.09064 185.10237 311.09064Q185.82112 311.09064 186.368 311.3094Q186.9305 311.5125 187.19612 311.8719Q187.46175 312.23126 187.5555 312.825L186.52425 312.96564Q186.46175 312.4969 186.118 312.23126Q185.78987 311.95 185.16487 311.95Q184.44612 311.95 184.13362 312.2Q183.82112 312.4344 183.82112 312.7625Q183.82112 312.96564 183.94612 313.1219Q184.08675 313.29376 184.35237 313.40314Q184.50862 313.46564 185.28987 313.66876Q186.41487 313.98126 186.85237 314.16876Q187.28987 314.35626 187.53987 314.71564Q187.78987 315.075 187.78987 315.6219Q187.78987 316.15314 187.47737 316.6219Q187.1805 317.075 186.60237 317.34064Q186.02425 317.59064 185.28987 317.59064Q184.07112 317.59064 183.4305 317.09064Q182.8055 316.575 182.63362 315.59064Z" fill-rule="nonzero"/><path fill="#000000" d="M263.88828 310.96564L262.8414 311.04376Q262.70078 310.41876 262.45078 310.1375Q262.01328 309.6844 261.38828 309.6844Q260.88828 309.6844 260.49765 309.96564Q260.01328 310.34064 259.7164 311.04376Q259.43515 311.73126 259.41953 313.0125Q259.79453 312.4344 260.3414 312.15314Q260.9039 311.8719 261.51328 311.8719Q262.56015 311.8719 263.29453 312.65314Q264.04453 313.4344 264.04453 314.65314Q264.04453 315.46564 263.68515 316.16876Q263.3414 316.85626 262.73203 317.23126Q262.12265 317.59064 261.35703 317.59064Q260.0289 317.59064 259.20078 316.6219Q258.37265 315.65314 258.37265 313.4344Q258.37265 310.9344 259.29453 309.8094Q260.0914 308.825 261.45078 308.825Q262.4664 308.825 263.10703 309.40314Q263.76328 309.96564 263.88828 310.96564ZM259.5914 314.66876Q259.5914 315.21564 259.81015 315.71564Q260.04453 316.2 260.45078 316.46564Q260.87265 316.73126 261.3414 316.73126Q261.99765 316.73126 262.48203 316.2Q262.9664 315.65314 262.9664 314.73126Q262.9664 313.84064 262.48203 313.325Q262.01328 312.8094 261.29453 312.8094Q260.57578 312.8094 260.07578 313.325Q259.5914 313.84064 259.5914 314.66876ZM268.79453 317.45L268.79453 315.3875L265.07578 315.3875L265.07578 314.41876L268.99765 308.85626L269.85703 308.85626L269.85703 314.41876L271.01328 314.41876L271.01328 315.3875L269.85703 315.3875L269.85703 317.45L268.79453 317.45ZM268.79453 314.41876L268.79453 310.5594L266.10703 314.41876L268.79453 314.41876ZM275.79453 317.45L275.79453 308.85626L279.0289 308.85626Q280.01328 308.85626 280.60703 309.1219Q281.20078 309.3875 281.5289 309.9344Q281.87265 310.46564 281.87265 311.0594Q281.87265 311.60626 281.57578 312.09064Q281.2789 312.575 280.66953 312.8719Q281.45078 313.10626 281.85703 313.66876Q282.2789 314.21564 282.2789 314.96564Q282.2789 315.5594 282.0289 316.09064Q281.7789 316.60626 281.4039 316.8875Q281.0289 317.16876 280.45078 317.3094Q279.88828 317.45 279.07578 317.45L275.79453 317.45ZM276.93515 312.46564L278.79453 312.46564Q279.54453 312.46564 279.87265 312.3719Q280.31015 312.2469 280.5289 311.95Q280.74765 311.6375 280.74765 311.1844Q280.74765 310.7625 280.54453 310.4344Q280.3414 310.10626 279.95078 309.9969Q279.57578 309.8719 278.6539 309.8719L276.93515 309.8719L276.93515 312.46564ZM276.93515 316.4344L279.07578 316.4344Q279.62265 316.4344 279.8414 316.3875Q280.24765 316.325 280.49765 316.16876Q280.76328 315.9969 280.93515 315.6844Q281.10703 315.3719 281.10703 314.96564Q281.10703 314.48126 280.85703 314.1219Q280.62265 313.7625 280.18515 313.6219Q279.74765 313.48126 278.91953 313.48126L276.93515 313.48126L276.93515 316.4344ZM283.66953 319.84064L283.54453 318.85626Q283.88828 318.95 284.1539 318.95Q284.49765 318.95 284.70078 318.825Q284.91953 318.71564 285.06015 318.5125Q285.1539 318.34064 285.38828 317.71564Q285.4039 317.6375 285.48203 317.46564L283.10703 311.23126L284.24765 311.23126L285.54453 314.825Q285.79453 315.5125 285.99765 316.27814Q286.18515 315.54376 286.43515 314.85626L287.76328 311.23126L288.81015 311.23126L286.45078 317.5594Q286.06015 318.575 285.85703 318.96564Q285.57578 319.4969 285.20078 319.73126Q284.8414 319.98126 284.3414 319.98126Q284.04453 319.98126 283.66953 319.84064ZM291.01328 316.5125L291.16953 317.4344Q290.7164 317.52814 290.37265 317.52814Q289.79453 317.52814 289.48203 317.35626Q289.16953 317.16876 289.0289 316.8719Q288.9039 316.575 288.9039 315.6219L288.9039 312.04376L288.13828 312.04376L288.13828 311.23126L288.9039 311.23126L288.9039 309.6844L289.95078 309.0594L289.95078 311.23126L291.01328 311.23126L291.01328 312.04376L289.95078 312.04376L289.95078 315.6844Q289.95078 316.1375 289.99765 316.2625Q290.06015 316.3875 290.18515 316.46564Q290.31015 316.54376 290.54453 316.54376Q290.73203 316.54376 291.01328 316.5125ZM295.9664 315.45L297.06015 315.575Q296.81015 316.52814 296.10703 317.0594Q295.4039 317.59064 294.32578 317.59064Q292.9664 317.59064 292.1539 316.7469Q291.35703 315.90314 291.35703 314.3875Q291.35703 312.825 292.16953 311.96564Q292.98203 311.09064 294.26328 311.09064Q295.51328 311.09064 296.29453 311.9344Q297.0914 312.77814 297.0914 314.325Q297.0914 314.41876 297.0914 314.60626L292.45078 314.60626Q292.51328 315.6375 293.0289 316.1844Q293.54453 316.71564 294.32578 316.71564Q294.9039 316.71564 295.31015 316.41876Q295.73203 316.10626 295.9664 315.45ZM292.51328 313.7469L295.98203 313.7469Q295.91953 312.95 295.5914 312.5594Q295.07578 311.95 294.2789 311.95Q293.54453 311.95 293.04453 312.4344Q292.56015 312.91876 292.51328 313.7469ZM298.29453 315.59064L299.32578 315.4344Q299.41953 316.0594 299.81015 316.3875Q300.2164 316.71564 300.95078 316.71564Q301.66953 316.71564 302.01328 316.4344Q302.37265 316.1375 302.37265 315.73126Q302.37265 315.3719 302.06015 315.16876Q301.8414 315.02814 300.98203 314.8094Q299.82578 314.5125 299.37265 314.3094Q298.93515 314.09064 298.70078 313.71564Q298.4664 313.34064 298.4664 312.8719Q298.4664 312.46564 298.6539 312.10626Q298.8414 311.7469 299.16953 311.5125Q299.41953 311.34064 299.8414 311.21564Q300.26328 311.09064 300.76328 311.09064Q301.48203 311.09064 302.0289 311.3094Q302.5914 311.5125 302.85703 311.8719Q303.12265 312.23126 303.2164 312.825L302.18515 312.96564Q302.12265 312.4969 301.7789 312.23126Q301.45078 311.95 300.82578 311.95Q300.10703 311.95 299.79453 312.2Q299.48203 312.4344 299.48203 312.7625Q299.48203 312.96564 299.60703 313.1219Q299.74765 313.29376 300.01328 313.40314Q300.16953 313.46564 300.95078 313.66876Q302.07578 313.98126 302.51328 314.16876Q302.95078 314.35626 303.20078 314.71564Q303.45078 315.075 303.45078 315.6219Q303.45078 316.15314 303.13828 316.6219Q302.8414 317.075 302.26328 317.34064Q301.68515 317.59064 300.95078 317.59064Q299.73203 317.59064 299.0914 317.09064Q298.4664 316.575 298.29453 315.59064Z" fill-rule="nonzero"/><path fill="#000000" d="M372.62735 316.4344L372.62735 317.45L366.93985 317.45Q366.93985 317.075 367.06485 316.71564Q367.2836 316.1375 367.75235 315.575Q368.23672 315.0125 369.14297 314.27814Q370.54922 313.1219 371.0336 312.45Q371.5336 311.77814 371.5336 311.1844Q371.5336 310.5594 371.08047 310.1375Q370.62735 309.7 369.9086 309.7Q369.14297 309.7 368.68985 310.15314Q368.23672 310.60626 368.2211 311.41876L367.14297 311.3094Q367.25235 310.09064 367.9711 309.46564Q368.70547 308.825 369.93985 308.825Q371.17422 308.825 371.89297 309.5125Q372.61172 310.2 372.61172 311.21564Q372.61172 311.73126 372.39297 312.23126Q372.18985 312.71564 371.68985 313.27814Q371.20547 313.825 370.08047 314.77814Q369.12735 315.575 368.8461 315.8719Q368.58047 316.15314 368.4086 316.4344L372.62735 316.4344ZM374.08047 315.2L375.18985 315.10626Q375.31485 315.91876 375.75235 316.325Q376.20547 316.73126 376.8461 316.73126Q377.5961 316.73126 378.12735 316.15314Q378.6586 315.575 378.6586 314.6375Q378.6586 313.73126 378.14297 313.21564Q377.64297 312.6844 376.81485 312.6844Q376.31485 312.6844 375.89297 312.91876Q375.48672 313.15314 375.25235 313.5125L374.26797 313.3875L375.0961 308.98126L379.37735 308.98126L379.37735 309.98126L375.93985 309.98126L375.48672 312.29376Q376.25235 311.7469 377.0961 311.7469Q378.2211 311.7469 378.98672 312.52814Q379.76797 313.3094 379.76797 314.54376Q379.76797 315.7 379.0961 316.5594Q378.26797 317.59064 376.8461 317.59064Q375.67422 317.59064 374.92422 316.9344Q374.18985 316.27814 374.08047 315.2ZM386.54922 310.96564L385.50235 311.04376Q385.36172 310.41876 385.11172 310.1375Q384.67422 309.6844 384.04922 309.6844Q383.54922 309.6844 383.1586 309.96564Q382.67422 310.34064 382.37735 311.04376Q382.0961 311.73126 382.08047 313.0125Q382.45547 312.4344 383.00235 312.15314Q383.56485 311.8719 384.17422 311.8719Q385.2211 311.8719 385.95547 312.65314Q386.70547 313.4344 386.70547 314.65314Q386.70547 315.46564 386.3461 316.16876Q386.00235 316.85626 385.39297 317.23126Q384.7836 317.59064 384.01797 317.59064Q382.68985 317.59064 381.86172 316.6219Q381.0336 315.65314 381.0336 313.4344Q381.0336 310.9344 381.95547 309.8094Q382.75235 308.825 384.11172 308.825Q385.12735 308.825 385.76797 309.40314Q386.42422 309.96564 386.54922 310.96564ZM382.25235 314.66876Q382.25235 315.21564 382.4711 315.71564Q382.70547 316.2 383.11172 316.46564Q383.5336 316.73126 384.00235 316.73126Q384.6586 316.73126 385.14297 316.2Q385.62735 315.65314 385.62735 314.73126Q385.62735 313.84064 385.14297 313.325Q384.67422 312.8094 383.95547 312.8094Q383.23672 312.8094 382.73672 313.325Q382.25235 313.84064 382.25235 314.66876ZM391.45547 317.45L391.45547 308.85626L394.68985 308.85626Q395.67422 308.85626 396.26797 309.1219Q396.86172 309.3875 397.18985 309.9344Q397.5336 310.46564 397.5336 311.0594Q397.5336 311.60626 397.23672 312.09064Q396.93985 312.575 396.33047 312.8719Q397.11172 313.10626 397.51797 313.66876Q397.93985 314.21564 397.93985 314.96564Q397.93985 315.5594 397.68985 316.09064Q397.43985 316.60626 397.06485 316.8875Q396.68985 317.16876 396.11172 317.3094Q395.54922 317.45 394.73672 317.45L391.45547 317.45ZM392.5961 312.46564L394.45547 312.46564Q395.20547 312.46564 395.5336 312.3719Q395.9711 312.2469 396.18985 311.95Q396.4086 311.6375 396.4086 311.1844Q396.4086 310.7625 396.20547 310.4344Q396.00235 310.10626 395.61172 309.9969Q395.23672 309.8719 394.31485 309.8719L392.5961 309.8719L392.5961 312.46564ZM392.5961 316.4344L394.73672 316.4344Q395.2836 316.4344 395.50235 316.3875Q395.9086 316.325 396.1586 316.16876Q396.42422 315.9969 396.5961 315.6844Q396.76797 315.3719 396.76797 314.96564Q396.76797 314.48126 396.51797 314.1219Q396.2836 313.7625 395.8461 313.6219Q395.4086 313.48126 394.58047 313.48126L392.5961 313.48126L392.5961 316.4344ZM399.33047 319.84064L399.20547 318.85626Q399.54922 318.95 399.81485 318.95Q400.1586 318.95 400.36172 318.825Q400.58047 318.71564 400.7211 318.5125Q400.81485 318.34064 401.04922 317.71564Q401.06485 317.6375 401.14297 317.46564L398.76797 311.23126L399.9086 311.23126L401.20547 314.825Q401.45547 315.5125 401.6586 316.27814Q401.8461 315.54376 402.0961 314.85626L403.42422 311.23126L404.4711 311.23126L402.11172 317.5594Q401.7211 318.575 401.51797 318.96564Q401.23672 319.4969 400.86172 319.73126Q400.50235 319.98126 400.00235 319.98126Q399.70547 319.98126 399.33047 319.84064ZM406.67422 316.5125L406.83047 317.4344Q406.37735 317.52814 406.0336 317.52814Q405.45547 317.52814 405.14297 317.35626Q404.83047 317.16876 404.68985 316.8719Q404.56485 316.575 404.56485 315.6219L404.56485 312.04376L403.79922 312.04376L403.79922 311.23126L404.56485 311.23126L404.56485 309.6844L405.61172 309.0594L405.61172 311.23126L406.67422 311.23126L406.67422 312.04376L405.61172 312.04376L405.61172 315.6844Q405.61172 316.1375 405.6586 316.2625Q405.7211 316.3875 405.8461 316.46564Q405.9711 316.54376 406.20547 316.54376Q406.39297 316.54376 406.67422 316.5125ZM411.62735 315.45L412.7211 315.575Q412.4711 316.52814 411.76797 317.0594Q411.06485 317.59064 409.98672 317.59064Q408.62735 317.59064 407.81485 316.7469Q407.01797 315.90314 407.01797 314.3875Q407.01797 312.825 407.83047 311.96564Q408.64297 311.09064 409.92422 311.09064Q411.17422 311.09064 411.95547 311.9344Q412.75235 312.77814 412.75235 314.325Q412.75235 314.41876 412.75235 314.60626L408.11172 314.60626Q408.17422 315.6375 408.68985 316.1844Q409.20547 316.71564 409.98672 316.71564Q410.56485 316.71564 410.9711 316.41876Q411.39297 316.10626 411.62735 315.45ZM408.17422 313.7469L411.64297 313.7469Q411.58047 312.95 411.25235 312.5594Q410.73672 311.95 409.93985 311.95Q409.20547 311.95 408.70547 312.4344Q408.2211 312.91876 408.17422 313.7469ZM413.95547 315.59064L414.98672 315.4344Q415.08047 316.0594 415.4711 316.3875Q415.87735 316.71564 416.61172 316.71564Q417.33047 316.71564 417.67422 316.4344Q418.0336 316.1375 418.0336 315.73126Q418.0336 315.3719 417.7211 315.16876Q417.50235 315.02814 416.64297 314.8094Q415.48672 314.5125 415.0336 314.3094Q414.5961 314.09064 414.36172 313.71564Q414.12735 313.34064 414.12735 312.8719Q414.12735 312.46564 414.31485 312.10626Q414.50235 311.7469 414.83047 311.5125Q415.08047 311.34064 415.50235 311.21564Q415.92422 311.09064 416.42422 311.09064Q417.14297 311.09064 417.68985 311.3094Q418.25235 311.5125 418.51797 311.8719Q418.7836 312.23126 418.87735 312.825L417.8461 312.96564Q417.7836 312.4969 417.43985 312.23126Q417.11172 311.95 416.48672 311.95Q415.76797 311.95 415.45547 312.2Q415.14297 312.4344 415.14297 312.7625Q415.14297 312.96564 415.26797 313.1219Q415.4086 313.29376 415.67422 313.40314Q415.83047 313.46564 416.61172 313.66876Q417.73672 313.98126 418.17422 314.16876Q418.61172 314.35626 418.86172 314.71564Q419.11172 315.075 419.11172 315.6219Q419.11172 316.15314 418.79922 316.6219Q418.50235 317.075 417.92422 317.34064Q417.3461 317.59064 416.61172 317.59064Q415.39297 317.59064 414.75235 317.09064Q414.12735 316.575 413.95547 315.59064Z" fill-rule="nonzero"/><path fill="#000000" d="M479.71014 317.45L478.66327 317.45L478.66327 310.73126Q478.27264 311.09064 477.64764 311.46564Q477.03827 311.825 476.5539 311.9969L476.5539 310.98126Q477.4289 310.5594 478.08514 309.98126Q478.75702 309.3875 479.03827 308.825L479.71014 308.825L479.71014 317.45ZM482.7414 313.21564Q482.7414 311.6844 483.0539 310.7625Q483.3664 309.825 483.97577 309.325Q484.60077 308.825 485.53827 308.825Q486.22577 308.825 486.7414 309.10626Q487.27264 309.3875 487.6164 309.91876Q487.96014 310.4344 488.14764 311.1844Q488.33514 311.9344 488.33514 313.21564Q488.33514 314.73126 488.02264 315.65314Q487.72577 316.575 487.10077 317.09064Q486.4914 317.59064 485.53827 317.59064Q484.3039 317.59064 483.58514 316.7Q482.7414 315.6375 482.7414 313.21564ZM483.81952 313.21564Q483.81952 315.325 484.31952 316.02814Q484.81952 316.73126 485.53827 316.73126Q486.27264 316.73126 486.75702 316.02814Q487.25702 315.325 487.25702 313.21564Q487.25702 311.09064 486.75702 310.40314Q486.27264 309.7 485.52264 309.7Q484.8039 309.7 484.3664 310.3094Q483.81952 311.09064 483.81952 313.21564ZM495.28827 316.4344L495.28827 317.45L489.60077 317.45Q489.60077 317.075 489.72577 316.71564Q489.94452 316.1375 490.41327 315.575Q490.89764 315.0125 491.8039 314.27814Q493.21014 313.1219 493.69452 312.45Q494.19452 311.77814 494.19452 311.1844Q494.19452 310.5594 493.7414 310.1375Q493.28827 309.7 492.56952 309.7Q491.8039 309.7 491.35077 310.15314Q490.89764 310.60626 490.88202 311.41876L489.8039 311.3094Q489.91327 310.09064 490.63202 309.46564Q491.3664 308.825 492.60077 308.825Q493.83514 308.825 494.5539 309.5125Q495.27264 310.2 495.27264 311.21564Q495.27264 311.73126 495.0539 312.23126Q494.85077 312.71564 494.35077 313.27814Q493.8664 313.825 492.7414 314.77814Q491.78827 315.575 491.50702 315.8719Q491.2414 316.15314 491.06952 316.4344L495.28827 316.4344ZM500.1164 317.45L500.1164 315.3875L496.39764 315.3875L496.39764 314.41876L500.31952 308.85626L501.1789 308.85626L501.1789 314.41876L502.33514 314.41876L502.33514 315.3875L501.1789 315.3875L501.1789 317.45L500.1164 317.45ZM500.1164 314.41876L500.1164 310.5594L497.4289 314.41876L500.1164 314.41876ZM507.1164 317.45L507.1164 308.85626L510.35077 308.85626Q511.33514 308.85626 511.9289 309.1219Q512.52264 309.3875 512.85077 309.9344Q513.1945 310.46564 513.1945 311.0594Q513.1945 311.60626 512.89764 312.09064Q512.60077 312.575 511.9914 312.8719Q512.77264 313.10626 513.1789 313.66876Q513.60077 314.21564 513.60077 314.96564Q513.60077 315.5594 513.35077 316.09064Q513.10077 316.60626 512.72577 316.8875Q512.35077 317.16876 511.77264 317.3094Q511.21014 317.45 510.39764 317.45L507.1164 317.45ZM508.25702 312.46564L510.1164 312.46564Q510.8664 312.46564 511.19452 312.3719Q511.63202 312.2469 511.85077 311.95Q512.0695 311.6375 512.0695 311.1844Q512.0695 310.7625 511.8664 310.4344Q511.66327 310.10626 511.27264 309.9969Q510.89764 309.8719 509.97577 309.8719L508.25702 309.8719L508.25702 312.46564ZM508.25702 316.4344L510.39764 316.4344Q510.94452 316.4344 511.16327 316.3875Q511.56952 316.325 511.81952 316.16876Q512.08514 315.9969 512.257 315.6844Q512.4289 315.3719 512.4289 314.96564Q512.4289 314.48126 512.1789 314.1219Q511.94452 313.7625 511.50702 313.6219Q511.06952 313.48126 510.2414 313.48126L508.25702 313.48126L508.25702 316.4344ZM514.9914 319.84064L514.8664 318.85626Q515.21014 318.95 515.47577 318.95Q515.8195 318.95 516.02264 318.825Q516.2414 318.71564 516.382 318.5125Q516.47577 318.34064 516.71014 317.71564Q516.72577 317.6375 516.8039 317.46564L514.4289 311.23126L515.5695 311.23126L516.8664 314.825Q517.1164 315.5125 517.3195 316.27814Q517.507 315.54376 517.757 314.85626L519.08514 311.23126L520.132 311.23126L517.77264 317.5594Q517.382 318.575 517.1789 318.96564Q516.89764 319.4969 516.52264 319.73126Q516.16327 319.98126 515.66327 319.98126Q515.3664 319.98126 514.9914 319.84064ZM522.33514 316.5125L522.4914 317.4344Q522.03827 317.52814 521.6945 317.52814Q521.1164 317.52814 520.8039 317.35626Q520.4914 317.16876 520.35077 316.8719Q520.22577 316.575 520.22577 315.6219L520.22577 312.04376L519.46014 312.04376L519.46014 311.23126L520.22577 311.23126L520.22577 309.6844L521.27264 309.0594L521.27264 311.23126L522.33514 311.23126L522.33514 312.04376L521.27264 312.04376L521.27264 315.6844Q521.27264 316.1375 521.3195 316.2625Q521.382 316.3875 521.507 316.46564Q521.632 316.54376 521.8664 316.54376Q522.0539 316.54376 522.33514 316.5125ZM527.28827 315.45L528.382 315.575Q528.132 316.52814 527.4289 317.0594Q526.72577 317.59064 525.64764 317.59064Q524.28827 317.59064 523.47577 316.7469Q522.6789 315.90314 522.6789 314.3875Q522.6789 312.825 523.4914 311.96564Q524.3039 311.09064 525.58514 311.09064Q526.83514 311.09064 527.6164 311.9344Q528.41327 312.77814 528.41327 314.325Q528.41327 314.41876 528.41327 314.60626L523.77264 314.60626Q523.83514 315.6375 524.35077 316.1844Q524.8664 316.71564 525.64764 316.71564Q526.22577 316.71564 526.632 316.41876Q527.0539 316.10626 527.28827 315.45ZM523.83514 313.7469L527.3039 313.7469Q527.2414 312.95 526.91327 312.5594Q526.39764 311.95 525.60077 311.95Q524.8664 311.95 524.3664 312.4344Q523.882 312.91876 523.83514 313.7469ZM529.6164 315.59064L530.64764 315.4344Q530.7414 316.0594 531.132 316.3875Q531.53827 316.71564 532.27264 316.71564Q532.9914 316.71564 533.33514 316.4344Q533.6945 316.1375 533.6945 315.73126Q533.6945 315.3719 533.382 315.16876Q533.16327 315.02814 532.3039 314.8094Q531.14764 314.5125 530.6945 314.3094Q530.257 314.09064 530.02264 313.71564Q529.78827 313.34064 529.78827 312.8719Q529.78827 312.46564 529.97577 312.10626Q530.16327 311.7469 530.4914 311.5125Q530.7414 311.34064 531.16327 311.21564Q531.58514 311.09064 532.08514 311.09064Q532.8039 311.09064 533.35077 311.3094Q533.91327 311.5125 534.1789 311.8719Q534.4445 312.23126 534.53827 312.825L533.507 312.96564Q533.4445 312.4969 533.10077 312.23126Q532.77264 311.95 532.14764 311.95Q531.4289 311.95 531.1164 312.2Q530.8039 312.4344 530.8039 312.7625Q530.8039 312.96564 530.9289 313.1219Q531.0695 313.29376 531.33514 313.40314Q531.4914 313.46564 532.27264 313.66876Q533.39764 313.98126 533.83514 314.16876Q534.27264 314.35626 534.52264 314.71564Q534.77264 315.075 534.77264 315.6219Q534.77264 316.15314 534.46014 316.6219Q534.16327 317.075 533.58514 317.34064Q533.007 317.59064 532.27264 317.59064Q531.0539 317.59064 530.41327 317.09064Q529.78827 316.575 529.6164 315.59064Z" fill-rule="nonzero"/><path fill="#757575" d="M45.96875 37.55L45.96875 23.2375L47.859375 23.2375L47.859375 35.8625L54.90625 35.8625L54.90625 37.55L45.96875 37.55ZM63.59375 36.26875Q62.609375 37.096874 61.703125 37.440624Q60.796875 37.784374 59.765625 37.784374Q58.0625 37.784374 57.140625 36.95625Q56.21875 36.1125 56.21875 34.815624Q56.21875 34.05 56.5625 33.425Q56.921875 32.8 57.484375 32.425Q58.046875 32.034374 58.75 31.83125Q59.265625 31.70625 60.3125 31.565624Q62.4375 31.315624 63.4375 30.971874Q63.453125 30.6125 63.453125 30.503124Q63.453125 29.440624 62.953125 28.9875Q62.28125 28.39375 60.953125 28.39375Q59.703125 28.39375 59.109375 28.83125Q58.53125 29.26875 58.25 30.378124L56.53125 30.14375Q56.765625 29.034374 57.296875 28.3625Q57.828125 27.675 58.84375 27.315624Q59.859375 26.940624 61.203125 26.940624Q62.53125 26.940624 63.359375 27.253124Q64.1875 27.565624 64.578125 28.05Q64.96875 28.51875 65.125 29.2375Q65.21875 29.690624 65.21875 30.8625L65.21875 33.20625Q65.21875 35.659374 65.328125 36.315624Q65.4375 36.95625 65.78125 37.55L63.9375 37.55Q63.671875 37.003124 63.59375 36.26875ZM63.4375 32.346874Q62.484375 32.7375 60.5625 33.003124Q59.484375 33.159374 59.03125 33.3625Q58.59375 33.55 58.34375 33.925Q58.09375 34.3 58.09375 34.76875Q58.09375 35.471874 58.625 35.940624Q59.15625 36.409374 60.1875 36.409374Q61.203125 36.409374 61.984375 35.971874Q62.78125 35.51875 63.15625 34.753124Q63.4375 34.14375 63.4375 32.9875L63.4375 32.346874ZM71.65625 35.971874L71.90625 37.534374Q71.171875 37.690624 70.578125 37.690624Q69.625 37.690624 69.09375 37.39375Q68.578125 37.08125 68.359375 36.596874Q68.140625 36.096874 68.140625 34.51875L68.140625 28.55L66.859375 28.55L66.859375 27.175L68.140625 27.175L68.140625 24.6125L69.890625 23.55L69.890625 27.175L71.65625 27.175L71.65625 28.55L69.890625 28.55L69.890625 34.6125Q69.890625 35.3625 69.984375 35.58125Q70.078125 35.784374 70.28125 35.925Q70.5 36.05 70.890625 36.05Q71.171875 36.05 71.65625 35.971874ZM80.921875 34.20625L82.734375 34.440624Q82.3125 36.01875 81.140625 36.909374Q79.984375 37.784374 78.171875 37.784374Q75.90625 37.784374 74.5625 36.39375Q73.234375 34.9875 73.234375 32.45625Q73.234375 29.83125 74.578125 28.39375Q75.921875 26.940624 78.078125 26.940624Q80.15625 26.940624 81.46875 28.3625Q82.796875 29.76875 82.796875 32.346874Q82.796875 32.503124 82.78125 32.815624L75.046875 32.815624Q75.140625 34.51875 76.015625 35.425Q76.890625 36.33125 78.1875 36.33125Q79.15625 36.33125 79.828125 35.83125Q80.515625 35.315624 80.921875 34.20625ZM75.140625 31.3625L80.9375 31.3625Q80.828125 30.065624 80.28125 29.409374Q79.4375 28.39375 78.09375 28.39375Q76.890625 28.39375 76.0625 29.20625Q75.234375 30.003124 75.140625 31.3625ZM84.8125 37.55L84.8125 27.175L86.40625 27.175L86.40625 28.659374Q87.546875 26.940624 89.703125 26.940624Q90.640625 26.940624 91.421875 27.284374Q92.21875 27.6125 92.609375 28.159374Q93.0 28.70625 93.15625 29.45625Q93.25 29.95625 93.25 31.175L93.25 37.55L91.484375 37.55L91.484375 31.2375Q91.484375 30.159374 91.28125 29.628124Q91.078125 29.096874 90.546875 28.784374Q90.03125 28.471874 89.328125 28.471874Q88.203125 28.471874 87.390625 29.190624Q86.578125 29.89375 86.578125 31.878124L86.578125 37.55L84.8125 37.55ZM101.59375 33.753124L103.3125 33.971874Q103.03125 35.76875 101.859375 36.784374Q100.703125 37.784374 99.0 37.784374Q96.875 37.784374 95.578125 36.39375Q94.28125 35.003124 94.28125 32.409374Q94.28125 30.721874 94.828125 29.471874Q95.390625 28.20625 96.53125 27.58125Q97.671875 26.940624 99.015625 26.940624Q100.703125 26.940624 101.765625 27.8Q102.84375 28.659374 103.15625 30.221874L101.4375 30.4875Q101.203125 29.440624 100.578125 28.925Q99.953125 28.39375 99.078125 28.39375Q97.75 28.39375 96.921875 29.346874Q96.09375 30.3 96.09375 32.346874Q96.09375 34.440624 96.890625 35.39375Q97.6875 36.33125 98.984375 36.33125Q100.015625 36.33125 100.703125 35.70625Q101.40625 35.065624 101.59375 33.753124ZM104.734375 41.55L104.546875 39.89375Q105.125 40.05 105.546875 40.05Q106.140625 40.05 106.484375 39.846874Q106.84375 39.659374 107.0625 39.315624Q107.234375 39.05 107.609375 38.003124Q107.65625 37.846874 107.765625 37.565624L103.828125 27.175L105.71875 27.175L107.875 33.190624Q108.296875 34.33125 108.625 35.58125Q108.9375 34.378124 109.34375 33.221874L111.5625 27.175L113.328125 27.175L109.375 37.721874Q108.75 39.440624 108.390625 40.08125Q107.921875 40.95625 107.3125 41.346874Q106.71875 41.753124 105.875 41.753124Q105.359375 41.753124 104.734375 41.55ZM120.96875 37.55L120.96875 23.2375L126.34375 23.2375Q127.984375 23.2375 128.96875 23.675Q129.95312 24.096874 130.51562 25.003124Q131.07812 25.909374 131.07812 26.89375Q131.07812 27.815624 130.57812 28.628124Q130.09375 29.440624 129.07812 29.925Q130.375 30.315624 131.07812 31.2375Q131.78125 32.14375 131.78125 33.39375Q131.78125 34.409374 131.34375 35.26875Q130.92188 36.128124 130.29688 36.596874Q129.67188 37.065624 128.73438 37.315624Q127.796875 37.55 126.421875 37.55L120.96875 37.55ZM122.859375 29.253124L125.953125 29.253124Q127.21875 29.253124 127.765625 29.08125Q128.48438 28.8625 128.84375 28.378124Q129.21875 27.878124 129.21875 27.1125Q129.21875 26.409374 128.875 25.8625Q128.53125 25.315624 127.890625 25.128124Q127.265625 24.925 125.71875 24.925L122.859375 24.925L122.859375 29.253124ZM122.859375 35.8625L126.421875 35.8625Q127.34375 35.8625 127.71875 35.784374Q128.375 35.675 128.8125 35.409374Q129.25 35.128124 129.53125 34.6125Q129.8125 34.08125 129.8125 33.39375Q129.8125 32.596874 129.40625 32.003124Q129.0 31.409374 128.26562 31.175Q127.53125 30.940624 126.171875 30.940624L122.859375 30.940624L122.859375 35.8625ZM140.92188 34.20625L142.73438 34.440624Q142.3125 36.01875 141.14062 36.909374Q139.98438 37.784374 138.17188 37.784374Q135.90625 37.784374 134.5625 36.39375Q133.23438 34.9875 133.23438 32.45625Q133.23438 29.83125 134.57812 28.39375Q135.92188 26.940624 138.07812 26.940624Q140.15625 26.940624 141.46875 28.3625Q142.79688 29.76875 142.79688 32.346874Q142.79688 32.503124 142.78125 32.815624L135.04688 32.815624Q135.14062 34.51875 136.01562 35.425Q136.89062 36.33125 138.1875 36.33125Q139.15625 36.33125 139.82812 35.83125Q140.51562 35.315624 140.92188 34.20625ZM135.14062 31.3625L140.9375 31.3625Q140.82812 30.065624 140.28125 29.409374Q139.4375 28.39375 138.09375 28.39375Q136.89062 28.39375 136.0625 29.20625Q135.23438 30.003124 135.14062 31.3625ZM148.65625 35.971874L148.90625 37.534374Q148.17188 37.690624 147.57812 37.690624Q146.625 37.690624 146.09375 37.39375Q145.57812 37.08125 145.35938 36.596874Q145.14062 36.096874 145.14062 34.51875L145.14062 28.55L143.85938 28.55L143.85938 27.175L145.14062 27.175L145.14062 24.6125L146.89062 23.55L146.89062 27.175L148.65625 27.175L148.65625 28.55L146.89062 28.55L146.89062 34.6125Q146.89062 35.3625 146.98438 35.58125Q147.07812 35.784374 147.28125 35.925Q147.5 36.05 147.89062 36.05Q148.17188 36.05 148.65625 35.971874ZM152.73438 37.55L149.5625 27.175L151.375 27.175L153.03125 33.159374L153.64062 35.39375Q153.6875 35.221874 154.17188 33.253124L155.82812 27.175L157.64062 27.175L159.1875 33.190624L159.70312 35.175L160.29688 33.175L162.07812 27.175L163.78125 27.175L160.54688 37.55L158.71875 37.55L157.0625 31.33125L156.67188 29.565624L154.5625 37.55L152.73438 37.55ZM172.92188 34.20625L174.73438 34.440624Q174.3125 36.01875 173.14062 36.909374Q171.98438 37.784374 170.17188 37.784374Q167.90625 37.784374 166.5625 36.39375Q165.23438 34.9875 165.23438 32.45625Q165.23438 29.83125 166.57812 28.39375Q167.92188 26.940624 170.07812 26.940624Q172.15625 26.940624 173.46875 28.3625Q174.79688 29.76875 174.79688 32.346874Q174.79688 32.503124 174.78125 32.815624L167.04688 32.815624Q167.14062 34.51875 168.01562 35.425Q168.89062 36.33125 170.1875 36.33125Q171.15625 36.33125 171.82812 35.83125Q172.51562 35.315624 172.92188 34.20625ZM167.14062 31.3625L172.9375 31.3625Q172.82812 30.065624 172.28125 29.409374Q171.4375 28.39375 170.09375 28.39375Q168.89062 28.39375 168.0625 29.20625Q167.23438 30.003124 167.14062 31.3625ZM183.92188 34.20625L185.73438 34.440624Q185.3125 36.01875 184.14062 36.909374Q182.98438 37.784374 181.17188 37.784374Q178.90625 37.784374 177.5625 36.39375Q176.23438 34.9875 176.23438 32.45625Q176.23438 29.83125 177.57812 28.39375Q178.92188 26.940624 181.07812 26.940624Q183.15625 26.940624 184.46875 28.3625Q185.79688 29.76875 185.79688 32.346874Q185.79688 32.503124 185.78125 32.815624L178.04688 32.815624Q178.14062 34.51875 179.01562 35.425Q179.89062 36.33125 181.1875 36.33125Q182.15625 36.33125 182.82812 35.83125Q183.51562 35.315624 183.92188 34.20625ZM178.14062 31.3625L183.9375 31.3625Q183.82812 30.065624 183.28125 29.409374Q182.4375 28.39375 181.09375 28.39375Q179.89062 28.39375 179.0625 29.20625Q178.23438 30.003124 178.14062 31.3625ZM187.8125 37.55L187.8125 27.175L189.40625 27.175L189.40625 28.659374Q190.54688 26.940624 192.70312 26.940624Q193.64062 26.940624 194.42188 27.284374Q195.21875 27.6125 195.60938 28.159374Q196.0 28.70625 196.15625 29.45625Q196.25 29.95625 196.25 31.175L196.25 37.55L194.48438 37.55L194.48438 31.2375Q194.48438 30.159374 194.28125 29.628124Q194.07812 29.096874 193.54688 28.784374Q193.03125 28.471874 192.32812 28.471874Q191.20312 28.471874 190.39062 29.190624Q189.57812 29.89375 189.57812 31.878124L189.57812 37.55L187.8125 37.55ZM209.95312 37.55L208.1875 37.55L208.1875 26.346874Q207.5625 26.95625 206.53125 27.565624Q205.5 28.159374 204.67188 28.471874L204.67188 26.76875Q206.15625 26.08125 207.25 25.096874Q208.35938 24.096874 208.8125 23.175L209.95312 23.175L209.95312 37.55ZM223.5625 35.8625L223.5625 37.55L214.10938 37.55Q214.09375 36.909374 214.3125 36.33125Q214.67188 35.3625 215.46875 34.425Q216.26562 33.4875 217.76562 32.253124Q220.10938 30.346874 220.92188 29.2375Q221.75 28.1125 221.75 27.1125Q221.75 26.065624 221.0 25.346874Q220.25 24.628124 219.04688 24.628124Q217.78125 24.628124 217.01562 25.39375Q216.25 26.159374 216.25 27.503124L214.4375 27.315624Q214.625 25.3 215.82812 24.2375Q217.04688 23.175 219.09375 23.175Q221.14062 23.175 222.34375 24.315624Q223.54688 25.45625 223.54688 27.14375Q223.54688 28.003124 223.1875 28.846874Q222.84375 29.675 222.03125 30.596874Q221.21875 31.503124 219.32812 33.1125Q217.73438 34.440624 217.28125 34.909374Q216.84375 35.378124 216.54688 35.8625L223.5625 35.8625ZM225.59375 34.2375L227.28125 34.08125Q227.5 35.26875 228.09375 35.815624Q228.70312 36.346874 229.65625 36.346874Q230.46875 36.346874 231.07812 35.9875Q231.6875 35.6125 232.07812 34.9875Q232.46875 34.3625 232.73438 33.315624Q233.0 32.253124 233.0 31.159374Q233.0 31.05 232.98438 30.815624Q232.45312 31.64375 231.54688 32.175Q230.64062 32.690624 229.5625 32.690624Q227.79688 32.690624 226.5625 31.409374Q225.32812 30.1125 225.32812 28.003124Q225.32812 25.83125 226.60938 24.503124Q227.90625 23.175 229.82812 23.175Q231.23438 23.175 232.39062 23.925Q233.54688 24.675 234.14062 26.065624Q234.75 27.45625 234.75 30.096874Q234.75 32.846874 234.14062 34.471874Q233.54688 36.096874 232.375 36.95625Q231.20312 37.8 229.625 37.8Q227.9375 37.8 226.875 36.8625Q225.8125 35.925 225.59375 34.2375ZM232.79688 27.925Q232.79688 26.409374 231.98438 25.51875Q231.1875 24.628124 230.04688 24.628124Q228.875 24.628124 228.0 25.596874Q227.14062 26.55 227.14062 28.065624Q227.14062 29.440624 227.95312 30.3Q228.78125 31.14375 230.0 31.14375Q231.21875 31.14375 232.0 30.3Q232.79688 29.440624 232.79688 27.925ZM237.3125 37.55L237.3125 35.55L239.3125 35.55L239.3125 37.55L237.3125 37.55ZM242.34375 33.76875L244.09375 33.534374Q244.40625 35.034374 245.125 35.690624Q245.85938 36.346874 246.90625 36.346874Q248.14062 36.346874 248.98438 35.4875Q249.84375 34.628124 249.84375 33.3625Q249.84375 32.14375 249.04688 31.3625Q248.26562 30.58125 247.04688 30.58125Q246.54688 30.58125 245.8125 30.76875L246.0 29.221874Q246.17188 29.253124 246.28125 29.253124Q247.40625 29.253124 248.29688 28.675Q249.20312 28.08125 249.20312 26.8625Q249.20312 25.89375 248.54688 25.253124Q247.89062 24.6125 246.85938 24.6125Q245.84375 24.6125 245.15625 25.26875Q244.46875 25.909374 244.28125 27.190624L242.51562 26.878124Q242.84375 25.1125 243.98438 24.14375Q245.125 23.175 246.82812 23.175Q248.0 23.175 248.98438 23.675Q249.96875 24.175 250.48438 25.05Q251.01562 25.925 251.01562 26.89375Q251.01562 27.815624 250.51562 28.58125Q250.01562 29.346874 249.04688 29.8Q250.3125 30.08125 251.01562 31.01875Q251.71875 31.940624 251.71875 33.315624Q251.71875 35.190624 250.34375 36.503124Q248.98438 37.8 246.89062 37.8Q245.0 37.8 243.75 36.675Q242.51562 35.55 242.34375 33.76875ZM254.3125 37.55L254.3125 35.55L256.3125 35.55L256.3125 37.55L254.3125 37.55ZM265.95312 37.55L264.1875 37.55L264.1875 26.346874Q263.5625 26.95625 262.53125 27.565624Q261.5 28.159374 260.67188 28.471874L260.67188 26.76875Q262.15625 26.08125 263.25 25.096874Q264.35938 24.096874 264.8125 23.175L265.95312 23.175L265.95312 37.55ZM279.5625 35.8625L279.5625 37.55L270.10938 37.55Q270.09375 36.909374 270.3125 36.33125Q270.67188 35.3625 271.46875 34.425Q272.26562 33.4875 273.76562 32.253124Q276.10938 30.346874 276.92188 29.2375Q277.75 28.1125 277.75 27.1125Q277.75 26.065624 277.0 25.346874Q276.25 24.628124 275.04688 24.628124Q273.78125 24.628124 273.01562 25.39375Q272.25 26.159374 272.25 27.503124L270.4375 27.315624Q270.625 25.3 271.82812 24.2375Q273.04688 23.175 275.09375 23.175Q277.14062 23.175 278.34375 24.315624Q279.54688 25.45625 279.54688 27.14375Q279.54688 28.003124 279.1875 28.846874Q278.84375 29.675 278.03125 30.596874Q277.21875 31.503124 275.32812 33.1125Q273.73438 34.440624 273.28125 34.909374Q272.84375 35.378124 272.54688 35.8625L279.5625 35.8625ZM290.45312 26.7375L288.70312 26.878124Q288.46875 25.846874 288.04688 25.378124Q287.32812 24.6125 286.28125 24.6125Q285.4375 24.6125 284.8125 25.08125Q283.98438 25.690624 283.5 26.8625Q283.01562 28.01875 283.0 30.159374Q283.64062 29.20625 284.54688 28.7375Q285.46875 28.26875 286.48438 28.26875Q288.23438 28.26875 289.46875 29.565624Q290.70312 30.846874 290.70312 32.89375Q290.70312 34.253124 290.125 35.409374Q289.54688 36.565624 288.53125 37.190624Q287.51562 37.8 286.21875 37.8Q284.03125 37.8 282.64062 36.190624Q281.25 34.565624 281.25 30.846874Q281.25 26.70625 282.78125 24.815624Q284.125 23.175 286.39062 23.175Q288.07812 23.175 289.15625 24.128124Q290.23438 25.065624 290.45312 26.7375ZM283.28125 32.909374Q283.28125 33.815624 283.65625 34.64375Q284.04688 35.471874 284.73438 35.909374Q285.4375 36.346874 286.1875 36.346874Q287.3125 36.346874 288.10938 35.45625Q288.90625 34.55 288.90625 33.003124Q288.90625 31.51875 288.10938 30.675Q287.32812 29.815624 286.125 29.815624Q284.9375 29.815624 284.10938 30.675Q283.28125 31.51875 283.28125 32.909374ZM293.3125 37.55L293.3125 35.55L295.3125 35.55L295.3125 37.55L293.3125 37.55ZM307.45312 26.7375L305.70312 26.878124Q305.46875 25.846874 305.04688 25.378124Q304.32812 24.6125 303.28125 24.6125Q302.4375 24.6125 301.8125 25.08125Q300.98438 25.690624 300.5 26.8625Q300.01562 28.01875 300.0 30.159374Q300.64062 29.20625 301.54688 28.7375Q302.46875 28.26875 303.48438 28.26875Q305.23438 28.26875 306.46875 29.565624Q307.70312 30.846874 307.70312 32.89375Q307.70312 34.253124 307.125 35.409374Q306.54688 36.565624 305.53125 37.190624Q304.51562 37.8 303.21875 37.8Q301.03125 37.8 299.64062 36.190624Q298.25 34.565624 298.25 30.846874Q298.25 26.70625 299.78125 24.815624Q301.125 23.175 303.39062 23.175Q305.07812 23.175 306.15625 24.128124Q307.23438 25.065624 307.45312 26.7375ZM300.28125 32.909374Q300.28125 33.815624 300.65625 34.64375Q301.04688 35.471874 301.73438 35.909374Q302.4375 36.346874 303.1875 36.346874Q304.3125 36.346874 305.10938 35.45625Q305.90625 34.55 305.90625 33.003124Q305.90625 31.51875 305.10938 30.675Q304.32812 29.815624 303.125 29.815624Q301.9375 29.815624 301.10938 30.675Q300.28125 31.51875 300.28125 32.909374ZM318.5625 35.8625L318.5625 37.55L309.10938 37.55Q309.09375 36.909374 309.3125 36.33125Q309.67188 35.3625 310.46875 34.425Q311.26562 33.4875 312.76562 32.253124Q315.10938 30.346874 315.92188 29.2375Q316.75 28.1125 316.75 27.1125Q316.75 26.065624 316.0 25.346874Q315.25 24.628124 314.04688 24.628124Q312.78125 24.628124 312.01562 25.39375Q311.25 26.159374 311.25 27.503124L309.4375 27.315624Q309.625 25.3 310.82812 24.2375Q312.04688 23.175 314.09375 23.175Q316.14062 23.175 317.34375 24.315624Q318.54688 25.45625 318.54688 27.14375Q318.54688 28.003124 318.1875 28.846874Q317.84375 29.675 317.03125 30.596874Q316.21875 31.503124 314.32812 33.1125Q312.73438 34.440624 312.28125 34.909374Q311.84375 35.378124 311.54688 35.8625L318.5625 35.8625ZM333.59375 36.26875Q332.60938 37.096874 331.70312 37.440624Q330.79688 37.784374 329.76562 37.784374Q328.0625 37.784374 327.14062 36.95625Q326.21875 36.1125 326.21875 34.815624Q326.21875 34.05 326.5625 33.425Q326.92188 32.8 327.48438 32.425Q328.04688 32.034374 328.75 31.83125Q329.26562 31.70625 330.3125 31.565624Q332.4375 31.315624 333.4375 30.971874Q333.45312 30.6125 333.45312 30.503124Q333.45312 29.440624 332.95312 28.9875Q332.28125 28.39375 330.95312 28.39375Q329.70312 28.39375 329.10938 28.83125Q328.53125 29.26875 328.25 30.378124L326.53125 30.14375Q326.76562 29.034374 327.29688 28.3625Q327.82812 27.675 328.84375 27.315624Q329.85938 26.940624 331.20312 26.940624Q332.53125 26.940624 333.35938 27.253124Q334.1875 27.565624 334.57812 28.05Q334.96875 28.51875 335.125 29.2375Q335.21875 29.690624 335.21875 30.8625L335.21875 33.20625Q335.21875 35.659374 335.32812 36.315624Q335.4375 36.95625 335.78125 37.55L333.9375 37.55Q333.67188 37.003124 333.59375 36.26875ZM333.4375 32.346874Q332.48438 32.7375 330.5625 33.003124Q329.48438 33.159374 329.03125 33.3625Q328.59375 33.55 328.34375 33.925Q328.09375 34.3 328.09375 34.76875Q328.09375 35.471874 328.625 35.940624Q329.15625 36.409374 330.1875 36.409374Q331.20312 36.409374 331.98438 35.971874Q332.78125 35.51875 333.15625 34.753124Q333.4375 34.14375 333.4375 32.9875L333.4375 32.346874ZM337.8125 37.55L337.8125 27.175L339.40625 27.175L339.40625 28.659374Q340.54688 26.940624 342.70312 26.940624Q343.64062 26.940624 344.42188 27.284374Q345.21875 27.6125 345.60938 28.159374Q346.0 28.70625 346.15625 29.45625Q346.25 29.95625 346.25 31.175L346.25 37.55L344.48438 37.55L344.48438 31.2375Q344.48438 30.159374 344.28125 29.628124Q344.07812 29.096874 343.54688 28.784374Q343.03125 28.471874 342.32812 28.471874Q341.20312 28.471874 340.39062 29.190624Q339.57812 29.89375 339.57812 31.878124L339.57812 37.55L337.8125 37.55ZM354.54688 37.55L354.54688 36.2375Q353.5625 37.784374 351.64062 37.784374Q350.40625 37.784374 349.35938 37.096874Q348.32812 36.409374 347.75 35.190624Q347.1875 33.971874 347.1875 32.378124Q347.1875 30.815624 347.70312 29.55Q348.21875 28.284374 349.25 27.6125Q350.29688 26.940624 351.5625 26.940624Q352.5 26.940624 353.23438 27.346874Q353.96875 27.7375 354.4375 28.3625L354.4375 23.2375L356.17188 23.2375L356.17188 37.55L354.54688 37.55ZM348.98438 32.378124Q348.98438 34.3625 349.82812 35.346874Q350.67188 36.33125 351.8125 36.33125Q352.96875 36.33125 353.76562 35.39375Q354.57812 34.45625 354.57812 32.51875Q354.57812 30.39375 353.75 29.39375Q352.9375 28.39375 351.73438 28.39375Q350.5625 28.39375 349.76562 29.3625Q348.98438 30.315624 348.98438 32.378124ZM364.98438 37.55L364.98438 23.2375L367.84375 23.2375L371.21875 33.3625Q371.6875 34.784374 371.90625 35.4875Q372.15625 34.70625 372.67188 33.190624L376.09375 23.2375L378.64062 23.2375L378.64062 37.55L376.82812 37.55L376.82812 25.565624L372.65625 37.55L370.95312 37.55L366.8125 25.3625L366.8125 37.55L364.98438 37.55ZM381.17188 32.3625Q381.17188 29.4875 382.76562 28.096874Q384.10938 26.940624 386.03125 26.940624Q388.17188 26.940624 389.51562 28.346874Q390.875 29.753124 390.875 32.221874Q390.875 34.221874 390.28125 35.378124Q389.6875 36.51875 388.53125 37.159374Q387.39062 37.784374 386.03125 37.784374Q383.84375 37.784374 382.5 36.39375Q381.17188 34.9875 381.17188 32.3625ZM382.96875 32.3625Q382.96875 34.3625 383.82812 35.346874Q384.70312 36.33125 386.03125 36.33125Q387.34375 36.33125 388.20312 35.346874Q389.07812 34.346874 389.07812 32.3Q389.07812 30.378124 388.20312 29.39375Q387.32812 28.39375 386.03125 28.39375Q384.70312 28.39375 383.82812 29.39375Q382.96875 30.378124 382.96875 32.3625ZM391.64062 37.55L395.4375 32.159374L391.9375 27.175L394.125 27.175L395.71875 29.6125Q396.17188 30.3 396.4375 30.76875Q396.875 30.128124 397.23438 29.628124L398.98438 27.175L401.07812 27.175L397.5 32.065624L401.35938 37.55L399.20312 37.55L397.0625 34.33125L396.5 33.45625L393.78125 37.55L391.64062 37.55ZM401.82812 25.253124L401.82812 23.2375L403.59375 23.2375L403.59375 25.253124L401.82812 25.253124ZM401.82812 37.55L401.82812 27.175L403.59375 27.175L403.59375 37.55L401.82812 37.55ZM412.92188 34.20625L414.73438 34.440624Q414.3125 36.01875 413.14062 36.909374Q411.98438 37.784374 410.17188 37.784374Q407.90625 37.784374 406.5625 36.39375Q405.23438 34.9875 405.23438 32.45625Q405.23438 29.83125 406.57812 28.39375Q407.92188 26.940624 410.07812 26.940624Q412.15625 26.940624 413.46875 28.3625Q414.79688 29.76875 414.79688 32.346874Q414.79688 32.503124 414.78125 32.815624L407.04688 32.815624Q407.14062 34.51875 408.01562 35.425Q408.89062 36.33125 410.1875 36.33125Q411.15625 36.33125 411.82812 35.83125Q412.51562 35.315624 412.92188 34.20625ZM407.14062 31.3625L412.9375 31.3625Q412.82812 30.065624 412.28125 29.409374Q411.4375 28.39375 410.09375 28.39375Q408.89062 28.39375 408.0625 29.20625Q407.23438 30.003124 407.14062 31.3625ZM426.6875 37.55L426.6875 24.925L421.96875 24.925L421.96875 23.2375L433.3125 23.2375L433.3125 24.925L428.57812 24.925L428.57812 37.55L426.6875 37.55ZM434.8125 37.55L434.8125 23.2375L436.57812 23.2375L436.57812 28.3625Q437.8125 26.940624 439.6875 26.940624Q440.82812 26.940624 441.67188 27.39375Q442.53125 27.846874 442.89062 28.659374Q443.26562 29.45625 443.26562 30.971874L443.26562 37.55L441.51562 37.55L441.51562 30.971874Q441.51562 29.659374 440.9375 29.065624Q440.35938 28.45625 439.32812 28.45625Q438.54688 28.45625 437.84375 28.8625Q437.15625 29.26875 436.85938 29.971874Q436.57812 30.659374 436.57812 31.878124L436.57812 37.55L434.8125 37.55ZM444.79688 37.55L444.79688 27.175L446.375 27.175L446.375 28.753124Q446.98438 27.64375 447.5 27.3Q448.01562 26.940624 448.625 26.940624Q449.51562 26.940624 450.4375 27.503124L449.82812 29.14375Q449.1875 28.753124 448.54688 28.753124Q447.96875 28.753124 447.5 29.1125Q447.04688 29.45625 446.84375 30.065624Q446.5625 31.003124 446.5625 32.1125L446.5625 37.55L444.79688 37.55ZM451.17188 32.3625Q451.17188 29.4875 452.76562 28.096874Q454.10938 26.940624 456.03125 26.940624Q458.17188 26.940624 459.51562 28.346874Q460.875 29.753124 460.875 32.221874Q460.875 34.221874 460.28125 35.378124Q459.6875 36.51875 458.53125 37.159374Q457.39062 37.784374 456.03125 37.784374Q453.84375 37.784374 452.5 36.39375Q451.17188 34.9875 451.17188 32.3625ZM452.96875 32.3625Q452.96875 34.3625 453.82812 35.346874Q454.70312 36.33125 456.03125 36.33125Q457.34375 36.33125 458.20312 35.346874Q459.07812 34.346874 459.07812 32.3Q459.07812 30.378124 458.20312 29.39375Q457.32812 28.39375 456.03125 28.39375Q454.70312 28.39375 453.82812 29.39375Q452.96875 30.378124 452.96875 32.3625ZM469.60938 37.55L469.60938 36.01875Q468.40625 37.784374 466.32812 37.784374Q465.40625 37.784374 464.60938 37.440624Q463.8125 37.08125 463.42188 36.55Q463.04688 36.01875 462.89062 35.2375Q462.78125 34.721874 462.78125 33.596874L462.78125 27.175L464.53125 27.175L464.53125 32.925Q464.53125 34.3 464.64062 34.784374Q464.8125 35.471874 465.34375 35.878124Q465.89062 36.26875 466.67188 36.26875Q467.46875 36.26875 468.15625 35.8625Q468.85938 35.45625 469.14062 34.76875Q469.4375 34.065624 469.4375 32.7375L469.4375 27.175L471.1875 27.175L471.1875 37.55L469.60938 37.55ZM472.5 38.409374L474.20312 38.659374Q474.3125 39.45625 474.79688 39.815624Q475.45312 40.3 476.59375 40.3Q477.8125 40.3 478.46875 39.815624Q479.14062 39.33125 479.375 38.45625Q479.51562 37.909374 479.5 36.190624Q478.34375 37.55 476.625 37.55Q474.48438 37.55 473.3125 36.003124Q472.14062 34.45625 472.14062 32.3Q472.14062 30.815624 472.67188 29.565624Q473.21875 28.315624 474.23438 27.628124Q475.26562 26.940624 476.64062 26.940624Q478.46875 26.940624 479.67188 28.425L479.67188 27.175L481.28125 27.175L481.28125 36.14375Q481.28125 38.565624 480.78125 39.565624Q480.29688 40.58125 479.21875 41.159374Q478.15625 41.753124 476.59375 41.753124Q474.75 41.753124 473.59375 40.925Q472.45312 40.096874 472.5 38.409374ZM473.95312 32.175Q473.95312 34.221874 474.76562 35.159374Q475.57812 36.096874 476.79688 36.096874Q478.0 36.096874 478.8125 35.159374Q479.64062 34.221874 479.64062 32.2375Q479.64062 30.33125 478.79688 29.3625Q477.95312 28.39375 476.76562 28.39375Q475.59375 28.39375 474.76562 29.346874Q473.95312 30.3 473.95312 32.175ZM483.8125 37.55L483.8125 23.2375L485.57812 23.2375L485.57812 28.3625Q486.8125 26.940624 488.6875 26.940624Q489.82812 26.940624 490.67188 27.39375Q491.53125 27.846874 491.89062 28.659374Q492.26562 29.45625 492.26562 30.971874L492.26562 37.55L490.51562 37.55L490.51562 30.971874Q490.51562 29.659374 489.9375 29.065624Q489.35938 28.45625 488.32812 28.45625Q487.54688 28.45625 486.84375 28.8625Q486.15625 29.26875 485.85938 29.971874Q485.57812 30.659374 485.57812 31.878124L485.57812 37.55L483.8125 37.55ZM506.59375 36.26875Q505.60938 37.096874 504.70312 37.440624Q503.79688 37.784374 502.76562 37.784374Q501.0625 37.784374 500.14062 36.95625Q499.21875 36.1125 499.21875 34.815624Q499.21875 34.05 499.5625 33.425Q499.92188 32.8 500.48438 32.425Q501.04688 32.034374 501.75 31.83125Q502.26562 31.70625 503.3125 31.565624Q505.4375 31.315624 506.4375 30.971874Q506.45312 30.6125 506.45312 30.503124Q506.45312 29.440624 505.95312 28.9875Q505.28125 28.39375 503.95312 28.39375Q502.70312 28.39375 502.10938 28.83125Q501.53125 29.26875 501.25 30.378124L499.53125 30.14375Q499.76562 29.034374 500.29688 28.3625Q500.82812 27.675 501.84375 27.315624Q502.85938 26.940624 504.20312 26.940624Q505.53125 26.940624 506.35938 27.253124Q507.1875 27.565624 507.57812 28.05Q507.96875 28.51875 508.125 29.2375Q508.21875 29.690624 508.21875 30.8625L508.21875 33.20625Q508.21875 35.659374 508.32812 36.315624Q508.4375 36.95625 508.78125 37.55L506.9375 37.55Q506.67188 37.003124 506.59375 36.26875ZM506.4375 32.346874Q505.48438 32.7375 503.5625 33.003124Q502.48438 33.159374 502.03125 33.3625Q501.59375 33.55 501.34375 33.925Q501.09375 34.3 501.09375 34.76875Q501.09375 35.471874 501.625 35.940624Q502.15625 36.409374 503.1875 36.409374Q504.20312 36.409374 504.98438 35.971874Q505.78125 35.51875 506.15625 34.753124Q506.4375 34.14375 506.4375 32.9875L506.4375 32.346874ZM526.4375 23.2375L528.3281 23.2375L528.3281 31.503124Q528.3281 33.659374 527.84375 34.940624Q527.3594 36.20625 526.0781 37.003124Q524.8125 37.8 522.7344 37.8Q520.71875 37.8 519.4375 37.1125Q518.1719 36.409374 517.625 35.096874Q517.0781 33.784374 517.0781 31.503124L517.0781 23.2375L518.96875 23.2375L518.96875 31.4875Q518.96875 33.3625 519.3125 34.253124Q519.65625 35.128124 520.5 35.6125Q521.34375 36.08125 522.5781 36.08125Q524.65625 36.08125 525.5469 35.14375Q526.4375 34.190624 526.4375 31.4875L526.4375 23.2375ZM530.0469 37.55L530.0469 23.2375L534.96875 23.2375Q536.6406 23.2375 537.53125 23.440624Q538.75 23.721874 539.625 24.45625Q540.75 25.425 541.3125 26.909374Q541.875 28.39375 541.875 30.315624Q541.875 31.940624 541.5 33.20625Q541.125 34.45625 540.5156 35.284374Q539.9219 36.1125 539.21875 36.596874Q538.5156 37.065624 537.5156 37.315624Q536.5156 37.55 535.2031 37.55L530.0469 37.55ZM531.9375 35.8625L535.0 35.8625Q536.40625 35.8625 537.2031 35.596874Q538.0156 35.33125 538.5 34.846874Q539.1719 34.175 539.5469 33.05Q539.9219 31.909374 539.9219 30.284374Q539.9219 28.034374 539.1875 26.83125Q538.4531 25.628124 537.3906 25.221874Q536.6406 24.925 534.9531 24.925L531.9375 24.925L531.9375 35.8625ZM544.0469 37.55L544.0469 23.2375L549.4375 23.2375Q550.875 23.2375 551.625 23.3625Q552.6719 23.55 553.3906 24.05Q554.1094 24.534374 554.53125 25.425Q554.96875 26.315624 554.96875 27.378124Q554.96875 29.20625 553.7969 30.471874Q552.6406 31.721874 549.6094 31.721874L545.9375 31.721874L545.9375 37.55L544.0469 37.55ZM545.9375 30.034374L549.6406 30.034374Q551.46875 30.034374 552.2344 29.3625Q553.0156 28.675 553.0156 27.425Q553.0156 26.534374 552.5625 25.89375Q552.1094 25.253124 551.375 25.05Q550.8906 24.925 549.59375 24.925L545.9375 24.925L545.9375 30.034374Z" fill-rule="nonzero"/><path fill="#757575" d="M263.26562 56.534374L265.15625 57.003124Q264.5625 59.346874 263.01562 60.58125Q261.46875 61.8 259.21875 61.8Q256.90625 61.8 255.45312 60.8625Q254.01562 59.909374 253.25 58.128124Q252.5 56.33125 252.5 54.284374Q252.5 52.05 253.34375 50.39375Q254.20312 48.721874 255.78125 47.8625Q257.35938 46.9875 259.25 46.9875Q261.40625 46.9875 262.85938 48.08125Q264.32812 49.175 264.90625 51.159374L263.04688 51.596874Q262.54688 50.034374 261.59375 49.33125Q260.65625 48.6125 259.21875 48.6125Q257.5625 48.6125 256.45312 49.409374Q255.34375 50.190624 254.89062 51.534374Q254.45312 52.8625 254.45312 54.26875Q254.45312 56.096874 254.98438 57.471874Q255.51562 58.83125 256.64062 59.503124Q257.76562 60.175 259.0625 60.175Q260.65625 60.175 261.76562 59.253124Q262.875 58.33125 263.26562 56.534374ZM266.17188 56.3625Q266.17188 53.4875 267.76562 52.096874Q269.10938 50.940624 271.03125 50.940624Q273.17188 50.940624 274.51562 52.346874Q275.875 53.753124 275.875 56.221874Q275.875 58.221874 275.28125 59.378124Q274.6875 60.51875 273.53125 61.159374Q272.39062 61.784374 271.03125 61.784374Q268.84375 61.784374 267.5 60.39375Q266.17188 58.9875 266.17188 56.3625ZM267.96875 56.3625Q267.96875 58.3625 268.82812 59.346874Q269.70312 60.33125 271.03125 60.33125Q272.34375 60.33125 273.20312 59.346874Q274.07812 58.346874 274.07812 56.3Q274.07812 54.378124 273.20312 53.39375Q272.32812 52.39375 271.03125 52.39375Q269.70312 52.39375 268.82812 53.39375Q267.96875 54.378124 267.96875 56.3625ZM277.8125 61.55L277.8125 51.175L279.40625 51.175L279.40625 52.659374Q280.54688 50.940624 282.70312 50.940624Q283.64062 50.940624 284.42188 51.284374Q285.21875 51.6125 285.60938 52.159374Q286.0 52.70625 286.15625 53.45625Q286.25 53.95625 286.25 55.175L286.25 61.55L284.48438 61.55L284.48438 55.2375Q284.48438 54.159374 284.28125 53.628124Q284.07812 53.096874 283.54688 52.784374Q283.03125 52.471874 282.32812 52.471874Q281.20312 52.471874 280.39062 53.190624Q279.57812 53.89375 279.57812 55.878124L279.57812 61.55L277.8125 61.55ZM287.8125 61.55L287.8125 51.175L289.40625 51.175L289.40625 52.659374Q290.54688 50.940624 292.70312 50.940624Q293.64062 50.940624 294.42188 51.284374Q295.21875 51.6125 295.60938 52.159374Q296.0 52.70625 296.15625 53.45625Q296.25 53.95625 296.25 55.175L296.25 61.55L294.48438 61.55L294.48438 55.2375Q294.48438 54.159374 294.28125 53.628124Q294.07812 53.096874 293.54688 52.784374Q293.03125 52.471874 292.32812 52.471874Q291.20312 52.471874 290.39062 53.190624Q289.57812 53.89375 289.57812 55.878124L289.57812 61.55L287.8125 61.55ZM304.92188 58.20625L306.73438 58.440624Q306.3125 60.01875 305.14062 60.909374Q303.98438 61.784374 302.17188 61.784374Q299.90625 61.784374 298.5625 60.39375Q297.23438 58.9875 297.23438 56.45625Q297.23438 53.83125 298.57812 52.39375Q299.92188 50.940624 302.07812 50.940624Q304.15625 50.940624 305.46875 52.3625Q306.79688 53.76875 306.79688 56.346874Q306.79688 56.503124 306.78125 56.815624L299.04688 56.815624Q299.14062 58.51875 300.01562 59.425Q300.89062 60.33125 302.1875 60.33125Q303.15625 60.33125 303.82812 59.83125Q304.51562 59.315624 304.92188 58.20625ZM299.14062 55.3625L304.9375 55.3625Q304.82812 54.065624 304.28125 53.409374Q303.4375 52.39375 302.09375 52.39375Q300.89062 52.39375 300.0625 53.20625Q299.23438 54.003124 299.14062 55.3625ZM315.59375 57.753124L317.3125 57.971874Q317.03125 59.76875 315.85938 60.784374Q314.70312 61.784374 313.0 61.784374Q310.875 61.784374 309.57812 60.39375Q308.28125 59.003124 308.28125 56.409374Q308.28125 54.721874 308.82812 53.471874Q309.39062 52.20625 310.53125 51.58125Q311.67188 50.940624 313.01562 50.940624Q314.70312 50.940624 315.76562 51.8Q316.84375 52.659374 317.15625 54.221874L315.4375 54.4875Q315.20312 53.440624 314.57812 52.925Q313.95312 52.39375 313.07812 52.39375Q311.75 52.39375 310.92188 53.346874Q310.09375 54.3 310.09375 56.346874Q310.09375 58.440624 310.89062 59.39375Q311.6875 60.33125 312.98438 60.33125Q314.01562 60.33125 314.70312 59.70625Q315.40625 59.065624 315.59375 57.753124ZM322.65625 59.971874L322.90625 61.534374Q322.17188 61.690624 321.57812 61.690624Q320.625 61.690624 320.09375 61.39375Q319.57812 61.08125 319.35938 60.596874Q319.14062 60.096874 319.14062 58.51875L319.14062 52.55L317.85938 52.55L317.85938 51.175L319.14062 51.175L319.14062 48.6125L320.89062 47.55L320.89062 51.175L322.65625 51.175L322.65625 52.55L320.89062 52.55L320.89062 58.6125Q320.89062 59.3625 320.98438 59.58125Q321.07812 59.784374 321.28125 59.925Q321.5 60.05 321.89062 60.05Q322.17188 60.05 322.65625 59.971874ZM324.82812 49.253124L324.82812 47.2375L326.59375 47.2375L326.59375 49.253124L324.82812 49.253124ZM324.82812 61.55L324.82812 51.175L326.59375 51.175L326.59375 61.55L324.82812 61.55ZM328.17188 56.3625Q328.17188 53.4875 329.76562 52.096874Q331.10938 50.940624 333.03125 50.940624Q335.17188 50.940624 336.51562 52.346874Q337.875 53.753124 337.875 56.221874Q337.875 58.221874 337.28125 59.378124Q336.6875 60.51875 335.53125 61.159374Q334.39062 61.784374 333.03125 61.784374Q330.84375 61.784374 329.5 60.39375Q328.17188 58.9875 328.17188 56.3625ZM329.96875 56.3625Q329.96875 58.3625 330.82812 59.346874Q331.70312 60.33125 333.03125 60.33125Q334.34375 60.33125 335.20312 59.346874Q336.07812 58.346874 336.07812 56.3Q336.07812 54.378124 335.20312 53.39375Q334.32812 52.39375 333.03125 52.39375Q331.70312 52.39375 330.82812 53.39375Q329.96875 54.378124 329.96875 56.3625ZM339.8125 61.55L339.8125 51.175L341.40625 51.175L341.40625 52.659374Q342.54688 50.940624 344.70312 50.940624Q345.64062 50.940624 346.42188 51.284374Q347.21875 51.6125 347.60938 52.159374Q348.0 52.70625 348.15625 53.45625Q348.25 53.95625 348.25 55.175L348.25 61.55L346.48438 61.55L346.48438 55.2375Q346.48438 54.159374 346.28125 53.628124Q346.07812 53.096874 345.54688 52.784374Q345.03125 52.471874 344.32812 52.471874Q343.20312 52.471874 342.39062 53.190624Q341.57812 53.89375 341.57812 55.878124L341.57812 61.55L339.8125 61.55Z" fill-rule="nonzero"/></svg>